<svg width="20" height="20" viewBox="0 0 20 20" fill="none" xmlns="http://www.w3.org/2000/svg">
<path d="M9.99999 19.5833C11.8954 19.5833 13.7482 19.0213 15.3242 17.9682C16.9002 16.9152 18.1285 15.4185 18.8538 13.6674C19.5792 11.9163 19.769 9.98936 19.3992 8.13038C19.0294 6.27139 18.1167 4.56381 16.7764 3.22355C15.4362 1.8833 13.7286 0.970577 11.8696 0.600802C10.0106 0.231027 8.08373 0.420809 6.33261 1.14615C4.58148 1.87149 3.08477 3.09981 2.03174 4.67578C0.978709 6.25175 0.416656 8.10459 0.416656 9.99999C0.419524 12.5408 1.43011 14.9767 3.22672 16.7733C5.02332 18.5699 7.45921 19.5805 9.99999 19.5833ZM4.99999 9.16666H8.95832C9.01358 9.16666 9.06657 9.14471 9.10564 9.10564C9.14471 9.06657 9.16666 9.01358 9.16666 8.95833V4.99999C9.16666 4.77898 9.25445 4.56702 9.41073 4.41074C9.56701 4.25446 9.77898 4.16666 9.99999 4.16666C10.221 4.16666 10.433 4.25446 10.5892 4.41074C10.7455 4.56702 10.8333 4.77898 10.8333 4.99999V8.95833C10.8333 9.01358 10.8553 9.06657 10.8943 9.10564C10.9334 9.14471 10.9864 9.16666 11.0417 9.16666H15C15.221 9.16666 15.433 9.25446 15.5892 9.41074C15.7455 9.56702 15.8333 9.77898 15.8333 9.99999C15.8333 10.221 15.7455 10.433 15.5892 10.5892C15.433 10.7455 15.221 10.8333 15 10.8333H11.0417C10.9864 10.8333 10.9334 10.8553 10.8943 10.8943C10.8553 10.9334 10.8333 10.9864 10.8333 11.0417V15C10.8333 15.221 10.7455 15.433 10.5892 15.5892C10.433 15.7455 10.221 15.8333 9.99999 15.8333C9.77898 15.8333 9.56701 15.7455 9.41073 15.5892C9.25445 15.433 9.16666 15.221 9.16666 15V11.0417C9.16666 10.9864 9.14471 10.9334 9.10564 10.8943C9.06657 10.8553 9.01358 10.8333 8.95832 10.8333H4.99999C4.77898 10.8333 4.56701 10.7455 4.41073 10.5892C4.25445 10.433 4.16666 10.221 4.16666 9.99999C4.16666 9.77898 4.25445 9.56702 4.41073 9.41074C4.56701 9.25446 4.77898 9.16666 4.99999 9.16666Z" fill="white"/>
</svg>
