<svg width="24" height="24" viewBox="0 0 24 24" fill="none" xmlns="http://www.w3.org/2000/svg">
<g clip-path="url(#clip0)">
<path d="M4.5004 7.49998C4.67731 7.49918 4.85093 7.45216 5.00406 7.36358C5.1572 7.275 5.28452 7.14794 5.3734 6.99498C5.85857 6.11556 6.58055 5.38977 7.4574 4.89998C7.57407 4.83706 7.67706 4.75156 7.76039 4.64848C7.84372 4.54539 7.90573 4.42676 7.9428 4.2995C7.97987 4.17223 7.99127 4.03887 7.97633 3.90715C7.96139 3.77544 7.92042 3.64802 7.85579 3.53228C7.79116 3.41655 7.70417 3.31482 7.59987 3.23301C7.49558 3.1512 7.37606 3.09094 7.24826 3.05574C7.12046 3.02054 6.98695 3.0111 6.85547 3.02796C6.72399 3.04483 6.59718 3.08766 6.4824 3.15398C5.28222 3.82106 4.29338 4.81163 3.6284 6.01298C3.49886 6.24439 3.46654 6.51777 3.53855 6.773C3.61057 7.02824 3.78101 7.24441 4.0124 7.37398C4.16109 7.45833 4.32946 7.50181 4.5004 7.49998Z" fill="white"/>
<path d="M6.43188 0.710975C6.35495 0.457395 6.18052 0.244718 5.9469 0.119656C5.71327 -0.00540574 5.43956 -0.0326259 5.18588 0.0439745C3.96241 0.393899 2.84823 1.04969 1.94842 1.94951C1.0486 2.84932 0.392809 3.9635 0.0428843 5.18697C0.00482459 5.31271 -0.00808609 5.44472 0.00489001 5.57545C0.0178661 5.70618 0.0564747 5.83308 0.11851 5.94888C0.180544 6.06469 0.26479 6.16713 0.366432 6.25037C0.468074 6.3336 0.585121 6.39599 0.710884 6.43397C0.804708 6.46186 0.902005 6.47634 0.999884 6.47697C1.21472 6.47684 1.4238 6.40752 1.59616 6.27928C1.76853 6.15104 1.89501 5.97071 1.95688 5.76497C2.21194 4.85732 2.69604 4.03047 3.36271 3.3638C4.02938 2.69713 4.85623 2.21303 5.76388 1.95797C5.88965 1.91999 6.00669 1.8576 6.10834 1.77437C6.20998 1.69113 6.29422 1.58869 6.35626 1.47288C6.41829 1.35708 6.4569 1.23018 6.46988 1.09945C6.48285 0.968721 6.46994 0.836714 6.43188 0.710975Z" fill="white"/>
<path d="M19.1461 4.38599C18.6628 3.9034 18.1149 3.49013 17.5181 3.15799C17.4033 3.08422 17.2747 3.03473 17.14 3.01256C17.0054 2.99039 16.8677 2.996 16.7353 3.02906C16.6029 3.06211 16.4787 3.12191 16.3703 3.20477C16.2619 3.28763 16.1716 3.3918 16.1049 3.51086C16.0383 3.62993 15.9967 3.76137 15.9828 3.89711C15.9688 4.03284 15.9828 4.16999 16.0239 4.30012C16.0649 4.43024 16.1322 4.55059 16.2215 4.65375C16.3108 4.75692 16.4202 4.84071 16.5431 4.89999C17.4193 5.38745 18.1415 6.11038 18.6281 6.98699C18.7607 7.215 18.9767 7.38248 19.2306 7.45397C19.4844 7.52546 19.7561 7.49534 19.9881 7.36999C20.2195 7.24042 20.39 7.02424 20.462 6.76901C20.534 6.51378 20.5017 6.24039 20.3721 6.00899C20.0397 5.4144 19.6272 4.86829 19.1461 4.38599Z" fill="white"/>
<path d="M23.957 5.18697C23.6071 3.9635 22.9513 2.84932 22.0515 1.9495C21.1517 1.04969 20.0375 0.393894 18.814 0.0439696C18.6873 0.00220088 18.5535 -0.013783 18.4205 -0.00304053C18.2875 0.00770198 18.158 0.0449536 18.0396 0.10652C17.9212 0.168086 17.8163 0.252722 17.7312 0.355441C17.646 0.45816 17.5822 0.576885 17.5437 0.704622C17.5051 0.832359 17.4925 0.966524 17.5066 1.09921C17.5206 1.2319 17.5611 1.36043 17.6256 1.47723C17.6902 1.59403 17.7774 1.69674 17.8822 1.7793C17.9871 1.86186 18.1073 1.92261 18.236 1.95797C19.1437 2.21303 19.9705 2.69713 20.6372 3.3638C21.3038 4.03046 21.7879 4.85731 22.043 5.76497C22.1235 6.0162 22.2984 6.22636 22.5309 6.35116C22.7633 6.47596 23.0351 6.50565 23.289 6.43397C23.4148 6.39599 23.5318 6.3336 23.6335 6.25036C23.7351 6.16713 23.8193 6.06468 23.8814 5.94888C23.9434 5.83307 23.982 5.70618 23.995 5.57545C24.008 5.44472 23.9951 5.31271 23.957 5.18697Z" fill="white"/>
<path d="M13.5 21.5H10.5C10.3674 21.5 10.2402 21.5527 10.1464 21.6464C10.0527 21.7402 10 21.8674 10 22C10 22.5304 10.2107 23.0391 10.5858 23.4142C10.9609 23.7893 11.4696 24 12 24C12.5304 24 13.0391 23.7893 13.4142 23.4142C13.7893 23.0391 14 22.5304 14 22C14 21.8674 13.9473 21.7402 13.8536 21.6464C13.7598 21.5527 13.6326 21.5 13.5 21.5Z" fill="white"/>
<path d="M18.5 13.647V13C18.5 9.507 16.421 6.521 13.5 5.73V4.5C13.5 4.10218 13.3419 3.72064 13.0606 3.43934C12.7793 3.15804 12.3978 3 12 3C11.6022 3 11.2206 3.15804 10.9393 3.43934C10.658 3.72064 10.5 4.10218 10.5 4.5V5.73C7.57898 6.521 5.49998 9.507 5.49998 13V13.646C5.49768 15.7737 5.0024 17.8719 4.05298 19.776C4.01478 19.8522 3.99671 19.937 4.00049 20.0221C4.00427 20.1073 4.02976 20.1901 4.07455 20.2627C4.11935 20.3352 4.18195 20.3951 4.25641 20.4367C4.33087 20.4782 4.41472 20.5 4.49998 20.5H19.5C19.5852 20.5 19.6691 20.4782 19.7436 20.4367C19.818 20.3951 19.8806 20.3352 19.9254 20.2627C19.9702 20.1901 19.9957 20.1073 19.9995 20.0221C20.0033 19.937 19.9852 19.8522 19.947 19.776C18.9977 17.8722 18.5024 15.7743 18.5 13.647Z" fill="white"/>
</g>
<defs>
<clipPath id="clip0">
<rect width="24" height="24" fill="white"/>
</clipPath>
</defs>
</svg>
