<svg width="30" height="30" viewBox="0 0 30 30" fill="none" xmlns="http://www.w3.org/2000/svg">
<path d="M25.3125 0.9375H29.0625L25.3125 5.625H29.0625" stroke="white" stroke-width="1.5" stroke-linecap="round" stroke-linejoin="round"/>
<path d="M17.8125 8.4375H22.5L17.8125 14.0625H22.5" stroke="white" stroke-width="1.5" stroke-linecap="round" stroke-linejoin="round"/>
<path d="M9.68457 27.1875C9.84334 27.7284 10.173 28.2032 10.6243 28.5411C11.0755 28.8789 11.624 29.0614 12.1877 29.0614C12.7514 29.0614 13.2999 28.8789 13.7511 28.5411C14.2024 28.2032 14.532 27.7284 14.6908 27.1875" stroke="white" stroke-width="1.5" stroke-linecap="round" stroke-linejoin="round"/>
<path d="M12.1875 3.75V0.9375" stroke="white" stroke-width="1.5" stroke-linecap="round" stroke-linejoin="round"/>
<path d="M16.2063 4.6875C14.954 4.07734 13.5805 3.75692 12.1875 3.75C9.7011 3.75 7.31653 4.73772 5.55837 6.49587C3.80022 8.25403 2.8125 10.6386 2.8125 13.125C2.8125 20.485 0.9375 23.4375 0.9375 23.4375H23.4375C22.624 22.0273 22.0932 20.4721 21.875 18.8587" stroke="white" stroke-width="1.5" stroke-linecap="round" stroke-linejoin="round"/>
</svg>
