<svg width="30" height="30" viewBox="0 0 30 30" fill="none" xmlns="http://www.w3.org/2000/svg">
<circle cx="15" cy="15" r="15" fill="white" fill-opacity="0.2"/>
<g clip-path="url(#clip0)">
<path d="M22.8045 14.5285L15.4712 7.19519C15.3462 7.07021 15.1766 7 14.9999 7C14.8231 7 14.6535 7.07021 14.5285 7.19519L7.19519 14.5285C7.10198 14.6218 7.03851 14.7405 7.0128 14.8698C6.98709 14.9991 7.00029 15.1332 7.05074 15.255C7.10119 15.3768 7.18661 15.4809 7.29622 15.5541C7.40583 15.6274 7.53469 15.6665 7.66652 15.6665H8.49986C8.54406 15.6665 8.58645 15.6841 8.61771 15.7153C8.64897 15.7466 8.66652 15.789 8.66652 15.8332V22.3332C8.66652 22.51 8.73676 22.6796 8.86179 22.8046C8.98681 22.9296 9.15638 22.9999 9.33319 22.9999H13.1665C13.2107 22.9999 13.2531 22.9823 13.2844 22.951C13.3156 22.9198 13.3332 22.8774 13.3332 22.8332V19.6665C13.3332 19.2245 13.5088 18.8006 13.8213 18.488C14.1339 18.1755 14.5578 17.9999 14.9999 17.9999C15.4419 17.9999 15.8658 18.1755 16.1784 18.488C16.4909 18.8006 16.6665 19.2245 16.6665 19.6665V22.8332C16.6665 22.8774 16.6841 22.9198 16.7153 22.951C16.7466 22.9823 16.789 22.9999 16.8332 22.9999H20.6665C20.8433 22.9999 21.0129 22.9296 21.1379 22.8046C21.263 22.6796 21.3332 22.51 21.3332 22.3332V15.8332C21.3332 15.789 21.3508 15.7466 21.382 15.7153C21.4133 15.6841 21.4557 15.6665 21.4999 15.6665H22.3332C22.465 15.6665 22.5939 15.6274 22.7035 15.5541C22.8131 15.4809 22.8985 15.3768 22.949 15.255C22.9994 15.1332 23.0126 14.9991 22.9869 14.8698C22.9612 14.7405 22.8977 14.6218 22.8045 14.5285ZM14.9999 14.9999C14.6702 14.9999 14.348 14.9021 14.0739 14.719C13.7998 14.5358 13.5862 14.2755 13.4601 13.971C13.3339 13.6665 13.3009 13.3313 13.3652 13.008C13.4295 12.6847 13.5883 12.3878 13.8213 12.1547C14.0544 11.9216 14.3514 11.7629 14.6747 11.6985C14.998 11.6342 15.3331 11.6672 15.6377 11.7934C15.9422 11.9195 16.2025 12.1332 16.3856 12.4072C16.5688 12.6813 16.6665 13.0036 16.6665 13.3332C16.6665 13.5521 16.6234 13.7688 16.5397 13.971C16.4559 14.1732 16.3331 14.3569 16.1784 14.5117C16.0236 14.6665 15.8399 14.7892 15.6377 14.873C15.4355 14.9567 15.2187 14.9999 14.9999 14.9999Z" fill="white"/>
</g>
<defs>
<clipPath id="clip0">
<rect x="7" y="7" width="16" height="16" fill="white"/>
</clipPath>
</defs>
</svg>
