<svg width="60" height="60" viewBox="0 0 60 60" fill="none" xmlns="http://www.w3.org/2000/svg">
<g clip-path="url(#clip0)">
<path d="M11.2505 18.7492C11.6928 18.7472 12.1268 18.6296 12.5097 18.4082C12.8925 18.1867 13.2108 17.8691 13.433 17.4867C14.6459 15.2881 16.4509 13.4737 18.643 12.2492C18.9347 12.0919 19.1922 11.8781 19.4005 11.6204C19.6088 11.3627 19.7638 11.0661 19.8565 10.748C19.9492 10.4298 19.9777 10.0964 19.9403 9.76712C19.903 9.43785 19.8006 9.11928 19.639 8.82995C19.4774 8.54062 19.2599 8.28629 18.9992 8.08177C18.7385 7.87724 18.4396 7.7266 18.1202 7.63859C17.8007 7.55059 17.4669 7.52698 17.1382 7.56915C16.8095 7.61131 16.4925 7.7184 16.2055 7.88419C13.2051 9.55189 10.733 12.0283 9.07052 15.0317C8.74666 15.6102 8.66586 16.2937 8.84589 16.9317C9.02593 17.5698 9.45204 18.1103 10.0305 18.4342C10.4022 18.6451 10.8232 18.7538 11.2505 18.7492Z" fill="#EA1C4E"/>
<path d="M16.0797 1.77619C15.8874 1.14224 15.4513 0.610544 14.8672 0.297889C14.2832 -0.0147656 13.5989 -0.0828159 12.9647 0.108685C9.90603 0.983497 7.12058 2.62298 4.87104 4.87251C2.6215 7.12205 0.982022 9.9075 0.107211 12.9662C0.0120615 13.2805 -0.0202152 13.6106 0.012225 13.9374C0.0446653 14.2642 0.141187 14.5814 0.296274 14.871C0.451361 15.1605 0.661975 15.4166 0.91608 15.6247C1.17019 15.8328 1.4628 15.9887 1.77721 16.0837C2.01177 16.1534 2.25501 16.1896 2.49971 16.1912C3.0368 16.1908 3.5595 16.0175 3.99041 15.697C4.42132 15.3764 4.73753 14.9255 4.89221 14.4112C5.52986 12.142 6.74011 10.0749 8.40678 8.40825C10.0734 6.74158 12.1406 5.53133 14.4097 4.89368C14.7241 4.79873 15.0167 4.64275 15.2708 4.43467C15.5249 4.22658 15.7356 3.97047 15.8906 3.68095C16.0457 3.39144 16.1423 3.07421 16.1747 2.74738C16.2071 2.42055 16.1749 2.09053 16.0797 1.77619Z" fill="#EA1C4E"/>
<path d="M47.8649 10.9648C46.6566 9.75837 45.2869 8.72521 43.7949 7.89485C43.5079 7.71044 43.1862 7.58671 42.8496 7.53128C42.513 7.47584 42.1687 7.48988 41.8377 7.57252C41.5068 7.65516 41.1962 7.80465 40.9252 8.0118C40.6542 8.21895 40.4284 8.47937 40.2618 8.77703C40.0952 9.0747 39.9913 9.40331 39.9564 9.74264C39.9216 10.082 39.9566 10.4249 40.0592 10.7502C40.1618 11.0755 40.3299 11.3764 40.5532 11.6343C40.7764 11.8922 41.0501 12.1017 41.3574 12.2498C43.5477 13.4685 45.3533 15.2758 46.5699 17.4673C46.9011 18.0374 47.4413 18.4561 48.0759 18.6348C48.7105 18.8135 49.3898 18.7382 49.9699 18.4248C50.5483 18.1009 50.9744 17.5605 51.1545 16.9224C51.3345 16.2843 51.2537 15.6009 50.9299 15.0223C50.0988 13.5359 49.0675 12.1706 47.8649 10.9648Z" fill="#EA1C4E"/>
<path d="M59.892 12.9675C59.0172 9.90883 57.3777 7.12338 55.1282 4.87384C52.8787 2.62431 50.0932 0.984827 47.0345 0.110015C46.7177 0.00559374 46.3832 -0.034366 46.0507 -0.00750977C45.7182 0.0193465 45.3944 0.112476 45.0985 0.266391C44.8025 0.420307 44.5403 0.631896 44.3274 0.888694C44.1145 1.14549 43.9551 1.44231 43.8587 1.76165C43.7623 2.08099 43.7307 2.4164 43.7659 2.74813C43.8011 3.07985 43.9023 3.40118 44.0636 3.69318C44.2249 3.98518 44.443 4.24194 44.7051 4.44835C44.9671 4.65475 45.2679 4.80662 45.5895 4.89502C47.8587 5.53266 49.9258 6.74291 51.5925 8.40958C53.2591 10.0763 54.4694 12.1434 55.107 14.4125C55.3083 15.0406 55.7456 15.566 56.3267 15.878C56.9078 16.19 57.5873 16.2642 58.222 16.085C58.5364 15.9901 58.829 15.8341 59.0831 15.626C59.3373 15.4179 59.5479 15.1618 59.703 14.8723C59.858 14.5828 59.9546 14.2655 59.987 13.9387C60.0194 13.6119 59.9872 13.2819 59.892 12.9675Z" fill="#EA1C4E"/>
<path d="M33.75 53.75H26.25C25.9185 53.75 25.6005 53.8817 25.3661 54.1161C25.1317 54.3505 25 54.6685 25 55C25 56.3261 25.5268 57.5979 26.4645 58.5355C27.4021 59.4732 28.6739 60 30 60C31.3261 60 32.5979 59.4732 33.5355 58.5355C34.4732 57.5979 35 56.3261 35 55C35 54.6685 34.8683 54.3505 34.6339 54.1161C34.3995 53.8817 34.0815 53.75 33.75 53.75Z" fill="#EA1C4E"/>
<path d="M46.25 34.1175V32.5C46.25 23.7675 41.0525 16.3025 33.75 14.325V11.25C33.75 10.2554 33.3549 9.30161 32.6516 8.59835C31.9483 7.89509 30.9945 7.5 30 7.5C29.0054 7.5 28.0516 7.89509 27.3483 8.59835C26.645 9.30161 26.25 10.2554 26.25 11.25V14.325C18.9475 16.3025 13.75 23.7675 13.75 32.5V34.115C13.7442 39.4342 12.506 44.6797 10.1325 49.44C10.037 49.6306 9.99179 49.8424 10.0012 50.0554C10.0107 50.2683 10.0744 50.4753 10.1864 50.6567C10.2984 50.8381 10.4549 50.9878 10.641 51.0916C10.8272 51.1955 11.0368 51.25 11.25 51.25H48.75C48.9631 51.25 49.1727 51.1955 49.3589 51.0916C49.545 50.9878 49.7015 50.8381 49.8135 50.6567C49.9255 50.4753 49.9893 50.2683 49.9987 50.0554C50.0081 49.8424 49.963 49.6306 49.8675 49.44C47.4943 44.6805 46.2561 39.4359 46.25 34.1175Z" fill="#EA1C4E"/>
</g>
<defs>
<clipPath id="clip0">
<rect width="60" height="60" fill="white"/>
</clipPath>
</defs>
</svg>
