<svg width="30" height="30" viewBox="0 0 30 30" fill="none" xmlns="http://www.w3.org/2000/svg">
<path d="M28.126 2.8125L1.87598 29.0625" stroke="black" stroke-width="1.5" stroke-linecap="round" stroke-linejoin="round"/>
<path d="M12.5 27.1875C12.6588 27.7284 12.9885 28.2032 13.4397 28.5411C13.8909 28.8789 14.4394 29.0614 15.0031 29.0614C15.5668 29.0614 16.1153 28.8789 16.5666 28.5411C17.0178 28.2032 17.3475 27.7284 17.5062 27.1875" stroke="black" stroke-width="1.5" stroke-linecap="round" stroke-linejoin="round"/>
<path d="M15.001 3.75V0.9375" stroke="black" stroke-width="1.5" stroke-linecap="round" stroke-linejoin="round"/>
<path d="M13.125 23.4377H26.25C26.25 23.4377 24.375 21.9377 24.375 13.1252C24.3604 12.7419 24.3216 12.3599 24.2587 11.9814" stroke="black" stroke-width="1.5" stroke-linecap="round" stroke-linejoin="round"/>
<path d="M20.265 5.37488C18.856 4.41853 17.2131 3.86402 15.5128 3.77087C13.8124 3.67773 12.1188 4.04947 10.6138 4.84619C9.10878 5.64291 7.84919 6.83451 6.97026 8.29305C6.09133 9.75159 5.62626 11.422 5.625 13.1249V19.6874" stroke="black" stroke-width="1.5" stroke-linecap="round" stroke-linejoin="round"/>
</svg>
