<svg width="50" height="50" viewBox="0 0 50 50" fill="none" xmlns="http://www.w3.org/2000/svg">
<path d="M40.9375 9.81299H35.6525C35.1005 9.81299 34.6525 10.26 34.6525 10.813V12.456H17.2215V10.813C17.2215 10.26 16.7735 9.81299 16.2215 9.81299H10.9365C10.3845 9.81299 9.93652 10.26 9.93652 10.813V16.097C9.93652 16.65 10.3845 17.097 10.9365 17.097H12.5785V34.529H10.9365C10.3845 34.529 9.93652 34.976 9.93652 35.529V40.813C9.93652 41.366 10.3845 41.813 10.9365 41.813H16.2215C16.7735 41.813 17.2215 41.366 17.2215 40.813V39.17H34.6525V40.813C34.6525 41.366 35.1005 41.813 35.6525 41.813H40.9375C41.4895 41.813 41.9375 41.366 41.9375 40.813V35.529C41.9375 34.976 41.4895 34.529 40.9375 34.529H39.2955V17.097H40.9375C41.4895 17.097 41.9375 16.65 41.9375 16.097V10.813C41.9375 10.26 41.4895 9.81299 40.9375 9.81299ZM11.9375 11.813H15.2225V13.453C15.2225 13.454 15.2225 13.455 15.2225 13.455V13.457V15.096H11.9375V11.813ZM11.9375 39.813V36.529H15.2225V38.168C15.2225 38.169 15.2225 38.17 15.2225 38.17V38.172V39.812H11.9375V39.813ZM39.9375 39.813H36.6525V36.529H39.9375V39.813ZM37.2945 34.528H35.6515C35.0995 34.528 34.6515 34.975 34.6515 35.528V37.17H17.2215V35.528C17.2215 34.975 16.7735 34.528 16.2215 34.528H14.5795V17.097H16.2225C16.7745 17.097 17.2225 16.65 17.2225 16.097V14.455H34.6535V16.097C34.6535 16.65 35.1015 17.097 35.6535 17.097H37.2965V34.528H37.2945ZM39.9375 15.097H36.6525V11.813H39.9375V15.097Z" fill="white"/>
</svg>
