<svg width="14" height="20" viewBox="0 0 14 20" fill="none" xmlns="http://www.w3.org/2000/svg">
<g clip-path="url(#clip0)">
<path d="M11.3749 9.71588C11.3751 9.97783 11.3347 10.2368 11.2562 10.4756C11.1777 10.7144 11.0631 10.9275 10.9199 11.1006L4.41456 18.9579C4.19899 19.2063 3.92121 19.329 3.6406 19.2998C3.36 19.2706 3.09885 19.0918 2.913 18.8017C2.72715 18.5116 2.63134 18.1332 2.64607 17.7474C2.6608 17.3616 2.78489 16.999 2.99181 16.7371L8.68048 9.86644C8.69609 9.84765 8.70861 9.8245 8.71718 9.79853C8.72575 9.77257 8.73019 9.74439 8.73019 9.71588C8.73019 9.68737 8.72575 9.65919 8.71718 9.63323C8.70861 9.60726 8.69609 9.58411 8.68048 9.56532L2.99181 2.69464C2.78489 2.4328 2.6608 2.0702 2.64607 1.68438C2.63134 1.29856 2.72715 0.920135 2.913 0.630032C3.09885 0.339929 3.36 0.16117 3.6406 0.131978C3.92121 0.102786 4.19899 0.22548 4.41456 0.473823L10.9176 8.32877C11.0611 8.50219 11.1761 8.71557 11.255 8.95473C11.3338 9.1939 11.3747 9.45336 11.3749 9.71588Z" fill="white"/>
</g>
<defs>
<clipPath id="clip0">
<rect width="14" height="19.2209" fill="white" transform="translate(0 0.105614)"/>
</clipPath>
</defs>
</svg>
