<svg width="80" height="80" viewBox="0 0 80 80" fill="none" xmlns="http://www.w3.org/2000/svg">
<path fill-rule="evenodd" clip-rule="evenodd" d="M39.9997 30.0007V20.0007C28.9663 20.0007 19.9997 28.9673 19.9997 40.0007C19.9997 43.3673 20.833 46.5673 22.333 49.334L17.4663 54.2007C14.8663 50.1007 13.333 45.234 13.333 40.0007C13.333 25.2673 25.2663 13.334 39.9997 13.334V3.33398L53.333 16.6673L39.9997 30.0007ZM57.6663 30.6679L62.533 25.8012C65.133 29.9012 66.6663 34.7679 66.6663 40.0012C66.6663 54.7345 54.733 66.6679 39.9997 66.6679V76.6679L26.6663 63.3345L39.9997 50.0012V60.0012C51.033 60.0012 59.9997 51.0345 59.9997 40.0012C59.9997 36.6345 59.133 33.4679 57.6663 30.6679Z" fill="white"/>
</svg>
