<svg width="30" height="30" viewBox="0 0 30 30" fill="none" xmlns="http://www.w3.org/2000/svg">
<path d="M6.5625 17.8096V23.4346H0.9375" stroke="white" stroke-width="1.5" stroke-linecap="round" stroke-linejoin="round"/>
<path d="M23.4375 12.1846V6.55957H29.0625" stroke="white" stroke-width="1.5" stroke-linecap="round" stroke-linejoin="round"/>
<path d="M23.7901 6.55664C25.7297 8.57736 26.9143 11.2044 27.1445 13.9959C27.3748 16.7873 26.6367 19.573 25.0544 21.8842C23.4721 24.1954 21.1422 25.8912 18.4565 26.6864C15.7708 27.4816 12.8931 27.3276 10.3076 26.2504" stroke="white" stroke-width="1.5" stroke-linecap="round" stroke-linejoin="round"/>
<path d="M6.20898 23.4391C4.27358 21.4173 3.09274 18.7912 2.86475 16.0017C2.63676 13.2122 3.37551 10.4293 4.95693 8.12008C6.53836 5.81091 8.86616 4.11618 11.5495 3.32047C14.2327 2.52476 17.1081 2.67654 19.6927 3.75031" stroke="white" stroke-width="1.5" stroke-linecap="round" stroke-linejoin="round"/>
</svg>
