<svg width="18" height="17" viewBox="0 0 18 17" fill="none" xmlns="http://www.w3.org/2000/svg">
<path fill-rule="evenodd" clip-rule="evenodd" d="M13.5833 15.5833C14.3625 15.5833 15 14.9458 15 14.1666V4.24996C15 3.47079 14.3625 2.83329 13.5833 2.83329H12.875V1.41663H11.4583V2.83329H5.79167V1.41663H4.375V2.83329H3.66667C2.88042 2.83329 2.25708 3.47079 2.25708 4.24996L2.25 14.1666C2.25 14.9458 2.88042 15.5833 3.66667 15.5833H13.5833ZM6.49999 7.79163H5.08332V9.20829H6.49999V7.79163ZM3.66668 5.66664H13.5833V4.24997H3.66668V5.66664ZM13.5833 7.08328V14.1666H3.66668V7.08328H13.5833ZM12.1667 9.20829V7.79163H10.75V9.20829H12.1667ZM9.33335 9.20829H7.91668V7.79163H9.33335V9.20829Z" fill="white"/>
</svg>
