<svg width="22" height="22" viewBox="0 0 22 22" fill="none" xmlns="http://www.w3.org/2000/svg">
<g opacity="0.5">
<g clip-path="url(#clip0)">
<path d="M11.6875 4.82251H3.4375C1.91872 4.82251 0.6875 6.05373 0.6875 7.57251V14.4475C0.6875 15.9663 1.91872 17.1975 3.4375 17.1975H11.6875C13.2063 17.1975 14.4375 15.9663 14.4375 14.4475V7.57251C14.4375 6.05373 13.2063 4.82251 11.6875 4.82251Z" stroke="#2B3137" stroke-width="1.5" stroke-linecap="round" stroke-linejoin="round"/>
<path d="M17.1875 13.76L20.3179 15.3248C20.4227 15.3771 20.5392 15.4018 20.6562 15.3965C20.7732 15.3911 20.887 15.356 20.9866 15.2944C21.0862 15.2328 21.1685 15.1467 21.2255 15.0444C21.2826 14.9421 21.3125 14.8268 21.3125 14.7097V7.30944C21.3126 7.19227 21.2827 7.07703 21.2257 6.97468C21.1686 6.87233 21.0863 6.78628 20.9867 6.72472C20.887 6.66316 20.7732 6.62813 20.6561 6.62298C20.5391 6.61783 20.4226 6.64271 20.3179 6.69528L17.1875 8.26003" stroke="#2B3137" stroke-width="1.5" stroke-linecap="round" stroke-linejoin="round"/>
</g>
</g>
<defs>
<clipPath id="clip0">
<rect width="22" height="22" fill="white"/>
</clipPath>
</defs>
</svg>
