<svg width="24" height="24" viewBox="0 0 24 24" fill="none" xmlns="http://www.w3.org/2000/svg">
<g clip-path="url(#clip0)">
<path d="M22.5621 5.838C22.4261 6.51817 22.0587 7.13021 21.5223 7.56997C20.9859 8.00974 20.3137 8.25004 19.6201 8.25H4.38009C3.68647 8.25004 3.01427 8.00974 2.47787 7.56997C1.94148 7.13021 1.57404 6.51817 1.43809 5.838L0.779094 2.544C0.735598 2.32638 0.74093 2.10183 0.794706 1.88652C0.848482 1.67121 0.949362 1.47052 1.09007 1.29891C1.23078 1.1273 1.40782 0.989055 1.60842 0.894135C1.80901 0.799214 2.02817 0.749986 2.25009 0.75H21.7501C21.972 0.749986 22.1912 0.799214 22.3918 0.894135C22.5924 0.989055 22.7694 1.1273 22.9101 1.29891C23.0508 1.47052 23.1517 1.67121 23.2055 1.88652C23.2593 2.10183 23.2646 2.32638 23.2211 2.544L22.5621 5.838Z" stroke="white" stroke-width="1.5" stroke-linecap="round" stroke-linejoin="round"/>
<path d="M3.818 8.19995C2.86408 9.67188 2.32489 11.3739 2.25725 13.1266C2.18962 14.8793 2.59605 16.6178 3.43371 18.1588C4.27137 19.6999 5.50924 20.9865 7.01685 21.8829C8.52447 22.7794 10.246 23.2525 12 23.2525C13.754 23.2525 15.4755 22.7794 16.9832 21.8829C18.4908 20.9865 19.7286 19.6999 20.5663 18.1588C21.404 16.6178 21.8104 14.8793 21.7428 13.1266C21.6751 11.3739 21.1359 9.67188 20.182 8.19995" stroke="white" stroke-width="1.5" stroke-linecap="round" stroke-linejoin="round"/>
<path d="M8.25 22.5V16.5C8.25 15.5054 8.64509 14.5516 9.34835 13.8483C10.0516 13.1451 11.0054 12.75 12 12.75C12.9946 12.75 13.9484 13.1451 14.6517 13.8483C15.3549 14.5516 15.75 15.5054 15.75 16.5V22.5" stroke="white" stroke-width="1.5" stroke-linecap="round" stroke-linejoin="round"/>
<path d="M12 18.375C12.0995 18.375 12.1948 18.4145 12.2652 18.4848C12.3355 18.5552 12.375 18.6505 12.375 18.75" stroke="white" stroke-width="1.5" stroke-linecap="round" stroke-linejoin="round"/>
<path d="M11.625 18.75C11.625 18.6505 11.6645 18.5552 11.7348 18.4848C11.8052 18.4145 11.9005 18.375 12 18.375" stroke="white" stroke-width="1.5" stroke-linecap="round" stroke-linejoin="round"/>
<path d="M12 19.125C11.9005 19.125 11.8052 19.0855 11.7348 19.0152C11.6645 18.9448 11.625 18.8495 11.625 18.75" stroke="white" stroke-width="1.5" stroke-linecap="round" stroke-linejoin="round"/>
<path d="M12.375 18.75C12.375 18.8495 12.3355 18.9448 12.2652 19.0152C12.1948 19.0855 12.0995 19.125 12 19.125" stroke="white" stroke-width="1.5" stroke-linecap="round" stroke-linejoin="round"/>
</g>
<defs>
<clipPath id="clip0">
<rect width="24" height="24" fill="white"/>
</clipPath>
</defs>
</svg>
