<svg width="10" height="10" viewBox="0 0 10 10" fill="none" xmlns="http://www.w3.org/2000/svg">
<path d="M5 0C4.0111 0 3.0444 0.293245 2.22215 0.842652C1.3999 1.39206 0.759043 2.17295 0.380605 3.08658C0.00216643 4.00021 -0.0968502 5.00555 0.0960758 5.97545C0.289002 6.94536 0.765206 7.83627 1.46447 8.53553C2.16373 9.23479 3.05465 9.711 4.02455 9.90392C4.99446 10.0969 5.99979 9.99783 6.91342 9.6194C7.82705 9.24096 8.60794 8.6001 9.15735 7.77785C9.70676 6.9556 10 5.98891 10 5C9.99857 3.67436 9.47132 2.40342 8.53395 1.46605C7.59658 0.528678 6.32564 0.00143378 5 0V0ZM7.16667 7.17542C7.09112 7.25537 6.98742 7.30278 6.87753 7.3076C6.76763 7.31242 6.66018 7.27428 6.57792 7.20125L4.51167 5.30708C4.46881 5.26819 4.43453 5.2208 4.411 5.16793C4.38747 5.11506 4.37521 5.05787 4.375 5V2.70833C4.375 2.59783 4.4189 2.49185 4.49704 2.41371C4.57518 2.33557 4.68116 2.29167 4.79167 2.29167C4.90217 2.29167 5.00816 2.33557 5.0863 2.41371C5.16444 2.49185 5.20833 2.59783 5.20833 2.70833V4.81667L7.13917 6.58667C7.1797 6.62352 7.21258 6.668 7.2359 6.71757C7.25922 6.76714 7.27255 6.82082 7.2751 6.87555C7.27765 6.93027 7.26939 6.98496 7.25079 7.03649C7.23218 7.08801 7.2036 7.13537 7.16667 7.17583V7.17542Z" fill="#2B3137" fill-opacity="0.5"/>
</svg>
