<svg width="10" height="10" viewBox="0 0 10 10" fill="none" xmlns="http://www.w3.org/2000/svg">
<path fill-rule="evenodd" clip-rule="evenodd" d="M5 10C7.76142 10 10 7.76142 10 5C10 2.23858 7.76142 0 5 0C2.23858 0 0 2.23858 0 5C0 7.76142 2.23858 10 5 10ZM5.5 2.5C5.5 2.22386 5.27614 2 5 2C4.72386 2 4.5 2.22386 4.5 2.5V5C4.5 5.13261 4.55268 5.25979 4.64645 5.35355L6.64645 7.35355C6.84171 7.54882 7.15829 7.54882 7.35355 7.35355C7.54882 7.15829 7.54882 6.84171 7.35355 6.64645L5.5 4.79289V2.5Z" fill="white"/>
</svg>
