<svg width="24" height="24" viewBox="0 0 24 24" fill="none" xmlns="http://www.w3.org/2000/svg">
<path d="M11.7191 4.21683C11.4877 3.98545 11.1739 3.85547 10.8466 3.85547C10.5194 3.85547 10.2055 3.98545 9.97411 4.21683L2.99311 11.1998C2.64918 11.5435 2.37633 11.9515 2.19018 12.4006C2.00402 12.8497 1.9082 13.3312 1.9082 13.8173C1.9082 14.3035 2.00402 14.7849 2.19018 15.234C2.37633 15.6832 2.64918 16.0912 2.99311 16.4348L6.48311 19.9258C6.82675 20.2699 7.23485 20.5429 7.68407 20.7291C8.13329 20.9154 8.61482 21.0112 9.10111 21.0112C9.58741 21.0112 10.0689 20.9154 10.5182 20.7291C10.9674 20.5429 11.3755 20.2699 11.7191 19.9258L17.3911 14.2538L20.0421 13.9588C20.1575 13.9459 20.2669 13.9007 20.3577 13.8283C20.4486 13.756 20.5172 13.6595 20.5556 13.5499C20.594 13.4403 20.6008 13.3222 20.575 13.2089C20.5493 13.0957 20.4921 12.992 20.4101 12.9098L11.7191 4.21683Z" stroke="white" stroke-width="1.5" stroke-linecap="round" stroke-linejoin="round"/>
<path d="M20.2417 17.2578L18.5877 20.5658C18.4141 20.9129 18.3543 21.3058 18.4165 21.6889C18.4788 22.0719 18.6601 22.4256 18.9347 22.6998V22.6998C19.1062 22.8718 19.31 23.0082 19.5344 23.1013C19.7588 23.1944 19.9993 23.2423 20.2422 23.2423C20.4851 23.2423 20.7256 23.1944 20.95 23.1013C21.1743 23.0082 21.3781 22.8718 21.5497 22.6998V22.6998C21.8241 22.4255 22.0052 22.0717 22.0673 21.6887C22.1294 21.3057 22.0693 20.9128 21.8957 20.5658L20.2417 17.2578Z" stroke="white" stroke-width="1.5" stroke-linecap="round" stroke-linejoin="round"/>
<path d="M4.84082 9.34881V3.75781C4.84082 2.96216 5.15689 2.1991 5.7195 1.63649C6.28211 1.07388 7.04517 0.757813 7.84082 0.757812V0.757812C8.23479 0.757812 8.62489 0.83541 8.98887 0.986174C9.35285 1.13694 9.68356 1.35792 9.96214 1.63649C10.2407 1.91507 10.4617 2.24579 10.6125 2.60976C10.7632 2.97374 10.8408 3.36385 10.8408 3.75781V12.0078" stroke="white" stroke-width="1.5" stroke-linecap="round" stroke-linejoin="round"/>
</svg>
