<svg width="24" height="24" viewBox="0 0 24 24" fill="none" xmlns="http://www.w3.org/2000/svg">
<rect width="24" height="24" fill="white" fill-opacity="0.01"/>
<path fill-rule="evenodd" clip-rule="evenodd" d="M5.94572 2.00076C6.25473 1.99164 6.70276 2.06153 7.03533 2.39006C7.58782 2.93583 8.55042 4.17595 9.90339 6.06062L10.2361 6.52412L9.87822 6.96847C9.7906 7.07725 9.68766 7.19224 9.57184 7.31396C9.48657 7.40358 9.41566 7.47537 9.27175 7.61942C8.91677 7.97476 8.61836 8.27333 8.37656 8.51511C7.90292 8.98871 7.78886 9.66136 8.1702 10.6507C8.55809 11.6571 9.41616 12.8343 10.6148 14.0341C11.8124 15.2329 12.9887 16.0914 13.9947 16.4796C14.9838 16.8613 15.6563 16.7473 16.1296 16.2738L17.0248 15.378C17.0248 15.378 17.0249 15.378 17.0249 15.3779C17.2954 15.1071 17.497 14.9136 17.6753 14.7702L18.1197 14.4125L18.583 14.7452C20.5284 16.1423 21.7274 17.0701 22.2489 17.6119C22.5613 17.9366 22.661 18.3559 22.65 18.705C22.6393 19.0488 22.5188 19.4336 22.2464 19.7215C21.9014 20.0861 21.4585 20.5291 20.9214 21.0472C20.2513 21.7147 19.2489 22.1592 18.1269 22.4055C16.9884 22.6554 15.6594 22.7168 14.2683 22.5615C11.4896 22.2514 8.37986 21.0666 5.97768 18.662C3.5749 16.2569 2.39367 13.1481 2.08454 10.373C1.92979 8.98377 1.99098 7.65737 2.23946 6.52197C2.48464 5.40167 2.92734 4.40082 3.59256 3.73405C4.17981 3.13763 4.36837 2.94917 4.93542 2.39043C5.22945 2.10072 5.64457 2.00964 5.94572 2.00076ZM5.94098 3.50545C5.41526 4.02362 5.22637 4.21267 4.65957 4.78833L4.65564 4.79233L4.65562 4.79231C4.26807 5.18008 3.91692 5.87331 3.70478 6.84266C3.49568 7.79808 3.43624 8.95835 3.57532 10.2069C3.85387 12.7075 4.91815 15.4791 7.03886 17.6019C9.15875 19.7239 11.931 20.7914 14.4347 21.0708C15.6848 21.2103 16.8472 21.1507 17.8052 20.9404C18.7769 20.7271 19.4738 20.3737 19.8657 19.9816L19.8754 19.9719L19.8755 19.972C20.3978 19.4683 20.8198 19.0461 21.1425 18.7056C21.1442 18.7009 21.146 18.6944 21.1476 18.6865C21.1494 18.6774 21.1505 18.6677 21.1508 18.6581C21.1511 18.6474 21.1504 18.639 21.1495 18.6329C20.7662 18.2419 19.8418 17.5088 18.2036 16.3211C18.1671 16.3572 18.128 16.3961 18.086 16.4382L18.0859 16.4383L17.1905 17.3341C16.1419 18.3834 14.7575 18.3817 13.4547 17.879C12.1687 17.3827 10.8181 16.36 9.5536 15.0942C8.28841 13.8278 7.2663 12.4764 6.77056 11.1902C6.26828 9.88703 6.26716 8.5031 7.31594 7.45441C7.55749 7.21288 7.8557 6.91451 8.21057 6.55928C8.25765 6.51215 8.29574 6.47393 8.32824 6.44115C7.20003 4.88627 6.44096 3.92625 6.0249 3.50114C6.01473 3.50017 6.00292 3.49972 5.98997 3.50011C5.97462 3.50056 5.95978 3.50212 5.94652 3.50442C5.94459 3.50476 5.94274 3.5051 5.94098 3.50545Z" fill="white" fill-opacity="0.5"/>
</svg>
