<svg width="20" height="20" viewBox="0 0 20 20" fill="none" xmlns="http://www.w3.org/2000/svg">
<g clip-path="url(#clip0)">
<path d="M11.9168 10.1495C11.8974 10.1301 11.882 10.1071 11.8715 10.0818C11.861 10.0565 11.8556 10.0294 11.8556 10.002C11.8556 9.97458 11.861 9.94745 11.8715 9.92214C11.882 9.89683 11.8974 9.87384 11.9168 9.85449L19.6359 2.13615C19.8703 1.90144 20.0019 1.58323 20.0016 1.25152C20.0014 0.919815 19.8694 0.601789 19.6347 0.367404C19.4 0.133019 19.0818 0.00147488 18.7501 0.0017093C18.4183 0.00194371 18.1003 0.133938 17.8659 0.368654L10.1476 8.08365C10.1283 8.10306 10.1053 8.11845 10.08 8.12895C10.0546 8.13945 10.0275 8.14486 10.0001 8.14486C9.9727 8.14486 9.94557 8.13945 9.92026 8.12895C9.89495 8.11845 9.87196 8.10306 9.8526 8.08365L2.13427 0.368654C2.01822 0.252544 1.88043 0.160429 1.72877 0.0975699C1.57712 0.0347105 1.41457 0.00233723 1.2504 0.00229853C0.918852 0.00222039 0.600851 0.133853 0.366356 0.368238C0.13186 0.602623 7.81749e-05 0.920561 3.47696e-08 1.25211C-7.81054e-05 1.58366 0.131554 1.90166 0.365939 2.13615L8.08344 9.85449C8.10284 9.87384 8.11823 9.89683 8.12873 9.92214C8.13924 9.94745 8.14464 9.97458 8.14464 10.002C8.14464 10.0294 8.13924 10.0565 8.12873 10.0818C8.11823 10.1071 8.10284 10.1301 8.08344 10.1495L0.365939 17.8687C0.249883 17.9848 0.157834 18.1226 0.0950459 18.2743C0.032258 18.426 -3.86563e-05 18.5885 3.47696e-08 18.7527C7.81749e-05 19.0842 0.13186 19.4022 0.366356 19.6366C0.482466 19.7526 0.620299 19.8447 0.771983 19.9075C0.923668 19.9703 1.08623 20.0025 1.2504 20.0025C1.58195 20.0024 1.89989 19.8706 2.13427 19.6362L9.8526 11.917C9.87196 11.8976 9.89495 11.8822 9.92026 11.8717C9.94557 11.8612 9.9727 11.8558 10.0001 11.8558C10.0275 11.8558 10.0546 11.8612 10.08 11.8717C10.1053 11.8822 10.1283 11.8976 10.1476 11.917L17.8659 19.6362C18.1003 19.8706 18.4183 20.0024 18.7498 20.0025C19.0814 20.0026 19.3994 19.871 19.6339 19.6366C19.8683 19.4022 20.0001 19.0842 20.0002 18.7527C20.0003 18.4211 19.8687 18.1031 19.6343 17.8687L11.9168 10.1495Z" fill="white"/>
</g>
<defs>
<clipPath id="clip0">
<rect width="20" height="20" fill="white"/>
</clipPath>
</defs>
</svg>
