<svg width="47" height="47" viewBox="0 0 47 47" fill="none" xmlns="http://www.w3.org/2000/svg">
<g filter="url(#filter0_d)">
<circle cx="23.5" cy="21.5" r="19.5" fill="white"/>
</g>
<path d="M17 13L26 25" stroke="#1F6E92" stroke-linecap="round"/>
<path d="M20 25L29 13" stroke="#1F6E92" stroke-linecap="round"/>
<path fill-rule="evenodd" clip-rule="evenodd" d="M25 28C25 29.6569 26.3431 31 28 31C29.6569 31 31 29.6569 31 28C31 26.3431 29.6569 25 28 25C26.3431 25 25 26.3431 25 28Z" stroke="#1F6E92"/>
<path fill-rule="evenodd" clip-rule="evenodd" d="M15 28C15 29.6569 16.3431 31 18 31C19.6569 31 21 29.6569 21 28C21 26.3431 19.6569 25 18 25C16.3431 25 15 26.3431 15 28Z" stroke="#1F6E92"/>
<defs>
<filter id="filter0_d" x="0" y="0" width="47" height="47" filterUnits="userSpaceOnUse" color-interpolation-filters="sRGB">
<feFlood flood-opacity="0" result="BackgroundImageFix"/>
<feColorMatrix in="SourceAlpha" type="matrix" values="0 0 0 0 0 0 0 0 0 0 0 0 0 0 0 0 0 0 127 0"/>
<feOffset dy="2"/>
<feGaussianBlur stdDeviation="2"/>
<feColorMatrix type="matrix" values="0 0 0 0 0 0 0 0 0 0 0 0 0 0 0 0 0 0 0.1 0"/>
<feBlend mode="normal" in2="BackgroundImageFix" result="effect1_dropShadow"/>
<feBlend mode="normal" in="SourceGraphic" in2="effect1_dropShadow" result="shape"/>
</filter>
</defs>
</svg>
