<svg width="30" height="30" viewBox="0 0 30 30" fill="none" xmlns="http://www.w3.org/2000/svg">
<circle cx="15" cy="15" r="15" fill="white" fill-opacity="0.2"/>
<path d="M22.6806 17.324C22.6507 17.2756 22.6089 17.2357 22.5591 17.2081C22.5094 17.1804 22.4535 17.1659 22.3966 17.166H8.14192C8.08507 17.166 8.02918 17.1806 7.97953 17.2082C7.92989 17.2359 7.88816 17.2759 7.8583 17.3242C7.82843 17.3726 7.81144 17.4278 7.80892 17.4846C7.8064 17.5414 7.81845 17.5979 7.84392 17.6487L8.41858 18.8C8.47391 18.9107 8.55897 19.0039 8.66423 19.069C8.7695 19.1341 8.89081 19.1686 9.01458 19.1687H9.24992C9.27588 19.1687 9.30148 19.1748 9.32467 19.1865C9.34786 19.1982 9.368 19.2152 9.38347 19.236C9.39895 19.2569 9.40934 19.281 9.41382 19.3066C9.41829 19.3322 9.41673 19.3585 9.40925 19.3834L8.63125 21.9747C8.60612 22.0586 8.59775 22.1466 8.60663 22.2337C8.61551 22.3208 8.64146 22.4053 8.683 22.4823C8.72454 22.5594 8.78086 22.6275 8.84873 22.6829C8.9166 22.7382 8.99471 22.7796 9.07858 22.8047C9.14059 22.8236 9.20507 22.8333 9.26992 22.8334C9.41342 22.8333 9.55309 22.787 9.66815 22.7012C9.78322 22.6155 9.86754 22.4949 9.90858 22.3573L10.8299 19.2847C10.8403 19.2504 10.8615 19.2203 10.8903 19.1989C10.9191 19.1776 10.9541 19.166 10.9899 19.166H19.5499C19.5857 19.1662 19.6204 19.1778 19.6491 19.1991C19.6778 19.2205 19.6989 19.2505 19.7092 19.2847L20.6313 22.3573C20.682 22.5267 20.7979 22.669 20.9536 22.7529C21.1093 22.8368 21.2919 22.8554 21.4612 22.8047C21.6306 22.7539 21.7729 22.638 21.8568 22.4823C21.9407 22.3267 21.9593 22.1441 21.9086 21.9747L21.1333 19.3807C21.1258 19.3558 21.1242 19.3294 21.1287 19.3038C21.1332 19.2782 21.1437 19.2539 21.1592 19.2331C21.1748 19.2122 21.195 19.1953 21.2183 19.1836C21.2415 19.172 21.2672 19.166 21.2933 19.166H21.5273C21.6511 19.1661 21.7726 19.1316 21.878 19.0665C21.9834 19.0014 22.0685 18.9082 22.1239 18.7973L22.6979 17.6487C22.723 17.5976 22.7346 17.5409 22.7315 17.4841C22.7285 17.4273 22.7109 17.3722 22.6806 17.324Z" fill="white"/>
<path d="M9.26953 15.166H10.4602C10.4886 15.166 10.5166 15.1732 10.5415 15.187C10.5664 15.2008 10.5873 15.2208 10.6023 15.245C10.6172 15.2692 10.6258 15.2968 10.627 15.3252C10.6283 15.3536 10.6223 15.3819 10.6095 15.4073L10.3042 16.0173C10.2789 16.0682 10.2669 16.1247 10.2696 16.1814C10.2722 16.2382 10.2893 16.2933 10.3192 16.3416C10.3491 16.3899 10.3909 16.4297 10.4405 16.4573C10.4902 16.4849 10.5461 16.4994 10.6029 16.4993H13.9362C13.9929 16.4993 14.0487 16.4847 14.0983 16.4571C14.1479 16.4294 14.1895 16.3896 14.2194 16.3413C14.2492 16.293 14.2662 16.2379 14.2688 16.1813C14.2714 16.1246 14.2595 16.0681 14.2342 16.0173L13.9295 15.4073C13.9168 15.382 13.9108 15.3538 13.912 15.3254C13.9133 15.297 13.9217 15.2694 13.9366 15.2453C13.9515 15.2211 13.9723 15.2011 13.9971 15.1873C14.0219 15.1734 14.0498 15.1661 14.0782 15.166H15.2695C15.8 15.166 16.3087 14.9553 16.6837 14.5802C17.0588 14.2052 17.2695 13.6964 17.2695 13.166V9.16602C17.2695 8.63558 17.0588 8.12687 16.6837 7.7518C16.3087 7.37673 15.8 7.16602 15.2695 7.16602H8.9362C8.49417 7.16602 8.07025 7.34161 7.75769 7.65417C7.44513 7.96673 7.26953 8.39065 7.26953 8.83268V13.166C7.26953 13.6964 7.48024 14.2052 7.85532 14.5802C8.23039 14.9553 8.7391 15.166 9.26953 15.166ZM8.60286 8.83268C8.60286 8.74428 8.63798 8.65949 8.7005 8.59698C8.76301 8.53447 8.84779 8.49935 8.9362 8.49935H15.2695C15.4463 8.49935 15.6159 8.56959 15.7409 8.69461C15.866 8.81964 15.9362 8.9892 15.9362 9.16602V12.166C15.9362 12.2544 15.9011 12.3392 15.8386 12.4017C15.7761 12.4642 15.6913 12.4993 15.6029 12.4993H8.9362C8.84779 12.4993 8.76301 12.4642 8.7005 12.4017C8.63798 12.3392 8.60286 12.2544 8.60286 12.166V8.83268Z" fill="white"/>
<path d="M18.9368 16.4993H21.6035C21.6919 16.4993 21.7767 16.4642 21.8392 16.4017C21.9017 16.3392 21.9368 16.2544 21.9368 16.166V13.8327C21.9366 13.7044 21.8985 13.5791 21.8273 13.4724C21.7562 13.3656 21.6551 13.2823 21.5368 13.2327C21.5071 13.2197 21.4819 13.1984 21.4641 13.1713C21.4463 13.1441 21.4369 13.1124 21.4368 13.08V12.166C21.4368 12.0334 21.3842 11.9062 21.2904 11.8125C21.1966 11.7187 21.0695 11.666 20.9368 11.666C20.8042 11.666 20.6771 11.7187 20.5833 11.8125C20.4895 11.9062 20.4368 12.0334 20.4368 12.166V13.0993C20.4368 13.1143 20.4317 13.1287 20.4224 13.1404C20.4131 13.1521 20.4001 13.1604 20.3856 13.1638C20.3711 13.1673 20.3558 13.1657 20.3423 13.1595C20.3287 13.1533 20.3177 13.1426 20.3108 13.1293L19.7175 11.9427C19.6881 11.8839 19.6475 11.8316 19.5979 11.7885C19.5483 11.7455 19.4906 11.7126 19.4283 11.6919C19.366 11.6711 19.3002 11.6628 19.2347 11.6675C19.1692 11.6721 19.1053 11.6896 19.0465 11.719C18.9878 11.7484 18.9354 11.789 18.8924 11.8387C18.8493 11.8883 18.8165 11.9459 18.7957 12.0082C18.7749 12.0705 18.7667 12.1363 18.7713 12.2018C18.776 12.2673 18.7935 12.3313 18.8228 12.39L19.1222 12.99C19.1322 13.0107 19.138 13.0331 19.139 13.0561C19.14 13.079 19.1363 13.1019 19.1282 13.1233C19.1197 13.1452 19.1067 13.1649 19.09 13.1814C19.0734 13.1978 19.0534 13.2105 19.0315 13.2187C18.9061 13.2653 18.798 13.349 18.7215 13.4587C18.645 13.5685 18.6038 13.6989 18.6035 13.8327V16.166C18.6035 16.2544 18.6386 16.3392 18.7011 16.4017C18.7637 16.4642 18.8484 16.4993 18.9368 16.4993Z" fill="white"/>
</svg>
