<svg width="20" height="20" viewBox="0 0 20 20" fill="none" xmlns="http://www.w3.org/2000/svg">
<path fill-rule="evenodd" clip-rule="evenodd" d="M9.99967 0.833008C4.93967 0.833008 0.833008 4.93967 0.833008 9.99967C0.833008 15.0597 4.93967 19.1663 9.99967 19.1663C15.0597 19.1663 19.1663 15.0597 19.1663 9.99967C19.1663 4.93967 15.0597 0.833008 9.99967 0.833008ZM9.99967 17.333C5.95717 17.333 2.66634 14.0422 2.66634 9.99967C2.66634 5.95717 5.95717 2.66634 9.99967 2.66634C14.0422 2.66634 17.333 5.95717 17.333 9.99967C17.333 14.0422 14.0422 17.333 9.99967 17.333ZM4.49967 11.833C4.49967 10.8205 5.32049 9.99967 6.33301 9.99967C7.34553 9.99967 8.16634 10.8205 8.16634 11.833C8.16634 12.8455 7.34553 13.6663 6.33301 13.6663C5.32049 13.6663 4.49967 12.8455 4.49967 11.833ZM9.99967 4.49967C8.98715 4.49967 8.16634 5.32049 8.16634 6.33301C8.16634 7.34553 8.98715 8.16634 9.99967 8.16634C11.0122 8.16634 11.833 7.34553 11.833 6.33301C11.833 5.32049 11.0122 4.49967 9.99967 4.49967ZM11.833 11.833C11.833 10.8205 12.6538 9.99967 13.6663 9.99967C14.6789 9.99967 15.4997 10.8205 15.4997 11.833C15.4997 12.8455 14.6789 13.6663 13.6663 13.6663C12.6538 13.6663 11.833 12.8455 11.833 11.833Z" fill="#95989B"/>
</svg>
