<svg width="30" height="30" viewBox="0 0 30 30" fill="none" xmlns="http://www.w3.org/2000/svg">
<path d="M24.2775 4.89007C24.1897 4.77632 24.0802 4.681 23.9555 4.60955C23.8308 4.53811 23.6933 4.49194 23.5507 4.47369C23.4081 4.45545 23.2634 4.46548 23.1247 4.50321C22.986 4.54094 22.8561 4.60563 22.7425 4.69359C22.6288 4.78155 22.5336 4.89105 22.4623 5.01583C22.3909 5.14061 22.3449 5.27822 22.3268 5.4208C22.3087 5.56338 22.3189 5.70813 22.3567 5.84678C22.3946 5.98542 22.4594 6.11525 22.5475 6.22882C23.8402 7.89284 24.5385 9.94172 24.5312 12.0488V17.9513C24.5286 20.4784 23.5236 22.9011 21.7367 24.688C19.9498 26.4749 17.527 27.4799 15 27.4826C14.7099 27.4826 14.4317 27.5978 14.2266 27.8029C14.0215 28.008 13.9063 28.2862 13.9062 28.5763C13.9063 28.8664 14.0215 29.1446 14.2266 29.3497C14.4317 29.5548 14.7099 29.6701 15 29.6701C18.107 29.6668 21.0858 28.4311 23.2828 26.2341C25.4797 24.0371 26.7154 21.0583 26.7188 17.9513V12.0488C26.7276 9.45686 25.8681 6.93661 24.2775 4.89007Z" fill="white"/>
<path d="M11.2938 26.7348C9.56544 26.0075 8.09052 24.7858 7.05418 23.223C6.01784 21.6603 5.46629 19.8262 5.46876 17.9511V15.5898C5.46876 15.2998 5.35353 15.0216 5.14841 14.8164C4.94329 14.6113 4.66509 14.4961 4.37501 14.4961C4.08493 14.4961 3.80673 14.6113 3.60161 14.8164C3.3965 15.0216 3.28126 15.2998 3.28126 15.5898V17.9511C3.27798 20.2564 3.95597 22.5113 5.23007 24.4326C6.50417 26.3539 8.31757 27.8558 10.4425 28.7498C10.7092 28.86 11.0087 28.8603 11.2756 28.7507C11.5425 28.6411 11.7553 28.4304 11.8676 28.1646C11.9799 27.8988 11.9826 27.5993 11.8751 27.3315C11.7676 27.0637 11.5587 26.8493 11.2938 26.7348Z" fill="white"/>
<path d="M4.33084 12.5513H4.39209C4.67155 12.5508 4.94023 12.4434 5.14311 12.2512C5.34599 12.059 5.46771 11.7966 5.48334 11.5175C5.5745 9.89202 6.08042 8.31693 6.95288 6.94236C7.82535 5.56779 9.03529 4.43955 10.4674 3.66516C11.8995 2.89076 13.5061 2.49602 15.134 2.51853C16.7619 2.54105 18.3569 2.98008 19.7671 3.79379C19.8915 3.86914 20.0297 3.91893 20.1735 3.94023C20.3174 3.96154 20.4641 3.95394 20.605 3.91788C20.7458 3.88181 20.8781 3.81801 20.9941 3.73021C21.11 3.64241 21.2073 3.53236 21.2802 3.40651C21.3531 3.28067 21.4001 3.14154 21.4186 2.99729C21.4371 2.85303 21.4266 2.70654 21.3878 2.56637C21.349 2.42621 21.2826 2.2952 21.1926 2.181C21.1025 2.0668 20.9906 1.97171 20.8633 1.90129C19.1294 0.899812 17.1678 0.359271 15.1657 0.331228C13.1635 0.303185 11.1876 0.788577 9.42629 1.7411C7.66501 2.69363 6.17715 4.08153 5.10461 5.77241C4.03208 7.4633 3.41065 9.40077 3.29959 11.4C3.29149 11.5434 3.31176 11.6869 3.35924 11.8224C3.40672 11.958 3.48047 12.0828 3.57627 12.1897C3.67207 12.2967 3.78804 12.3836 3.91752 12.4457C4.04701 12.5077 4.18746 12.5436 4.33084 12.5513Z" fill="white"/>
<path d="M23.1776 17.951V12.0485C23.1766 10.7561 22.8695 9.48218 22.2814 8.33123C21.6933 7.18028 20.841 6.18499 19.7942 5.42685C18.7474 4.66871 17.536 4.16929 16.259 3.96948C14.9821 3.76967 13.676 3.87515 12.4476 4.27729C12.3069 4.31821 12.1757 4.38701 12.0621 4.4796C11.9484 4.57219 11.8546 4.68669 11.786 4.81628C11.7175 4.94587 11.6757 5.08791 11.6632 5.23397C11.6506 5.38002 11.6676 5.52711 11.713 5.66649C11.7584 5.80587 11.8314 5.93469 11.9276 6.04531C12.0238 6.15592 12.1413 6.24607 12.273 6.31039C12.4047 6.37472 12.548 6.41191 12.6944 6.41975C12.8408 6.42759 12.9873 6.40592 13.1251 6.35604C14.025 6.06242 14.9815 5.98585 15.9166 6.13259C16.8517 6.27933 17.7388 6.64522 18.5054 7.20036C19.272 7.7555 19.8964 8.48414 20.3276 9.32674C20.7588 10.1693 20.9846 11.102 20.9864 12.0485V17.951C20.9864 18.2411 21.1016 18.5193 21.3067 18.7244C21.5118 18.9296 21.79 19.0448 22.0801 19.0448C22.3702 19.0448 22.6484 18.9296 22.8535 18.7244C23.0586 18.5193 23.1739 18.2411 23.1739 17.951H23.1776Z" fill="white"/>
<path d="M10.4498 6.51154C10.3428 6.41574 10.218 6.34197 10.0825 6.29445C9.94694 6.24694 9.80339 6.2266 9.66001 6.23461C9.51663 6.24262 9.37624 6.27882 9.24686 6.34114C9.11748 6.40346 9.00166 6.49067 8.90602 6.59779C7.56309 8.09581 6.82099 10.0372 6.82227 12.049V17.9515C6.82242 19.6074 7.32527 21.2243 8.26432 22.5882C9.20337 23.9521 10.5344 24.9988 12.0812 25.5898C13.6281 26.1808 15.3179 26.2882 16.9272 25.8979C18.5364 25.5076 19.9893 24.638 21.0935 23.404C21.1994 23.2992 21.2828 23.1738 21.3385 23.0355C21.3942 22.8973 21.4211 22.7491 21.4174 22.6001C21.4138 22.451 21.3798 22.3044 21.3174 22.169C21.255 22.0336 21.1656 21.9124 21.0547 21.8128C20.9437 21.7133 20.8136 21.6374 20.6724 21.59C20.5311 21.5425 20.3816 21.5244 20.233 21.5368C20.0845 21.5492 19.94 21.5918 19.8086 21.6621C19.6771 21.7323 19.5614 21.8287 19.4685 21.9453C18.6598 22.8496 17.5955 23.4871 16.4165 23.7733C15.2375 24.0595 13.9994 23.9809 12.866 23.548C11.7327 23.115 10.7575 22.3481 10.0696 21.3488C9.38162 20.3494 9.01336 19.1648 9.01352 17.9515V12.049C9.01293 10.5758 9.55594 9.15421 10.5385 8.05654C10.7314 7.83981 10.8305 7.55536 10.8138 7.26567C10.7972 6.97599 10.6662 6.70475 10.4498 6.51154Z" fill="white"/>
<path d="M12.5527 17.9511C12.5527 17.661 12.4375 17.3828 12.2324 17.1777C12.0273 16.9726 11.7491 16.8573 11.459 16.8573C11.1689 16.8573 10.8907 16.9726 10.6856 17.1777C10.4805 17.3828 10.3652 17.661 10.3652 17.9511C10.3652 19.1804 10.8536 20.3593 11.7228 21.2285C12.592 22.0977 13.771 22.5861 15.0002 22.5861C16.2295 22.5861 17.4084 22.0977 18.2777 21.2285C19.1469 20.3593 19.6352 19.1804 19.6352 17.9511V12.0486C19.6352 10.8193 19.1469 9.64036 18.2777 8.77113C17.4084 7.9019 16.2295 7.41357 15.0002 7.41357C13.771 7.41357 12.592 7.9019 11.7228 8.77113C10.8536 9.64036 10.3652 10.8193 10.3652 12.0486V13.8198C10.3652 14.1099 10.4805 14.3881 10.6856 14.5932C10.8907 14.7983 11.1689 14.9136 11.459 14.9136C11.7491 14.9136 12.0273 14.7983 12.2324 14.5932C12.4375 14.3881 12.5527 14.1099 12.5527 13.8198V12.0486C12.5527 11.3995 12.8106 10.7769 13.2696 10.3179C13.7286 9.85894 14.3511 9.60107 15.0002 9.60107C15.6494 9.60107 16.2719 9.85894 16.7309 10.3179C17.1899 10.7769 17.4477 11.3995 17.4477 12.0486V17.9511C17.4477 18.2725 17.3844 18.5907 17.2614 18.8877C17.1384 19.1846 16.9581 19.4544 16.7309 19.6817C16.5036 19.909 16.2338 20.0893 15.9369 20.2123C15.6399 20.3353 15.3216 20.3986 15.0002 20.3986C14.6788 20.3986 14.3606 20.3353 14.0636 20.2123C13.7667 20.0893 13.4969 19.909 13.2696 19.6817C13.0423 19.4544 12.862 19.1846 12.739 18.8877C12.616 18.5907 12.5527 18.2725 12.5527 17.9511Z" fill="white"/>
<path d="M16.0938 17.3611V13.8198C16.0938 13.5297 15.9785 13.2515 15.7734 13.0464C15.5683 12.8413 15.2901 12.7261 15 12.7261C14.7099 12.7261 14.4317 12.8413 14.2266 13.0464C14.0215 13.2515 13.9063 13.5297 13.9062 13.8198V17.3611C13.9062 17.6512 14.0215 17.9294 14.2266 18.1345C14.4317 18.3396 14.7099 18.4548 15 18.4548C15.2901 18.4548 15.5683 18.3396 15.7734 18.1345C15.9785 17.9294 16.0938 17.6512 16.0938 17.3611Z" fill="white"/>
</svg>
