<svg width="30" height="30" viewBox="0 0 30 30" fill="none" xmlns="http://www.w3.org/2000/svg">
<g clip-path="url(#clip0)">
<path d="M11.5322 24.375H5.28223C5.11647 24.375 4.95749 24.4408 4.84028 24.5581C4.72307 24.6753 4.65723 24.8342 4.65723 25C4.659 25.7414 4.8814 26.4656 5.29612 27.0802C5.71083 27.6948 6.29909 28.1721 6.98598 28.4512C7.03564 28.4718 7.0782 28.5064 7.10841 28.5508C7.13862 28.5952 7.15516 28.6475 7.15598 28.7013V28.75C7.15598 29.0815 7.28767 29.3995 7.52209 29.6339C7.75651 29.8683 8.07446 30 8.40598 30C8.7375 30 9.05544 29.8683 9.28986 29.6339C9.52428 29.3995 9.65598 29.0815 9.65598 28.75V28.7337C9.656 28.6722 9.67414 28.6119 9.70815 28.5606C9.74216 28.5092 9.79053 28.469 9.84723 28.445C10.5295 28.1632 11.1131 27.6856 11.5242 27.0725C11.9353 26.4594 12.1556 25.7382 12.1572 25C12.1572 24.8342 12.0914 24.6753 11.9742 24.5581C11.857 24.4408 11.698 24.375 11.5322 24.375Z" fill="white"/>
<path d="M21.2448 14.3862C22.4523 14.3862 23.4311 13.4074 23.4311 12.1999C23.4311 10.9925 22.4523 10.0137 21.2448 10.0137C20.0374 10.0137 19.0586 10.9925 19.0586 12.1999C19.0586 13.4074 20.0374 14.3862 21.2448 14.3862Z" fill="white"/>
<path d="M29.5236 2.94997C27.1863 1.04222 24.2619 0.000244141 21.2449 0.000244141C18.2279 0.000244141 15.3034 1.04222 12.9661 2.94997C12.8307 3.05026 12.7169 3.17691 12.6317 3.3223C12.5464 3.46769 12.4914 3.62881 12.4701 3.79599C12.4487 3.96317 12.4613 4.13294 12.5072 4.29511C12.5532 4.45727 12.6314 4.60847 12.7372 4.73963C12.8431 4.87078 12.9744 4.97917 13.1232 5.05829C13.272 5.1374 13.4353 5.18561 13.6032 5.2C13.7711 5.2144 13.9402 5.19468 14.1003 5.14205C14.2604 5.08941 14.4083 5.00495 14.5349 4.89372C16.4293 3.3471 18.7999 2.50233 21.2455 2.50233C23.6911 2.50233 26.0617 3.3471 27.9561 4.89372C28.0826 5.00626 28.2306 5.09195 28.3911 5.14559C28.5516 5.19922 28.7214 5.2197 28.8901 5.20576C29.0588 5.19182 29.2229 5.14377 29.3725 5.06451C29.5221 4.98525 29.654 4.87645 29.7602 4.74468C29.8665 4.61292 29.9449 4.46095 29.9906 4.29798C30.0364 4.13501 30.0486 3.96445 30.0265 3.79663C30.0044 3.62881 29.9484 3.46724 29.8619 3.3217C29.7755 3.17616 29.6604 3.0497 29.5236 2.94997Z" fill="white"/>
<path d="M16.0888 6.84006C15.8424 7.05171 15.6881 7.35096 15.6585 7.67443C15.6289 7.99789 15.7264 8.32017 15.9304 8.573C16.1343 8.82582 16.4286 8.98935 16.751 9.02893C17.0734 9.06851 17.3985 8.98104 17.6576 8.78506C18.6702 7.95796 19.9376 7.50618 21.2451 7.50618C22.5526 7.50618 23.8199 7.95796 24.8326 8.78506C24.9595 8.89414 25.1072 8.97661 25.2666 9.02756C25.4261 9.07852 25.5942 9.09692 25.7609 9.08167C25.9276 9.06643 26.0896 9.01785 26.2372 8.93882C26.3847 8.8598 26.5149 8.75193 26.62 8.62162C26.7251 8.49131 26.803 8.34122 26.849 8.18024C26.895 8.01927 26.9082 7.8507 26.8878 7.68454C26.8674 7.51838 26.8138 7.358 26.7302 7.21294C26.6467 7.06787 26.5348 6.94107 26.4013 6.84006C24.9454 5.65218 23.1241 5.00342 21.2451 5.00342C19.3661 5.00342 17.5447 5.65218 16.0888 6.84006Z" fill="white"/>
<path d="M8.41047 6.26758C6.18298 6.26758 4.04673 7.15244 2.47166 8.72752C0.896587 10.3026 0.0117208 12.4388 0.0117208 14.6663C0.0105259 16.3756 0.538605 18.0434 1.52342 19.4405C2.50823 20.8376 3.90146 21.8954 5.51172 22.4688C5.57784 22.4906 5.64712 22.5012 5.71672 22.5001H6.84922C7.01498 22.5001 7.17395 22.4342 7.29116 22.317C7.40837 22.1998 7.47422 22.0408 7.47422 21.8751V16.3038C7.47426 16.2524 7.46162 16.2018 7.43742 16.1564C7.41322 16.1111 7.3782 16.0724 7.33547 16.0438L5.08547 14.5438C4.98312 14.4756 4.89521 14.3879 4.82675 14.2857C4.7583 14.1836 4.71063 14.0689 4.68649 13.9483C4.66235 13.8277 4.6622 13.7035 4.68604 13.5829C4.70989 13.4622 4.75727 13.3474 4.82547 13.2451C4.89368 13.1427 4.98137 13.0548 5.08355 12.9864C5.18573 12.9179 5.3004 12.8702 5.421 12.8461C5.5416 12.822 5.66577 12.8218 5.78643 12.8456C5.90709 12.8695 6.02187 12.9169 6.12422 12.9851L8.24172 14.3963C8.29295 14.4306 8.3532 14.4489 8.41485 14.4489C8.47649 14.4489 8.53674 14.4306 8.58797 14.3963L10.7005 12.9826C10.8027 12.9091 10.9186 12.8569 11.0414 12.8292C11.1642 12.8015 11.2913 12.7988 11.4152 12.8213C11.539 12.8437 11.6571 12.8909 11.7623 12.96C11.8676 13.0291 11.9578 13.1187 12.0277 13.2234C12.0975 13.3281 12.1456 13.4458 12.169 13.5695C12.1924 13.6932 12.1906 13.8203 12.1638 13.9433C12.137 14.0663 12.0857 14.1827 12.013 14.2854C11.9403 14.3881 11.8476 14.4752 11.7405 14.5413L9.49047 16.0413C9.44759 16.0698 9.41239 16.1085 9.38797 16.1538C9.36355 16.1992 9.35068 16.2498 9.35047 16.3013V21.8788C9.35047 22.0446 9.41632 22.2036 9.53353 22.3208C9.65074 22.438 9.80971 22.5038 9.97547 22.5038H11.108C11.18 22.5043 11.2515 22.492 11.3192 22.4676C12.9282 21.893 14.32 20.8346 15.3036 19.4377C16.2872 18.0407 16.8144 16.3736 16.813 14.6651C16.8128 13.5619 16.5953 12.4696 16.1729 11.4505C15.7506 10.4315 15.1315 9.50556 14.3513 8.72575C13.571 7.94594 12.6447 7.32748 11.6254 6.9057C10.6061 6.48392 9.51362 6.26709 8.41047 6.26758Z" fill="white"/>
</g>
<defs>
<clipPath id="clip0">
<rect width="30" height="30" fill="white"/>
</clipPath>
</defs>
</svg>
