<svg width="30" height="30" viewBox="0 0 30 30" fill="none" xmlns="http://www.w3.org/2000/svg">
<g clip-path="url(#clip0)">
<path d="M24.2125 6.91261L22.3 7.42761C22.1819 7.4594 22.0757 7.52513 21.9946 7.61668C21.9135 7.70822 21.8611 7.82154 21.8438 7.94261C21.7372 8.68721 21.3657 9.36841 20.7974 9.86116C20.2291 10.3539 19.5022 10.6252 18.75 10.6251H6.875C6.70924 10.6251 6.55027 10.691 6.43306 10.8082C6.31585 10.9254 6.25 11.0843 6.25 11.2501V11.8751C6.25 12.2855 6.33083 12.6919 6.48788 13.071C6.64492 13.4501 6.87511 13.7946 7.16529 14.0848C7.75134 14.6709 8.5462 15.0001 9.375 15.0001H10.9375C11.1033 15.0001 11.2622 15.066 11.3794 15.1832C11.4967 15.3004 11.5625 15.4593 11.5625 15.6251V20.9851C11.5626 21.1338 11.5096 21.2777 11.4132 21.3909C11.3167 21.504 11.1831 21.5791 11.0363 21.6026L3.84875 22.7501C3.75953 22.7644 3.66828 22.7591 3.58128 22.7348C3.49428 22.7104 3.41361 22.6674 3.34481 22.6088C3.27602 22.5502 3.22074 22.4775 3.1828 22.3955C3.14485 22.3135 3.12513 22.2242 3.125 22.1339V20.9376C3.125 20.5232 2.96038 20.1258 2.66735 19.8328C2.37433 19.5397 1.9769 19.3751 1.5625 19.3751C1.1481 19.3751 0.750671 19.5397 0.457646 19.8328C0.16462 20.1258 0 20.5232 0 20.9376L0 28.4376C0 28.852 0.16462 29.2494 0.457646 29.5425C0.750671 29.8355 1.1481 30.0001 1.5625 30.0001C1.9769 30.0001 2.37433 29.8355 2.66735 29.5425C2.96038 29.2494 3.125 28.852 3.125 28.4376V26.5626C3.12492 26.4139 3.17786 26.27 3.27431 26.1569C3.37077 26.0437 3.50441 25.9686 3.65125 25.9451L12.4137 24.5489H12.44C13.0737 24.4183 13.6432 24.0738 14.0529 23.573C14.4626 23.0723 14.6875 22.4458 14.69 21.7989V15.6251C14.69 15.4593 14.7558 15.3004 14.8731 15.1832C14.9903 15.066 15.1492 15.0001 15.315 15.0001H23.75C24.0815 15.0001 24.3995 14.8684 24.6339 14.634C24.8683 14.3996 25 14.0816 25 13.7501V7.51636C25 7.42041 24.978 7.32573 24.9355 7.23968C24.8931 7.15362 24.8314 7.07849 24.7553 7.02011C24.6791 6.96173 24.5906 6.92166 24.4964 6.90302C24.4023 6.88438 24.3052 6.88766 24.2125 6.91261Z" fill="white"/>
<path d="M29.735 0.481259C29.6187 0.33084 29.4694 0.209193 29.2986 0.12574C29.1278 0.042287 28.9401 -0.000733617 28.75 9.46484e-06H8.75C7.75544 9.46484e-06 6.80161 0.395098 6.09835 1.09836C5.39509 1.80162 5 2.75545 5 3.75001V7.50001C5 7.83153 5.1317 8.14947 5.36612 8.38389C5.60054 8.61831 5.91848 8.75001 6.25 8.75001H18.75C19.0815 8.75001 19.3995 8.61831 19.6339 8.38389C19.8683 8.14947 20 7.83153 20 7.50001V6.58376C19.9999 6.44626 20.0452 6.31259 20.1288 6.20344C20.2125 6.09429 20.3297 6.01576 20.4625 5.98001L28.4787 3.82501C28.6759 3.77455 28.8569 3.67442 29.0044 3.53415C29.1519 3.39388 29.261 3.21816 29.3212 3.02376L29.9625 1.55376C30.0091 1.3695 30.0129 1.17699 29.9734 0.99106C29.934 0.805125 29.8524 0.630718 29.735 0.481259Z" fill="white"/>
<path d="M27.5 7.5C27.1685 7.5 26.8505 7.6317 26.6161 7.86612C26.3817 8.10054 26.25 8.41848 26.25 8.75V11.25C26.25 11.5815 26.3817 11.8995 26.6161 12.1339C26.8505 12.3683 27.1685 12.5 27.5 12.5C27.8315 12.5 28.1495 12.3683 28.3839 12.1339C28.6183 11.8995 28.75 11.5815 28.75 11.25V8.75C28.75 8.41848 28.6183 8.10054 28.3839 7.86612C28.1495 7.6317 27.8315 7.5 27.5 7.5Z" fill="white"/>
</g>
<defs>
<clipPath id="clip0">
<rect width="30" height="30" fill="white"/>
</clipPath>
</defs>
</svg>
