<svg width="30" height="30" viewBox="0 0 30 30" fill="none" xmlns="http://www.w3.org/2000/svg">
<g clip-path="url(#clip0)">
<path d="M26.9725 13.919C26.9424 13.8201 26.8882 13.7303 26.8149 13.6575C26.7415 13.5847 26.6513 13.5313 26.5522 13.5019C26.4531 13.4726 26.3483 13.4682 26.2471 13.4893C26.146 13.5104 26.0516 13.5562 25.9725 13.6227C25.235 14.2497 24.4164 14.7744 23.5388 15.1827C23.4927 15.2043 23.4421 15.2142 23.3914 15.2116C23.3406 15.2091 23.2913 15.1941 23.2476 15.1681C23.204 15.1421 23.1674 15.1058 23.141 15.0624C23.1146 15.0189 23.0992 14.9697 23.0963 14.919C22.8203 11.3037 21.3567 7.88113 18.9333 5.18418C16.51 2.48723 13.2628 0.667288 9.69751 0.00773802C9.58039 -0.0108638 9.4604 0.00423604 9.35155 0.0512745C9.24269 0.098313 9.14947 0.175349 9.08275 0.273387C9.01604 0.371424 8.9786 0.486418 8.97479 0.60494C8.97098 0.723463 9.00097 0.840622 9.06126 0.942738C10.0873 2.75153 10.6261 4.79571 10.625 6.87524C10.6255 8.29645 10.3588 9.70509 9.83876 11.0277C9.81754 11.0811 9.78209 11.1276 9.73628 11.1621C9.69047 11.1967 9.63605 11.2181 9.57895 11.2239C9.52185 11.2297 9.46425 11.2197 9.41242 11.195C9.36059 11.1704 9.31652 11.132 9.28501 11.084C8.71318 10.1986 8.27198 9.23532 7.97501 8.22399C7.94563 8.12463 7.89202 8.03413 7.81898 7.96063C7.74595 7.88714 7.65579 7.83296 7.55662 7.80296C7.45745 7.77296 7.35237 7.76808 7.25085 7.78877C7.14932 7.80946 7.05453 7.85507 6.97501 7.92149C5.57217 9.09214 4.44407 10.5571 3.67071 12.2125C2.89735 13.8679 2.49767 15.6731 2.50001 17.5002C2.50001 17.7252 2.50001 17.949 2.51251 18.1715C2.65529 21.4474 4.0796 24.5361 6.47842 26.7717C8.87724 29.0073 12.0585 30.2108 15.3363 30.1227C18.6142 30.0346 21.7262 28.6621 24.0015 26.301C26.2769 23.9398 27.5333 20.7791 27.5 17.5002C27.5016 16.287 27.3238 15.0802 26.9725 13.919ZM15 26.5627C14.3323 26.5598 13.6718 26.4237 13.0573 26.1625C12.4428 25.9013 11.8865 25.5202 11.4209 25.0415C10.9554 24.5629 10.5899 23.9962 10.346 23.3746C10.102 22.753 9.98439 22.089 10 21.4215C10.0229 19.5763 10.5855 17.7782 11.6184 16.2491C12.6513 14.7199 14.1093 13.5266 15.8125 12.8165C15.8762 12.7915 15.9462 12.7879 16.0121 12.8064C16.0779 12.8249 16.1359 12.8644 16.1772 12.9189C16.2186 12.9734 16.2409 13.0399 16.241 13.1083C16.241 13.1767 16.2188 13.2432 16.1775 13.2977C15.6422 14.0418 15.3071 14.9108 15.2042 15.8216C15.1014 16.7324 15.2342 17.6543 15.59 18.499C15.6112 18.5428 15.6422 18.5811 15.6805 18.611C15.7189 18.6409 15.7636 18.6616 15.8113 18.6715C15.859 18.6808 15.9082 18.6788 15.9551 18.6658C16.002 18.6528 16.0451 18.6291 16.0813 18.5965C16.5067 18.2532 16.8254 17.7957 17 17.2777C17.0123 17.2341 17.0342 17.1937 17.0641 17.1596C17.0939 17.1254 17.1309 17.0983 17.1725 17.0802C17.2138 17.0611 17.2588 17.0512 17.3044 17.0512C17.3499 17.0512 17.3949 17.0611 17.4363 17.0802C18.2609 17.4878 18.9453 18.1319 19.402 18.9304C19.8586 19.7288 20.0669 20.6453 20 21.5627C20.0133 22.223 19.893 22.8791 19.6464 23.4917C19.3999 24.1044 19.0321 24.6609 18.5651 25.1278C18.0981 25.5948 17.5416 25.9626 16.929 26.2092C16.3164 26.4557 15.6603 26.576 15 26.5627Z" fill="white"/>
</g>
<defs>
<clipPath id="clip0">
<rect width="30" height="30" fill="white"/>
</clipPath>
</defs>
</svg>
