<svg width="30" height="30" viewBox="0 0 30 30" fill="none" xmlns="http://www.w3.org/2000/svg">
<path d="M7.9263 5.14877C6.60549 5.85322 5.43017 6.80162 4.46255 7.94377C4.35585 8.06885 4.27483 8.21373 4.22412 8.37012C4.17341 8.52652 4.15401 8.69137 4.16701 8.85526C4.19326 9.18626 4.34993 9.49328 4.60255 9.70877C4.85517 9.92426 5.18304 10.0306 5.51404 10.0043C5.84505 9.97806 6.15206 9.82139 6.36755 9.56877C7.13197 8.66434 8.06032 7.91242 9.1038 7.35252C9.25424 7.27849 9.38825 7.17495 9.49785 7.04806C9.60745 6.92118 9.69041 6.77354 9.74178 6.61393C9.79315 6.45433 9.81188 6.28602 9.79687 6.11902C9.78186 5.95203 9.7334 5.78976 9.65438 5.64188C9.57537 5.494 9.46741 5.36352 9.33693 5.25822C9.20645 5.15292 9.05612 5.07494 8.89489 5.02894C8.73366 4.98293 8.56482 4.96983 8.39842 4.99041C8.23202 5.011 8.07146 5.06485 7.9263 5.14877Z" fill="white"/>
<path d="M8.3248 3.04727C8.6356 2.93123 8.88758 2.69649 9.0253 2.39467C9.16302 2.09286 9.17521 1.74869 9.05918 1.43789C8.94314 1.12709 8.7084 0.875113 8.40658 0.737391C8.10477 0.599669 7.7606 0.587483 7.4498 0.703516C4.69572 1.72953 2.28684 3.51149 0.499803 5.84477C0.394676 5.97408 0.316468 6.12311 0.26978 6.28309C0.223093 6.44307 0.208867 6.61077 0.22794 6.77633C0.247013 6.94189 0.299 7.10197 0.380843 7.24714C0.462686 7.39232 0.572732 7.51966 0.70451 7.62168C0.836288 7.7237 0.987136 7.79834 1.14818 7.84121C1.30923 7.88408 1.47722 7.89431 1.64228 7.87131C1.80734 7.8483 1.96613 7.79252 2.10932 7.70725C2.25251 7.62198 2.37719 7.50893 2.47605 7.37477C3.97888 5.40993 6.00637 3.90979 8.3248 3.04727Z" fill="white"/>
<path d="M16.6766 7.35252C17.7201 7.91021 18.6489 8.66002 19.4141 9.56252C19.6299 9.81136 19.9351 9.96499 20.2635 9.99002C20.5919 10.015 20.917 9.90945 21.1679 9.69618C21.4189 9.48291 21.5756 9.1792 21.6039 8.85106C21.6322 8.52292 21.5299 8.19687 21.3191 7.94377C20.3513 6.80131 19.1755 5.85286 17.8541 5.14877C17.7089 5.06485 17.5484 5.011 17.382 4.99041C17.2156 4.96983 17.0468 4.98293 16.8855 5.02894C16.7243 5.07494 16.574 5.15292 16.4435 5.25822C16.313 5.36352 16.205 5.494 16.126 5.64188C16.047 5.78976 15.9986 5.95203 15.9835 6.11902C15.9685 6.28602 15.9873 6.45433 16.0386 6.61393C16.09 6.77354 16.173 6.92118 16.2826 7.04806C16.3922 7.17495 16.5262 7.27849 16.6766 7.35252Z" fill="white"/>
<path d="M17.4563 3.04727C19.7746 3.91021 21.8019 5.41027 23.3051 7.37477C23.4056 7.50494 23.5307 7.61405 23.6733 7.69587C23.8159 7.77769 23.9733 7.83061 24.1364 7.85162C24.2994 7.87263 24.4651 7.86131 24.6238 7.81831C24.7825 7.77532 24.9312 7.70148 25.0613 7.60102C25.1915 7.50055 25.3006 7.37544 25.3824 7.23281C25.4643 7.09018 25.5172 6.93283 25.5382 6.76975C25.5592 6.60667 25.5479 6.44104 25.5049 6.28233C25.4619 6.12362 25.3881 5.97494 25.2876 5.84477C23.4972 3.5096 21.0837 1.72748 18.3251 0.703515C18.1712 0.646062 18.0075 0.619483 17.8433 0.625295C17.6792 0.631107 17.5178 0.669197 17.3683 0.73739C17.2189 0.805583 17.0843 0.902544 16.9723 1.02274C16.8604 1.14293 16.7732 1.284 16.7157 1.43789C16.5997 1.74869 16.6119 2.09286 16.7496 2.39467C16.8873 2.69649 17.1393 2.93123 17.4501 3.04727H17.4563Z" fill="white"/>
<path d="M27.2646 16.8765C28.6454 16.8765 29.7646 15.7572 29.7646 14.3765C29.7646 12.9958 28.6454 11.8765 27.2646 11.8765C25.8839 11.8765 24.7646 12.9958 24.7646 14.3765C24.7646 15.7572 25.8839 16.8765 27.2646 16.8765Z" fill="white"/>
<path d="M28.1248 17.6988C27.5638 17.8521 26.972 17.8521 26.411 17.6988C26.3646 17.6865 26.3161 17.6851 26.2691 17.6946C26.2221 17.704 26.1779 17.7241 26.1399 17.7533C26.1018 17.7826 26.071 17.8201 26.0498 17.8631C26.0285 17.906 26.0174 17.9533 26.0173 18.0013V22.4675C26.0173 23.6278 25.5563 24.7406 24.7359 25.5611C23.9154 26.3816 22.8026 26.8425 21.6423 26.8425H20.036C19.975 26.8433 19.9152 26.8261 19.8639 26.7931C19.8125 26.7601 19.7721 26.7128 19.7474 26.657C19.7228 26.6012 19.7151 26.5394 19.7253 26.4793C19.7355 26.4191 19.7631 26.3633 19.8048 26.3188C21.252 24.7311 22.1093 22.694 22.233 20.5493C22.3567 18.4045 21.7393 16.2825 20.4842 14.5389C19.2291 12.7953 17.4128 11.5362 15.3396 10.9728C13.2665 10.4094 11.0627 10.5759 9.09776 11.4443C7.1328 12.3128 5.52618 13.8304 4.54727 15.7428C3.56837 17.6551 3.27672 19.8459 3.72122 21.9477C4.16571 24.0495 5.31934 25.9346 6.98864 27.2869C8.65795 28.6392 10.7414 29.3764 12.8898 29.375L21.6398 29.3413C23.4625 29.3393 25.21 28.6143 26.4989 27.3254C27.7878 26.0366 28.5128 24.289 28.5148 22.4663V18C28.5148 17.9521 28.5039 17.9049 28.4828 17.8619C28.4617 17.8189 28.431 17.7813 28.393 17.7521C28.3551 17.7229 28.3109 17.7027 28.264 17.6933C28.217 17.6838 28.1686 17.6853 28.1223 17.6975L28.1248 17.6988ZM12.8898 22.5C12.3953 22.5 11.912 22.3534 11.5008 22.0787C11.0897 21.804 10.7693 21.4135 10.5801 20.9567C10.3908 20.4999 10.3413 19.9972 10.4378 19.5123C10.5343 19.0273 10.7724 18.5819 11.122 18.2323C11.4716 17.8826 11.9171 17.6445 12.402 17.5481C12.887 17.4516 13.3897 17.5011 13.8465 17.6903C14.3033 17.8795 14.6937 18.2 14.9684 18.6111C15.2431 19.0222 15.3898 19.5056 15.3898 20C15.3898 20.6631 15.1264 21.2989 14.6575 21.7678C14.1887 22.2366 13.5528 22.5 12.8898 22.5Z" fill="white"/>
</svg>
