<svg width="30" height="30" viewBox="0 0 30 30" fill="none" xmlns="http://www.w3.org/2000/svg">
<path d="M26.5191 17.6687C26.4825 17.6383 26.4534 17.6 26.4339 17.5567C26.4144 17.5134 26.405 17.4661 26.4066 17.4187C26.4065 17.3723 26.4168 17.3264 26.437 17.2846C26.4571 17.2429 26.4865 17.2062 26.5229 17.1774L27.6416 16.2824C27.8982 16.0746 28.0622 15.7737 28.0977 15.4455C28.1332 15.1172 28.0374 14.7882 27.8312 14.5304C27.625 14.2725 27.3251 14.1067 26.9971 14.0691C26.6691 14.0316 26.3395 14.1253 26.0804 14.3299L25.1741 15.0549C25.1305 15.0887 25.0787 15.1104 25.024 15.1176C24.9693 15.1248 24.9136 15.1173 24.8628 15.096C24.8119 15.0746 24.7676 15.0401 24.7345 14.996C24.7013 14.9519 24.6805 14.8997 24.6741 14.8449L24.5491 13.7449C24.4663 12.8092 24.0373 11.9381 23.346 11.3021C22.6547 10.666 21.751 10.3109 20.8116 10.3062H9.16162C8.22755 10.3094 7.32804 10.6598 6.63797 11.2894C5.94791 11.9189 5.51659 12.7825 5.42787 13.7124L5.30287 14.8237C5.29614 14.8783 5.27511 14.9301 5.24189 14.974C5.20868 15.0179 5.16447 15.0522 5.11373 15.0735C5.06299 15.0949 5.00752 15.1024 4.95294 15.0954C4.89835 15.0884 4.84659 15.0671 4.80287 15.0337L3.92787 14.3299C3.66872 14.1253 3.33916 14.0316 3.01113 14.0691C2.6831 14.1067 2.38325 14.2725 2.17706 14.5304C1.97086 14.7882 1.87506 15.1172 1.91058 15.4455C1.94609 15.7737 2.11004 16.0746 2.36662 16.2824L3.47162 17.1662C3.5079 17.1954 3.53716 17.2325 3.55726 17.2746C3.57736 17.3166 3.58779 17.3627 3.58779 17.4093C3.58779 17.4559 3.57736 17.5019 3.55726 17.544C3.53716 17.5861 3.5079 17.6231 3.47162 17.6524C3.07512 17.9731 2.75532 18.3784 2.53559 18.8387C2.31585 19.2989 2.20175 19.8024 2.20162 20.3124V23.1249C2.20261 23.7048 2.4334 24.2606 2.84342 24.6706C3.25344 25.0806 3.80927 25.3114 4.38912 25.3124H25.5829C26.1627 25.3114 26.7186 25.0806 27.1286 24.6706C27.5386 24.2606 27.7694 23.7048 27.7704 23.1249V20.3124C27.77 19.8067 27.6576 19.3073 27.4413 18.8502C27.2249 18.3931 26.91 17.9896 26.5191 17.6687ZM7.66912 16.2162L7.91912 13.9587C7.94716 13.6462 8.09087 13.3554 8.3221 13.1434C8.55333 12.9314 8.8554 12.8133 9.16912 12.8124H20.8179C21.1363 12.8157 21.4417 12.9389 21.6734 13.1573C21.905 13.3758 22.0459 13.6735 22.0679 13.9912L22.3179 16.2162C22.3228 16.2598 22.3185 16.3039 22.3051 16.3457C22.2918 16.3875 22.2698 16.4261 22.2405 16.4588C22.2112 16.4915 22.1754 16.5176 22.1353 16.5355C22.0952 16.5533 22.0518 16.5625 22.0079 16.5624H7.97912C7.93523 16.5625 7.89182 16.5533 7.85173 16.5355C7.81164 16.5176 7.77578 16.4915 7.74651 16.4588C7.71723 16.4261 7.6952 16.3875 7.68187 16.3457C7.66853 16.3039 7.66419 16.2598 7.66912 16.2162ZM6.88912 23.1249C6.51828 23.1249 6.15577 23.0149 5.84743 22.8089C5.53909 22.6029 5.29876 22.31 5.15685 21.9674C5.01493 21.6248 4.9778 21.2478 5.05015 20.8841C5.1225 20.5204 5.30107 20.1863 5.5633 19.9241C5.82552 19.6619 6.15961 19.4833 6.52333 19.4109C6.88704 19.3386 7.26404 19.3757 7.60665 19.5176C7.94927 19.6595 8.2421 19.8999 8.44813 20.2082C8.65416 20.5166 8.76412 20.8791 8.76412 21.2499C8.76412 21.7472 8.56658 22.2241 8.21495 22.5757C7.86332 22.9274 7.3864 23.1249 6.88912 23.1249ZM23.1391 23.1249C22.7683 23.1249 22.4058 23.0149 22.0974 22.8089C21.7891 22.6029 21.5488 22.31 21.4068 21.9674C21.2649 21.6248 21.2278 21.2478 21.3001 20.8841C21.3725 20.5204 21.5511 20.1863 21.8133 19.9241C22.0755 19.6619 22.4096 19.4833 22.7733 19.4109C23.137 19.3386 23.514 19.3757 23.8567 19.5176C24.1993 19.6595 24.4921 19.8999 24.6981 20.2082C24.9042 20.5166 25.0141 20.8791 25.0141 21.2499C25.0141 21.7472 24.8166 22.2241 24.4649 22.5757C24.1133 22.9274 23.6364 23.1249 23.1391 23.1249Z" fill="white"/>
<path d="M10.0137 26.5625H5.01367C4.93079 26.5625 4.85131 26.5954 4.7927 26.654C4.7341 26.7126 4.70117 26.7921 4.70117 26.875V27.1875C4.70117 27.9334 4.99749 28.6488 5.52493 29.1762C6.05238 29.7037 6.76775 30 7.51367 30C8.25959 30 8.97496 29.7037 9.50241 29.1762C10.0299 28.6488 10.3262 27.9334 10.3262 27.1875V26.875C10.3262 26.7921 10.2932 26.7126 10.2346 26.654C10.176 26.5954 10.0966 26.5625 10.0137 26.5625Z" fill="white"/>
<path d="M25.0137 26.5625H20.0137C19.9308 26.5625 19.8513 26.5954 19.7927 26.654C19.7341 26.7126 19.7012 26.7921 19.7012 26.875V27.1875C19.7012 27.9334 19.9975 28.6488 20.5249 29.1762C21.0524 29.7037 21.7678 30 22.5137 30C23.2596 30 23.975 29.7037 24.5024 29.1762C25.0299 28.6488 25.3262 27.9334 25.3262 27.1875V26.875C25.3262 26.7921 25.2932 26.7126 25.2346 26.654C25.176 26.5954 25.0966 26.5625 25.0137 26.5625Z" fill="white"/>
<path d="M7.96116 5.41015C9.82476 3.54834 12.3513 2.50254 14.9855 2.50254C17.6198 2.50254 20.1463 3.54834 22.0099 5.41015C22.2457 5.63785 22.5614 5.76384 22.8892 5.761C23.2169 5.75815 23.5304 5.62669 23.7622 5.39493C23.9939 5.16317 24.1254 4.84965 24.1283 4.5219C24.1311 4.19416 24.0051 3.87841 23.7774 3.64265C22.6229 2.48796 21.2523 1.57199 19.7438 0.947064C18.2352 0.322137 16.6184 0.000488281 14.9855 0.000488281C13.3527 0.000488281 11.7358 0.322137 10.2273 0.947064C8.7188 1.57199 7.34816 2.48796 6.19366 3.64265C5.96597 3.87841 5.83997 4.19416 5.84282 4.5219C5.84567 4.84965 5.97713 5.16317 6.20889 5.39493C6.44065 5.62669 6.75417 5.75815 7.08191 5.761C7.40966 5.76384 7.72541 5.63785 7.96116 5.41015Z" fill="white"/>
<path d="M9.35587 7.29756C9.23965 7.41365 9.14745 7.55151 9.08454 7.70326C9.02164 7.85501 8.98926 8.01766 8.98926 8.18193C8.98926 8.3462 9.02164 8.50886 9.08454 8.66061C9.14745 8.81236 9.23965 8.95022 9.35587 9.06631C9.59447 9.29308 9.91107 9.41952 10.2402 9.41952C10.5694 9.41952 10.886 9.29308 11.1246 9.06631C12.1511 8.04628 13.5394 7.47377 14.9865 7.47377C16.4336 7.47377 17.8219 8.04628 18.8484 9.06631C18.9645 9.18236 19.1024 9.27441 19.2541 9.33719C19.4058 9.39996 19.5684 9.43225 19.7326 9.43219C19.8967 9.43213 20.0593 9.39973 20.211 9.33685C20.3626 9.27396 20.5004 9.18182 20.6165 9.06568C20.7325 8.94955 20.8246 8.81169 20.8874 8.65998C20.9501 8.50827 20.9824 8.34568 20.9824 8.18149C20.9823 8.01731 20.9499 7.85474 20.887 7.70307C20.8241 7.55141 20.732 7.41361 20.6159 7.29756C19.9114 6.60177 19.0852 6.04123 18.1784 5.64381C16.7118 5.00176 15.0858 4.81613 13.5123 5.11109C11.9387 5.40605 10.4904 6.16794 9.35587 7.29756Z" fill="white"/>
</svg>
