<svg width="512" height="512" viewBox="0 0 512 512" fill="none" xmlns="http://www.w3.org/2000/svg">
<path d="M506.142 5.85801C498.331 -1.95299 485.668 -1.95299 477.858 5.85801L422.322 61.394C375.983 21.69 317.561 5.96046e-06 256 5.96046e-06C187.62 5.96046e-06 123.333 26.628 74.98 74.98C26.627 123.332 5.96046e-06 187.62 5.96046e-06 256C5.96046e-06 317.619 21.671 376 61.384 422.332L5.85801 477.858C-1.95299 485.669 -1.95299 498.332 5.85801 506.142C9.76301 510.047 14.881 512 20 512C25.119 512 30.237 510.047 34.142 506.142L506.142 34.142C513.953 26.332 513.953 13.668 506.142 5.85801V5.85801ZM40 256C40 136.897 136.897 40 256 40C306.888 40 355.231 57.567 393.937 89.779L89.778 393.938C57.56 355.238 40 306.934 40 256V256ZM487.428 146.43C503.733 180.813 512 217.677 512 256C512 306.531 497.001 355.674 468.626 398.116C464.77 403.884 458.435 407.002 451.981 407.002C448.16 407.002 444.298 405.91 440.883 403.627C431.7 397.488 429.233 385.067 435.372 375.885C459.335 340.044 472 298.589 472 256C472 223.652 465.031 192.554 451.286 163.57C446.553 153.59 450.807 141.662 460.787 136.929C470.769 132.194 482.695 136.45 487.428 146.43V146.43ZM395.206 447.639C400.929 457.086 397.909 469.385 388.461 475.107C348.617 499.243 302.813 512 256 512C218.511 512 182.377 504.075 148.601 488.445C138.577 483.806 134.211 471.919 138.85 461.895C143.489 451.871 155.376 447.507 165.4 452.144C193.873 465.319 224.355 472 256 472C295.505 472 334.143 461.244 367.738 440.894C377.184 435.17 389.483 438.19 395.206 447.639Z" fill="white"/>
</svg>
