<svg width="20" height="20" viewBox="0 0 20 20" fill="none" xmlns="http://www.w3.org/2000/svg">
<path d="M19.9117 0.46C19.8424 0.321755 19.736 0.205511 19.6044 0.124272C19.4729 0.0430339 19.3213 5.1889e-06 19.1667 0L0.833334 0C0.678574 0 0.526871 0.0430955 0.395224 0.124458C0.263578 0.20582 0.157189 0.322234 0.0879777 0.460655C0.018767 0.599077 -0.0105307 0.754037 0.00336763 0.908171C0.0172659 1.06231 0.0738111 1.20953 0.166667 1.33333L7.5 11.1858V18.3333C7.50327 18.7743 7.67992 19.1964 7.99177 19.5082C8.30363 19.8201 8.72565 19.9967 9.16667 20C9.52735 20.0004 9.87837 19.8834 10.1667 19.6667L11.8333 18.4167C12.04 18.2611 12.2078 18.0597 12.3234 17.8284C12.4391 17.597 12.4995 17.342 12.5 17.0833V11.1858L19.8333 1.33333C19.9263 1.20942 19.9828 1.06207 19.9967 0.907802C20.0105 0.753538 19.9811 0.598469 19.9117 0.46ZM4.51417 1.83333L7.79667 6.20833C7.85076 6.28046 7.88 6.36818 7.88 6.45833V7.5C7.88 7.58745 7.85248 7.67268 7.80135 7.74363C7.75022 7.81457 7.67806 7.86763 7.5951 7.89528C7.51213 7.92294 7.42257 7.92379 7.3391 7.89771C7.25562 7.87164 7.18247 7.81996 7.13 7.75L3.01667 2.33333C2.97024 2.27143 2.94197 2.19782 2.93502 2.12075C2.92807 2.04368 2.94272 1.9662 2.97732 1.89699C3.01193 1.82778 3.06512 1.76958 3.13095 1.7289C3.19677 1.68821 3.27262 1.66667 3.35 1.66667H4.18333C4.2476 1.66705 4.3109 1.6823 4.36829 1.71121C4.42568 1.74012 4.47561 1.78192 4.51417 1.83333Z" fill="white"/>
</svg>
