<svg width="8" height="10" viewBox="0 0 8 10" fill="none" xmlns="http://www.w3.org/2000/svg">
<path d="M7.831 4.62007C7.82136 4.58726 7.80403 4.55744 7.78055 4.53328C7.75708 4.50912 7.7282 4.49138 7.6965 4.48164C7.66479 4.47189 7.63125 4.47046 7.59888 4.47746C7.56651 4.48445 7.53632 4.49967 7.51101 4.52174C7.27501 4.72984 7.01306 4.90401 6.73223 5.03954C6.7175 5.04668 6.7013 5.04998 6.68506 5.04913C6.66882 5.04828 6.65303 5.04333 6.63906 5.03469C6.6251 5.02606 6.61338 5.014 6.60494 4.99959C6.59649 4.98517 6.59158 4.96883 6.59063 4.952C6.50234 3.75199 6.034 2.61595 5.25853 1.72076C4.48307 0.825576 3.44401 0.22149 2.30314 0.00256845C2.26567 -0.00360599 2.22727 0.00140605 2.19244 0.0170193C2.15761 0.0326326 2.12777 0.0582028 2.10643 0.090744C2.08508 0.123285 2.0731 0.161455 2.07188 0.200795C2.07066 0.240136 2.08026 0.279024 2.09955 0.312919C2.42786 0.913303 2.60028 1.59182 2.59994 2.28207C2.6001 2.75381 2.51475 3.22137 2.34834 3.66039C2.34155 3.67809 2.33021 3.69352 2.31555 3.705C2.30089 3.71648 2.28348 3.72357 2.26521 3.72549C2.24693 3.72742 2.2285 3.72411 2.21192 3.71592C2.19533 3.70773 2.18123 3.69498 2.17115 3.67906C1.98817 3.38516 1.84698 3.06544 1.75196 2.72975C1.74256 2.69677 1.7254 2.66673 1.70203 2.64234C1.67866 2.61795 1.64981 2.59996 1.61808 2.59C1.58634 2.58004 1.55272 2.57843 1.52023 2.58529C1.48774 2.59216 1.45741 2.6073 1.43197 2.62935C0.983069 3.01791 0.622086 3.50417 0.374617 4.05364C0.127148 4.6031 -0.000746323 5.20231 3.27611e-06 5.80878C3.27611e-06 5.88346 3.27221e-06 5.95773 0.00400317 6.03159C0.0496906 7.11896 0.505458 8.14416 1.27306 8.88621C2.04066 9.62826 3.05863 10.0277 4.10752 9.9985C5.15641 9.96927 6.15223 9.51369 6.88032 8.72997C7.6084 7.94624 8.01045 6.89713 7.99979 5.80878C8.00029 5.40608 7.94341 5.00552 7.831 4.62007ZM3.9999 8.81686C3.78623 8.81587 3.5749 8.77071 3.37825 8.68401C3.1816 8.59732 3.00359 8.47083 2.85462 8.31194C2.70565 8.15305 2.58872 7.96494 2.51065 7.75863C2.43258 7.55231 2.39494 7.33192 2.39994 7.11034C2.40726 6.49788 2.58729 5.90105 2.91781 5.39348C3.24833 4.88592 3.71488 4.48984 4.25989 4.25412C4.28026 4.24582 4.30268 4.24465 4.32375 4.25079C4.34482 4.25692 4.36338 4.27003 4.3766 4.28812C4.38982 4.3062 4.39699 4.32828 4.39701 4.35097C4.39702 4.37367 4.38989 4.39576 4.37669 4.41386C4.20541 4.66082 4.09817 4.94929 4.06525 5.2516C4.03233 5.55391 4.07484 5.85992 4.18869 6.14029C4.19548 6.15482 4.20539 6.16754 4.21767 6.17747C4.22994 6.1874 4.24425 6.19427 4.25949 6.19755C4.27477 6.20063 4.29052 6.19998 4.30552 6.19566C4.32051 6.19134 4.33433 6.18347 4.34589 6.17265C4.48201 6.0587 4.58399 5.90686 4.63988 5.73493C4.64383 5.72044 4.65083 5.70705 4.66037 5.69571C4.66992 5.68437 4.68177 5.67538 4.69508 5.66937C4.7083 5.66302 4.7227 5.65973 4.73728 5.65973C4.75185 5.65973 4.76625 5.66302 4.77948 5.66937C5.04336 5.80464 5.26236 6.01845 5.40849 6.28348C5.55462 6.54851 5.62125 6.85272 5.59986 7.15723C5.6041 7.37638 5.56562 7.59417 5.48672 7.79751C5.40781 8.00086 5.29012 8.18557 5.14069 8.34057C4.99127 8.49557 4.8132 8.61765 4.61716 8.6995C4.42113 8.78134 4.21117 8.82126 3.9999 8.81686Z" fill="white"/>
</svg>
