<svg width="48" height="48" viewBox="0 0 48 48" fill="none" xmlns="http://www.w3.org/2000/svg">
<path d="M30.3649 11.426L18.0601 11.426C16.3641 11.4261 14.9841 12.806 14.984 14.5021L14.984 17.3618C14.984 18.3502 15.2708 19.3446 15.845 20.2058L19.0855 25.0665L19.0856 38.0276C19.0856 39.7238 20.4656 41.1037 22.1617 41.1037L26.2633 41.1037C27.9594 41.1038 29.3394 39.724 29.3395 38.0276L29.3395 25.0666L32.5799 20.2058C33.1407 19.3646 33.441 18.375 33.4409 17.3619L33.441 14.5022C33.441 12.802 32.0653 11.4259 30.3649 11.426ZM27.2887 38.0276C27.2887 38.593 26.8287 39.053 26.2633 39.053L22.1617 39.053C21.5963 39.0529 21.1363 38.5929 21.1363 38.0276L21.1363 37.0021L27.2887 37.0021L27.2887 38.0276ZM27.2887 34.9514L21.1364 34.9514L21.1364 30.9084L23.1871 30.9084C23.7534 30.9085 24.2126 30.4494 24.2125 29.8831C24.2125 29.3168 23.7535 28.8577 23.1871 28.8577L21.1364 28.8577L21.1364 25.7815H27.2887L27.2887 34.9514ZM27.7653 23.7306L20.6597 23.7306L17.9253 19.6291L30.4996 19.6291L27.7653 23.7306ZM31.3903 14.5021C31.3902 17.6164 31.3932 17.4249 31.3825 17.5784L17.0425 17.5783C17.0316 17.4226 17.0348 17.6082 17.0349 14.5022C17.0349 13.9368 17.4948 13.4768 18.0602 13.4768L30.365 13.4767C30.9316 13.4768 31.3902 13.9352 31.3903 14.5021Z" fill="white"/>
</svg>
