<svg width="34" height="39" viewBox="0 0 34 39" fill="none" xmlns="http://www.w3.org/2000/svg">
<path d="M12.1465 16.7184V22.286L17.0001 25.0688L21.8537 22.286V16.7184L17.0001 13.9336L12.1465 16.7184Z" fill="white"/>
<path d="M17 0L0 9.75V29.25L17 39L34 29.25V9.75L17 0ZM19.4475 4.76402C19.844 4.76077 20.2285 4.89904 20.5311 5.15368C20.8336 5.40833 21.0341 5.76241 21.096 6.1515C21.1579 6.54059 21.0771 6.93882 20.8683 7.27373C20.6596 7.60864 20.3367 7.85797 19.9585 7.97634V9.32662L24.7542 12.0128L25.6914 11.4826C25.612 11.1032 25.6699 10.7082 25.8551 10.3672C26.0403 10.0262 26.3407 9.76112 26.7034 9.6187C27.0661 9.47628 27.4678 9.46569 27.8377 9.58879C28.2075 9.71189 28.5216 9.96077 28.7248 10.2915C28.9279 10.6223 29.0069 11.0137 28.9478 11.3967C28.8888 11.7797 28.6955 12.1296 28.4021 12.3848C28.1086 12.6401 27.7338 12.7841 27.3439 12.7917C26.9539 12.7992 26.5739 12.6696 26.2707 12.4259L24.7645 13.2603L18.9054 9.95758V7.96812C18.5309 7.84428 18.2133 7.59154 18.0098 7.25552C17.8064 6.91949 17.7305 6.52229 17.7959 6.13559C17.8614 5.74889 18.0638 5.39815 18.3666 5.14665C18.6694 4.89514 19.0528 4.75944 19.4475 4.76402ZM5.53012 10.1693C5.75428 9.86699 6.07582 9.65003 6.4413 9.55444C6.80677 9.45886 7.19418 9.49041 7.53911 9.64384C7.88404 9.79728 8.16572 10.0634 8.33733 10.3979C8.50893 10.7324 8.56013 11.1151 8.48242 11.4826L9.42169 12.0128L14.2174 9.32662V7.97634C13.8435 7.85416 13.5257 7.60364 13.321 7.26973C13.1163 6.93581 13.038 6.54036 13.1003 6.15432C13.1626 5.76828 13.3613 5.41692 13.6608 5.16328C13.9603 4.90964 14.341 4.77032 14.7346 4.77032C15.1281 4.77032 15.5088 4.90964 15.8083 5.16328C16.1078 5.41692 16.3065 5.76828 16.3688 6.15432C16.4311 6.54036 16.3529 6.93581 16.1482 7.26973C15.9434 7.60364 15.6256 7.85416 15.2518 7.97634V9.9658L9.41134 13.2603L7.9052 12.4259C7.59258 12.6846 7.19499 12.8198 6.78836 12.8058C6.38174 12.7917 5.99457 12.6294 5.70079 12.3498C5.40701 12.0701 5.22721 11.6928 5.19573 11.2898C5.16425 10.8868 5.28329 10.4865 5.53012 10.1652V10.1693ZM3.02884 24.7244C2.87663 24.3801 2.84783 23.9944 2.94722 23.6315C3.04661 23.2687 3.2682 22.9507 3.57505 22.7305C3.88189 22.5103 4.25544 22.4012 4.63342 22.4215C5.0114 22.4417 5.37097 22.5901 5.65218 22.8418L6.58318 22.2992L6.63904 16.8303L5.46392 16.1541C5.172 16.4157 4.7959 16.5655 4.40293 16.5767C4.00997 16.5879 3.62582 16.4598 3.31925 16.2154C3.01268 15.9709 2.80372 15.626 2.72978 15.2425C2.65583 14.8589 2.72174 14.4617 2.91569 14.122C3.10964 13.7823 3.41898 13.5223 3.78831 13.3885C4.15765 13.2547 4.56286 13.2559 4.9314 13.3918C5.29995 13.5277 5.60776 13.7896 5.79972 14.1304C5.99168 14.4712 6.05526 14.8687 5.97907 15.2518L7.71279 16.2466L7.66521 22.9322L6.18389 23.8119C6.24928 24.2083 6.1663 24.6148 5.95063 24.9546C5.73495 25.2944 5.4015 25.5441 5.01323 25.6564C4.62496 25.7687 4.20874 25.7359 3.84315 25.5642C3.47755 25.3925 3.18789 25.0937 3.02884 24.7244ZM14.7284 34.2586C14.3318 34.2618 13.9473 34.1236 13.6448 33.8689C13.3422 33.6143 13.1418 33.2602 13.0799 32.8711C13.018 32.482 13.0988 32.0838 13.3075 31.7489C13.5163 31.414 13.8391 31.1646 14.2174 31.0463V29.698L9.42376 27.0098L8.48242 27.5401C8.56183 27.9194 8.50384 28.3144 8.31868 28.6554C8.13352 28.9964 7.83308 29.2615 7.47036 29.4039C7.10764 29.5463 6.70594 29.5569 6.33613 29.4338C5.96631 29.3107 5.65214 29.0618 5.44903 28.7311C5.24591 28.4003 5.16691 28.0089 5.22595 27.6259C5.28499 27.2429 5.47829 26.893 5.77174 26.6378C6.06519 26.3825 6.43994 26.2385 6.82989 26.231C7.21984 26.2234 7.59994 26.353 7.90313 26.5967L9.40927 25.7746L15.2601 29.0774V31.0668C15.6323 31.1916 15.9477 31.4439 16.1499 31.7785C16.3521 32.1131 16.4279 32.5083 16.3637 32.8933C16.2995 33.2783 16.0996 33.6281 15.7996 33.8801C15.4996 34.1322 15.1192 34.2699 14.7263 34.2689L14.7284 34.2586ZM9.72374 23.6762V15.3238L17 11.1496L24.2804 15.3238V23.6762L17 27.8524L9.72374 23.6762ZM28.6416 28.8554C28.4179 29.1594 28.0959 29.3778 27.7295 29.4743C27.3631 29.5708 26.9745 29.5394 26.6286 29.3854C26.2827 29.2314 26.0005 28.9641 25.8292 28.6282C25.6578 28.2923 25.6077 27.9082 25.6872 27.5401L24.75 27.0098L19.9502 29.698V31.0463C20.3244 31.1659 20.6436 31.4138 20.8505 31.7458C21.0575 32.0778 21.1387 32.4722 21.0797 32.8582C21.0207 33.2443 20.8253 33.5969 20.5285 33.853C20.2317 34.109 19.8528 34.2517 19.4598 34.2556C19.0667 34.2594 18.6851 34.1242 18.3832 33.8741C18.0813 33.6239 17.879 33.2752 17.8123 32.8904C17.7456 32.5055 17.819 32.1097 18.0193 31.7737C18.2195 31.4377 18.5337 31.1835 18.9054 31.0565V29.0671L24.7562 25.7643L26.2624 26.5864C26.575 26.3277 26.9726 26.1925 27.3792 26.2065C27.7858 26.2206 28.173 26.3829 28.4668 26.6626C28.7606 26.9422 28.9404 27.3195 28.9719 27.7225C29.0033 28.1255 28.8843 28.5259 28.6375 28.8472L28.6416 28.8554ZM27.5161 22.2992L28.4492 22.8418C28.7404 22.5841 29.1139 22.4368 29.5037 22.426C29.8936 22.4152 30.2748 22.5414 30.58 22.7825C30.8853 23.0236 31.0951 23.364 31.1724 23.7438C31.2496 24.1235 31.1894 24.5182 31.0024 24.8581C30.8153 25.1981 30.5134 25.4615 30.1499 25.6019C29.7865 25.7423 29.3847 25.7507 29.0156 25.6256C28.6465 25.5005 28.3337 25.25 28.1325 24.9181C27.9312 24.5863 27.8543 24.1945 27.9154 23.8119L26.4362 22.9322L26.3865 16.2466L28.1368 15.2518C28.0611 14.8686 28.1253 14.4711 28.3178 14.1305C28.5103 13.7899 28.8185 13.5286 29.1873 13.3932C29.5561 13.2578 29.9614 13.2573 30.3305 13.3917C30.6997 13.5261 31.0086 13.7867 31.202 14.1268C31.3954 14.4668 31.4606 14.8642 31.386 15.2476C31.3113 15.6311 31.1017 15.9757 30.7946 16.2196C30.4876 16.4635 30.1031 16.5909 29.7101 16.5789C29.3171 16.5669 28.9413 16.4163 28.6499 16.1541L27.4747 16.8303L27.5161 22.2992Z" fill="white"/>
</svg>
