<svg width="22" height="22" viewBox="0 0 22 22" fill="none" xmlns="http://www.w3.org/2000/svg">
<g opacity="0.5">
<g clip-path="url(#clip0)">
<path d="M0.6875 10.7707H3.89583C4.16734 10.7708 4.4328 10.6905 4.65874 10.5399C4.88467 10.3893 5.06098 10.1752 5.16542 9.92463L7.54875 4.31921C7.60318 4.19114 7.69521 4.0826 7.81265 4.00794C7.93009 3.93328 8.06743 3.89602 8.2065 3.90109C8.34557 3.90616 8.47983 3.95331 8.59153 4.03631C8.70323 4.11932 8.78711 4.23427 8.83208 4.36596L13.1716 17.8639C13.2166 17.9956 13.3004 18.1105 13.4121 18.1935C13.5238 18.2765 13.6581 18.3237 13.7972 18.3287C13.9362 18.3338 14.0736 18.2966 14.191 18.2219C14.3085 18.1472 14.4005 18.0387 14.4549 17.9106L16.8337 11.6168C16.9381 11.3662 17.1144 11.1521 17.3403 11.0015C17.5663 10.8509 17.8317 10.7706 18.1032 10.7707H21.3116" stroke="#2B3137" stroke-width="1.5" stroke-linecap="round" stroke-linejoin="round"/>
</g>
</g>
<defs>
<clipPath id="clip0">
<rect width="22" height="22" fill="white"/>
</clipPath>
</defs>
</svg>
