<svg width="24" height="24" viewBox="0 0 24 24" fill="none" xmlns="http://www.w3.org/2000/svg">
<g clip-path="url(#clip0)">
<path d="M6.75 15.748H2.25C1.42157 15.748 0.75 16.4196 0.75 17.248V21.748C0.75 22.5765 1.42157 23.248 2.25 23.248H6.75C7.57843 23.248 8.25 22.5765 8.25 21.748V17.248C8.25 16.4196 7.57843 15.748 6.75 15.748Z" stroke="white" stroke-width="1.5" stroke-linecap="round" stroke-linejoin="round"/>
<path d="M14.25 0.748047H9.75C8.92157 0.748047 8.25 1.41962 8.25 2.24805V6.74805C8.25 7.57647 8.92157 8.24805 9.75 8.24805H14.25C15.0784 8.24805 15.75 7.57647 15.75 6.74805V2.24805C15.75 1.41962 15.0784 0.748047 14.25 0.748047Z" stroke="white" stroke-width="1.5" stroke-linecap="round" stroke-linejoin="round"/>
<path d="M21.75 15.748H17.25C16.4216 15.748 15.75 16.4196 15.75 17.248V21.748C15.75 22.5765 16.4216 23.248 17.25 23.248H21.75C22.5784 23.248 23.25 22.5765 23.25 21.748V17.248C23.25 16.4196 22.5784 15.748 21.75 15.748Z" stroke="white" stroke-width="1.5" stroke-linecap="round" stroke-linejoin="round"/>
<path d="M4.5 15.748V14.248C4.5 13.8502 4.65804 13.4687 4.93934 13.1874C5.22064 12.9061 5.60218 12.748 6 12.748H18C18.3978 12.748 18.7794 12.9061 19.0607 13.1874C19.342 13.4687 19.5 13.8502 19.5 14.248V15.748" stroke="white" stroke-width="1.5" stroke-linecap="round" stroke-linejoin="round"/>
<path d="M12 8.24805V12.748" stroke="white" stroke-width="1.5" stroke-linecap="round" stroke-linejoin="round"/>
</g>
<defs>
<clipPath id="clip0">
<rect width="24" height="24" fill="white"/>
</clipPath>
</defs>
</svg>
