<svg width="30" height="30" viewBox="0 0 30 30" fill="none" xmlns="http://www.w3.org/2000/svg">
<path d="M10.3363 24.375H6.5625C6.06522 24.375 5.58831 24.1775 5.23667 23.8258C4.88504 23.4742 4.6875 22.9973 4.6875 22.5V13.125" stroke="white" stroke-width="1.5" stroke-linecap="round" stroke-linejoin="round"/>
<path d="M0.9375 11.25L11.9138 1.96248C12.2523 1.67596 12.6815 1.51874 13.125 1.51874C13.5685 1.51874 13.9977 1.67596 14.3362 1.96248L23.4612 9.68373" stroke="white" stroke-width="1.5" stroke-linecap="round" stroke-linejoin="round"/>
<path d="M19.6875 1.875H23.4375V5.625" stroke="white" stroke-width="1.5" stroke-linecap="round" stroke-linejoin="round"/>
<path d="M21.5625 28.125C25.7046 28.125 29.0625 24.7671 29.0625 20.625C29.0625 16.4829 25.7046 13.125 21.5625 13.125C17.4204 13.125 14.0625 16.4829 14.0625 20.625C14.0625 24.7671 17.4204 28.125 21.5625 28.125Z" stroke="white" stroke-width="1.5" stroke-linecap="round" stroke-linejoin="round"/>
<path fill-rule="evenodd" clip-rule="evenodd" d="M26.0625 20.6259C26.0625 20.2116 25.7267 19.8759 25.3125 19.8759H19.6232L21.1553 18.3437C21.4482 18.0508 21.4482 17.5759 21.1553 17.283C20.8624 16.9901 20.3876 16.9901 20.0947 17.283L17.2822 20.0955C17.1357 20.242 17.0625 20.4339 17.0625 20.6259C17.0625 20.7273 17.0826 20.824 17.1191 20.9122M17.2822 21.1562L20.0947 23.9687C20.3876 24.2616 20.8624 24.2616 21.1553 23.9687C21.4482 23.6758 21.4482 23.2009 21.1553 22.908L19.6232 21.3759H25.3125C25.7267 21.3759 26.0625 21.0401 26.0625 20.6259M17.2822 21.1562C17.2103 21.0843 17.156 21.0014 17.1194 20.9129L17.2822 21.1562Z" fill="white"/>
</svg>
