<svg width="30" height="30" viewBox="0 0 30 30" fill="none" xmlns="http://www.w3.org/2000/svg">
<path d="M10.3363 24.375H6.5625C6.06522 24.375 5.58831 24.1775 5.23667 23.8258C4.88504 23.4742 4.6875 22.9973 4.6875 22.5V13.125" stroke="white" stroke-width="1.5" stroke-linecap="round" stroke-linejoin="round"/>
<path d="M0.9375 11.25L11.9138 1.96248C12.2523 1.67596 12.6815 1.51874 13.125 1.51874C13.5685 1.51874 13.9977 1.67596 14.3362 1.96248L23.4612 9.68373" stroke="white" stroke-width="1.5" stroke-linecap="round" stroke-linejoin="round"/>
<path d="M19.6875 1.875H23.4375V5.625" stroke="white" stroke-width="1.5" stroke-linecap="round" stroke-linejoin="round"/>
<path d="M21.5625 28.125C25.7046 28.125 29.0625 24.7671 29.0625 20.625C29.0625 16.4829 25.7046 13.125 21.5625 13.125C17.4204 13.125 14.0625 16.4829 14.0625 20.625C14.0625 24.7671 17.4204 28.125 21.5625 28.125Z" stroke="white" stroke-width="1.5" stroke-linecap="round" stroke-linejoin="round"/>
<path fill-rule="evenodd" clip-rule="evenodd" d="M17.0625 20.6259C17.0625 20.2116 17.3983 19.8759 17.8125 19.8759H23.5018L21.9697 18.3437C21.6768 18.0508 21.6768 17.5759 21.9697 17.283C22.2626 16.9901 22.7374 16.9901 23.0303 17.283L25.8428 20.0955C25.9893 20.242 26.0625 20.4339 26.0625 20.6259C26.0625 20.7273 26.0424 20.824 26.0059 20.9122M25.8428 21.1562L23.0303 23.9687C22.7374 24.2616 22.2626 24.2616 21.9697 23.9687C21.6768 23.6758 21.6768 23.2009 21.9697 22.908L23.5018 21.3759H17.8125C17.3983 21.3759 17.0625 21.0401 17.0625 20.6259M25.8428 21.1562C25.9147 21.0843 25.969 21.0014 26.0056 20.9129L25.8428 21.1562Z" fill="white"/>
</svg>
