<svg width="30" height="30" viewBox="0 0 30 30" fill="none" xmlns="http://www.w3.org/2000/svg">
<path fill-rule="evenodd" clip-rule="evenodd" d="M6.3875 9.30625L2.5 5.41875L4.2625 3.65625L25.1875 24.5812L23.425 26.3438L18.4125 21.3313H16.25V19.1687L13.4125 16.3313H10V13.8313H10.9125L8.325 11.2438C6.3875 11.4563 4.875 13.0938 4.875 15.0813C4.875 17.2188 6.6125 18.9562 8.75 18.9562H13.75V21.3313H8.75C5.3 21.3313 2.5 18.5312 2.5 15.0813C2.5 12.4688 4.1125 10.2312 6.3875 9.30625ZM21.25 8.83141H16.25V11.2064H21.25C23.3875 11.2064 25.125 12.9439 25.125 15.0814C25.125 16.6689 24.1625 18.0439 22.7875 18.6314L24.5375 20.3814C26.3125 19.2814 27.5 17.3189 27.5 15.0814C27.5 11.6314 24.7 8.83141 21.25 8.83141ZM17.9874 13.8314L19.9999 15.8439V13.8314H17.9874Z" fill="white"/>
</svg>
