<svg width="32" height="32" viewBox="0 0 32 32" fill="none" xmlns="http://www.w3.org/2000/svg">
<g id="link_24px">
<path id="icon/content/link_24px" fill-rule="evenodd" clip-rule="evenodd" d="M14.667 20.0007H9.33366C7.13366 20.0007 5.33366 18.2007 5.33366 16.0007C5.33366 13.8007 7.13366 12.0007 9.33366 12.0007H14.667V9.33398H9.33366C5.65366 9.33398 2.66699 12.3207 2.66699 16.0007C2.66699 19.6807 5.65366 22.6673 9.33366 22.6673H14.667V20.0007ZM22.6671 9.33398H17.3337V12.0007H22.6671C24.8671 12.0007 26.6671 13.8007 26.6671 16.0007C26.6671 18.2007 24.8671 20.0007 22.6671 20.0007H17.3337V22.6673H22.6671C26.3471 22.6673 29.3337 19.6807 29.3337 16.0007C29.3337 12.3207 26.3471 9.33398 22.6671 9.33398ZM21.3337 14.6674H10.667V17.3341H21.3337V14.6674Z" fill="white"/>
</g>
</svg>
