<svg width="11" height="14" viewBox="0 0 11 14" fill="none" xmlns="http://www.w3.org/2000/svg">
<path d="M9.8421 5.54167H9.4079V3.9375C9.4079 2.89321 8.99617 1.89169 8.2633 1.15327C7.53043 0.414843 6.53644 0 5.5 0C4.46356 0 3.46957 0.414843 2.7367 1.15327C2.00383 1.89169 1.59211 2.89321 1.59211 3.9375V5.54167H1.15789C0.850802 5.54167 0.556287 5.66458 0.339139 5.88338C0.121992 6.10217 0 6.39891 0 6.70833V12.8333C0 13.1428 0.121992 13.4395 0.339139 13.6583C0.556287 13.8771 0.850802 14 1.15789 14H9.8421C10.1492 14 10.4437 13.8771 10.6609 13.6583C10.878 13.4395 11 13.1428 11 12.8333V6.70833C11 6.39891 10.878 6.10217 10.6609 5.88338C10.4437 5.66458 10.1492 5.54167 9.8421 5.54167ZM5.5 10.7917C5.27099 10.7917 5.04712 10.7232 4.85671 10.595C4.66629 10.4669 4.51788 10.2846 4.43024 10.0715C4.34261 9.85828 4.31968 9.62371 4.36435 9.39739C4.40903 9.17108 4.51931 8.9632 4.68124 8.80004C4.84318 8.63688 5.0495 8.52577 5.27411 8.48075C5.49872 8.43573 5.73153 8.45884 5.94311 8.54714C6.15468 8.63544 6.33552 8.78498 6.46275 8.97683C6.58999 9.16869 6.65789 9.39425 6.65789 9.625C6.65789 9.93442 6.5359 10.2312 6.31876 10.45C6.10161 10.6687 5.80709 10.7917 5.5 10.7917ZM7.96053 5.25C7.96053 5.32735 7.93003 5.40154 7.87574 5.45624C7.82146 5.51094 7.74783 5.54167 7.67105 5.54167H3.32895C3.25217 5.54167 3.17855 5.51094 3.12426 5.45624C3.06997 5.40154 3.03947 5.32735 3.03947 5.25V3.9375C3.03947 3.27998 3.29871 2.6494 3.76014 2.18446C4.22158 1.71953 4.84743 1.45833 5.5 1.45833C6.15257 1.45833 6.77842 1.71953 7.23985 2.18446C7.70129 2.6494 7.96053 3.27998 7.96053 3.9375V5.25Z" fill="white"/>
</svg>
