<svg width="22" height="22" viewBox="0 0 22 22" fill="none" xmlns="http://www.w3.org/2000/svg">
<g clip-path="url(#clip0)">
<path opacity="0.5" d="M0.6875 11.0037H15.125" stroke="#2B3137" stroke-width="1.5" stroke-linecap="round" stroke-linejoin="round"/>
<path opacity="0.5" d="M11.6875 14.4412L15.125 11.0037L11.6875 7.56616" stroke="#2B3137" stroke-width="1.5" stroke-linecap="round" stroke-linejoin="round"/>
<path opacity="0.5" d="M3.03027 15.2166C3.97631 17.1601 5.54901 18.7286 7.49503 19.6695C9.44106 20.6103 11.6471 20.8687 13.7579 20.403C15.8687 19.9374 17.7613 18.7748 19.1308 17.1026C20.5004 15.4303 21.2672 13.3457 21.3077 11.1846C21.3483 9.02342 20.6602 6.91154 19.3543 5.18908C18.0484 3.46663 16.2008 2.23388 14.1089 1.6894C12.0171 1.14492 9.80292 1.3204 7.82298 2.18758C5.84304 3.05477 4.21262 4.56316 3.19436 6.46981" stroke="#2B3137" stroke-width="1.5" stroke-linecap="round" stroke-linejoin="round"/>
</g>
<defs>
<clipPath id="clip0">
<rect width="22" height="22" fill="white"/>
</clipPath>
</defs>
</svg>
