<svg width="235" height="54" viewBox="0 0 235 54" fill="none" xmlns="http://www.w3.org/2000/svg">
<path d="M6.51211 45.1037H0V0.0458984H6.64202V14.7433V16.9999C6.96449 16.5492 7.54524 15.9686 7.99609 15.5821C10.446 13.8419 13.6707 12.6166 16.5072 12.6166C26.2441 12.6166 33.2727 19.5146 33.2727 28.9259V45.0411H26.8248V41.1727V28.9243C26.8248 23.2516 23.0209 19.0624 16.5072 19.0624C10.8326 19.0624 6.64048 23.2516 6.51211 28.796V45.1037Z" fill="white"/>
<path d="M67.0938 13.0674L48.6518 54.0001H41.753L45.2986 46.3932L46.5885 43.4278L45.3628 40.6563L34.1436 13.0674H40.3989L48.395 33.3076L49.7491 37.0462L51.3614 33.3718L60.5817 13.0674H67.0938Z" fill="white"/>
<path d="M125.96 12.8086V18.6753C126.025 18.6753 116.868 18.0306 115.707 25.7017V45.1689H108.937V12.9369H115.707V15.9024C118.351 13.7757 119.318 12.8086 125.96 12.8086Z" fill="white"/>
<path d="M160.567 28.924C160.567 38.2069 152.958 45.7481 143.673 45.7481C134.387 45.7481 127.036 38.2069 127.036 28.924C127.036 19.6411 134.387 12.1641 143.673 12.1641C152.959 12.1641 160.567 19.6411 160.567 28.924ZM154.378 28.924C154.378 22.7349 149.929 17.9651 143.673 17.9651C137.548 17.9651 132.905 22.7349 132.905 28.924C132.905 35.1773 137.548 39.9471 143.673 39.9471C149.929 39.9471 154.378 35.1758 154.378 28.924Z" fill="white"/>
<path d="M234.549 34.4026C231.454 41.9453 225.135 45.6838 218.557 45.6838C209.401 45.6838 202.05 38.1426 202.05 29.0522C202.05 19.8992 209.401 12.3564 218.557 12.3564C227.649 12.3564 235 19.8992 235 29.0522C235 29.6328 235 30.3417 234.936 30.8565H229.005H225.716H208.369C209.208 35.8203 213.335 39.6872 218.557 39.6872C222.555 39.6872 226.037 37.753 227.713 34.401H234.549V34.4026ZM208.562 26.0226H209.658H226.681H228.616C228.422 25.5062 228.1 24.9913 227.907 24.4749C226.231 20.9289 222.749 18.2858 218.557 18.2858C214.172 18.2858 210.625 21.0573 209.013 24.7958C208.82 25.2495 208.626 25.6361 208.562 26.0226Z" fill="white"/>
<path d="M181.79 12.7461C170.575 12.8714 165.184 20.2292 165.184 29.0492V45.2286H171.826V41.4259V29.0492C171.826 23.3123 175.179 19.0574 181.691 19.0574C181.723 19.0574 181.757 19.059 181.789 19.0605C181.821 19.0605 181.854 19.0574 181.886 19.0574C188.399 19.0574 191.752 23.3123 191.752 29.0492V41.4259V45.2286H198.394V29.0492C198.395 20.2292 193.005 12.8714 181.79 12.7461Z" fill="white"/>
<path d="M88.1025 13.3392C83.9149 13.3545 80.0896 14.673 77.0819 16.8806V0H70.501V29.543H70.5025C70.5178 38.4699 78.3274 45.6597 88.1025 45.6949C97.0996 45.6597 104.287 38.4547 104.287 29.5171C104.287 20.5137 97.0996 13.3728 88.1025 13.3392ZM88.1025 39.8312C81.9312 39.8312 77.0926 35.2539 77.0926 29.5171C77.0926 23.716 81.9312 19.0746 88.1025 19.0746C93.7771 19.0746 98.226 23.716 98.226 29.5171C98.226 35.2539 93.7771 39.8312 88.1025 39.8312Z" fill="white"/>
</svg>
