<svg width="87" height="100" viewBox="0 0 87 100" fill="none" xmlns="http://www.w3.org/2000/svg">
<path d="M43.4995 23.9844L20.8652 36.9921L43.4995 49.9998L66.1337 36.9921L43.4995 23.9844Z" fill="white"/>
<path d="M43.5 0L0 24.9989V74.9989L43.5 100L87 74.9989V24.9989L43.5 0ZM43.5 83.3341L14.5008 66.6682V33.3318L43.5 16.6659L72.4993 33.3318V66.6659L43.5 83.3341Z" fill="white"/>
<path d="M20.8652 36.9922V63.0076L43.4995 76.0153V49.9999L20.8652 36.9922Z" fill="#007DB7"/>
<path d="M43.5 67.3422V76.0155L51.0447 71.6789V63.0078L43.5 67.3422Z" fill="white"/>
<path d="M43.5 49.9997V58.6708L51.0447 54.3341V45.6631L43.5 49.9997Z" fill="white"/>
<path d="M51.0449 54.3344V63.0077L58.5897 58.671V50L51.0449 54.3344Z" fill="white"/>
<path d="M58.5889 41.3266V49.9999L66.1313 45.6632V36.9922L58.5889 41.3266Z" fill="white"/>
</svg>
