<svg width="22" height="22" viewBox="0 0 22 22" fill="none" xmlns="http://www.w3.org/2000/svg">
<g clip-path="url(#clip0)">
<path d="M18.5615 17.1914V18.5664C18.5615 18.9311 18.4167 19.2808 18.1588 19.5387C17.9009 19.7965 17.5512 19.9414 17.1865 19.9414H13.0615" stroke="white" stroke-opacity="0.5" stroke-width="1.5" stroke-linecap="round" stroke-linejoin="round"/>
<path d="M13.0615 3.44141H17.1865C17.5512 3.44141 17.9009 3.58627 18.1588 3.84413C18.4167 4.102 18.5615 4.45173 18.5615 4.81641V6.19141" stroke="white" stroke-opacity="0.5" stroke-width="1.5" stroke-linecap="round" stroke-linejoin="round"/>
<path d="M9.52686 21.3096L1.27686 20.1308C1.11309 20.1074 0.963244 20.0258 0.854811 19.9008C0.746377 19.7759 0.686628 19.6161 0.686524 19.4506V3.41539C0.686394 3.25795 0.740304 3.10524 0.839244 2.98277C0.938183 2.86031 1.07616 2.77551 1.23011 2.74255L9.48011 0.706638C9.58038 0.685172 9.68419 0.686409 9.78393 0.71026C9.88366 0.734111 9.9768 0.779972 10.0565 0.844482C10.1362 0.908992 10.2005 0.990518 10.2446 1.08309C10.2888 1.17566 10.3116 1.27692 10.3115 1.37947V20.6295C10.3115 20.7279 10.2903 20.8252 10.2493 20.9148C10.2084 21.0043 10.1487 21.084 10.0743 21.1485C9.99994 21.213 9.91256 21.2608 9.8181 21.2886C9.72365 21.3164 9.62433 21.3236 9.52686 21.3096V21.3096Z" stroke="white" stroke-opacity="0.5" stroke-width="1.5" stroke-linecap="round" stroke-linejoin="round"/>
<path d="M18.5615 8.93945L21.3115 11.6895H13.749" stroke="white" stroke-opacity="0.5" stroke-width="1.5" stroke-linecap="round" stroke-linejoin="round"/>
<path d="M18.5625 14.4395L21.3125 11.6895" stroke="white" stroke-opacity="0.5" stroke-width="1.5" stroke-linecap="round" stroke-linejoin="round"/>
<path d="M7.21775 10.6599C7.14961 10.6599 7.08301 10.6802 7.0264 10.7181C6.96979 10.7561 6.92574 10.81 6.89983 10.873C6.87393 10.936 6.86734 11.0053 6.8809 11.0721C6.89447 11.1389 6.92757 11.2001 6.97601 11.248C7.02445 11.296 7.08605 11.3284 7.15297 11.3413C7.21989 11.3541 7.28912 11.3468 7.35186 11.3202C7.41461 11.2936 7.46804 11.249 7.50536 11.192C7.54269 11.135 7.56223 11.0681 7.5615 11C7.56162 10.9548 7.55282 10.9101 7.53558 10.8683C7.51835 10.8266 7.49304 10.7886 7.46109 10.7567C7.42915 10.7247 7.3912 10.6994 7.34944 10.6822C7.30768 10.6649 7.26293 10.6561 7.21775 10.6563" stroke="white" stroke-opacity="0.5" stroke-width="1.5" stroke-linecap="round" stroke-linejoin="round"/>
</g>
<defs>
<clipPath id="clip0">
<rect width="22" height="22" fill="white"/>
</clipPath>
</defs>
</svg>
