<svg width="22" height="22" viewBox="0 0 22 22" fill="none" xmlns="http://www.w3.org/2000/svg">
<g clip-path="url(#clip0)">
<path opacity="0.5" d="M21.3125 14.4375V19.9375C21.3125 20.3022 21.1676 20.6519 20.9098 20.9098C20.6519 21.1676 20.3022 21.3125 19.9375 21.3125H14.4375" stroke="#2B3137" stroke-width="1.5" stroke-linecap="round" stroke-linejoin="round"/>
<path opacity="0.5" d="M14.4375 0.6875H19.9375C20.3022 0.6875 20.6519 0.832366 20.9098 1.09023C21.1676 1.34809 21.3125 1.69783 21.3125 2.0625V7.5625" stroke="#2B3137" stroke-width="1.5" stroke-linecap="round" stroke-linejoin="round"/>
<path opacity="0.5" d="M0.6875 7.5625V2.0625C0.6875 1.69783 0.832366 1.34809 1.09023 1.09023C1.34809 0.832366 1.69783 0.6875 2.0625 0.6875H7.5625" stroke="#2B3137" stroke-width="1.5" stroke-linecap="round" stroke-linejoin="round"/>
<path opacity="0.5" d="M7.5625 21.3125H2.0625C1.69783 21.3125 1.34809 21.1676 1.09023 20.9098C0.832366 20.6519 0.6875 20.3022 0.6875 19.9375V14.4375" stroke="#2B3137" stroke-width="1.5" stroke-linecap="round" stroke-linejoin="round"/>
<path opacity="0.5" d="M11 6.1875V15.8125" stroke="#2B3137" stroke-width="1.5" stroke-linecap="round" stroke-linejoin="round"/>
<path opacity="0.5" d="M7.5625 8.25V13.75" stroke="#2B3137" stroke-width="1.5" stroke-linecap="round" stroke-linejoin="round"/>
<path opacity="0.5" d="M14.4375 8.25V13.75" stroke="#2B3137" stroke-width="1.5" stroke-linecap="round" stroke-linejoin="round"/>
<path opacity="0.5" d="M4.125 9.625V12.375" stroke="#2B3137" stroke-width="1.5" stroke-linecap="round" stroke-linejoin="round"/>
<path opacity="0.5" d="M17.875 9.625V12.375" stroke="#2B3137" stroke-width="1.5" stroke-linecap="round" stroke-linejoin="round"/>
</g>
<defs>
<clipPath id="clip0">
<rect width="22" height="22" fill="white"/>
</clipPath>
</defs>
</svg>
