<svg width="60" height="60" viewBox="0 0 60 60" fill="none" xmlns="http://www.w3.org/2000/svg">
<g clip-path="url(#clip0)">
<path d="M30 14.375C30.663 14.375 31.2989 14.1116 31.7678 13.6428C32.2366 13.1739 32.5 12.538 32.5 11.875V4.375C32.5 3.71196 32.2366 3.07607 31.7678 2.60723C31.2989 2.13839 30.663 1.875 30 1.875C29.337 1.875 28.7011 2.13839 28.2322 2.60723C27.7634 3.07607 27.5 3.71196 27.5 4.375V11.875C27.5 12.538 27.7634 13.1739 28.2322 13.6428C28.7011 14.1116 29.337 14.375 30 14.375Z" fill="#EA1C4E"/>
<path d="M45.9472 19.6769C46.6102 19.6768 47.246 19.4133 47.7147 18.9444L53.0172 13.6419C53.256 13.4113 53.4464 13.1354 53.5775 12.8304C53.7085 12.5254 53.7775 12.1974 53.7803 11.8654C53.7832 11.5335 53.72 11.2043 53.5943 10.897C53.4686 10.5898 53.2829 10.3107 53.0482 10.0759C52.8135 9.84119 52.5343 9.65556 52.2271 9.52986C51.9199 9.40415 51.5907 9.3409 51.2587 9.34378C50.9268 9.34667 50.5987 9.41563 50.2937 9.54666C49.9887 9.67768 49.7128 9.86813 49.4822 10.1069L44.1797 15.4094C43.8302 15.759 43.5922 16.2044 43.4958 16.6893C43.3993 17.1742 43.4489 17.6768 43.638 18.1335C43.8272 18.5903 44.1476 18.9807 44.5586 19.2554C44.9696 19.5301 45.4528 19.6768 45.9472 19.6769Z" fill="#EA1C4E"/>
<path d="M57.5 29.3751H51.25C50.587 29.3751 49.9511 29.6385 49.4822 30.1073C49.0134 30.5761 48.75 31.212 48.75 31.8751C48.75 32.5381 49.0134 33.174 49.4822 33.6428C49.9511 34.1117 50.587 34.3751 51.25 34.3751H57.5C58.163 34.3751 58.7989 34.1117 59.2678 33.6428C59.7366 33.174 60 32.5381 60 31.8751C60 31.212 59.7366 30.5761 59.2678 30.1073C58.7989 29.6385 58.163 29.3751 57.5 29.3751Z" fill="#EA1C4E"/>
<path d="M12.2855 18.9456C12.5161 19.1844 12.792 19.3748 13.097 19.5058C13.402 19.6369 13.7301 19.7058 14.062 19.7087C14.394 19.7116 14.7232 19.6483 15.0304 19.5226C15.3377 19.3969 15.6168 19.2113 15.8515 18.9766C16.0862 18.7418 16.2719 18.4627 16.3976 18.1555C16.5233 17.8482 16.5865 17.519 16.5837 17.1871C16.5808 16.8551 16.5118 16.5271 16.3808 16.2221C16.2498 15.9171 16.0593 15.6412 15.8205 15.4106L10.518 10.1081C10.0465 9.6527 9.41502 9.40071 8.75953 9.40641C8.10403 9.4121 7.477 9.67502 7.01348 10.1385C6.54996 10.6021 6.28704 11.2291 6.28134 11.8846C6.27565 12.5401 6.52763 13.1716 6.98303 13.6431L12.2855 18.9456Z" fill="#EA1C4E"/>
<path d="M11.25 31.8751C11.25 31.212 10.9866 30.5761 10.5178 30.1073C10.0489 29.6385 9.41304 29.3751 8.75 29.3751H2.5C1.83696 29.3751 1.20107 29.6385 0.732233 30.1073C0.263392 30.5761 0 31.212 0 31.8751C0 32.5381 0.263392 33.174 0.732233 33.6428C1.20107 34.1117 1.83696 34.3751 2.5 34.3751H8.75C9.41304 34.3751 10.0489 34.1117 10.5178 33.6428C10.9866 33.174 11.25 32.5381 11.25 31.8751Z" fill="#EA1C4E"/>
<path d="M43.3173 43.1251C43.4909 43.1257 43.6627 43.0902 43.8218 43.0207C43.981 42.9513 44.1239 42.8495 44.2415 42.7218C44.3591 42.5941 44.4488 42.4433 44.5049 42.279C44.561 42.1147 44.5822 41.9405 44.5673 41.7676L42.9998 23.6576C42.8238 22.1345 42.0941 20.7293 40.9496 19.7093C39.805 18.6892 38.3254 18.1254 36.7923 18.1251H23.2073C21.6683 18.1264 20.184 18.6955 19.0386 19.7232C17.8932 20.751 17.1672 22.1653 16.9998 23.6951L15.4423 41.7676C15.4272 41.94 15.448 42.1137 15.5035 42.2777C15.559 42.4416 15.648 42.5923 15.7648 42.7201C15.882 42.8479 16.0246 42.9499 16.1834 43.0196C16.3422 43.0893 16.5138 43.1252 16.6873 43.1251H43.3173Z" fill="#EA1C4E"/>
<path d="M42.5 46.875H17.5C15.8424 46.875 14.2527 47.5335 13.0806 48.7056C11.9085 49.8777 11.25 51.4674 11.25 53.125V54.375C11.25 55.3696 11.6451 56.3234 12.3483 57.0266C13.0516 57.7299 14.0054 58.125 15 58.125H45C45.9946 58.125 46.9484 57.7299 47.6516 57.0266C48.3549 56.3234 48.75 55.3696 48.75 54.375V53.125C48.75 51.4674 48.0915 49.8777 46.9194 48.7056C45.7473 47.5335 44.1576 46.875 42.5 46.875Z" fill="#EA1C4E"/>
</g>
<defs>
<clipPath id="clip0">
<rect width="60" height="60" fill="white"/>
</clipPath>
</defs>
</svg>
