<svg width="22" height="22" viewBox="0 0 22 22" fill="none" xmlns="http://www.w3.org/2000/svg">
<g clip-path="url(#clip0)">
<path opacity="0.5" d="M9.7168 9.29779C10.3467 10.049 10.731 10.9753 10.8178 11.9517C10.9047 12.9282 10.69 13.9078 10.2026 14.7584C9.77119 14.7917 9.34319 14.6599 9.00521 14.3897C8.66724 14.1194 8.44453 13.7309 8.38214 13.3027C7.73609 13.6557 7.20435 14.186 6.84951 14.831C6.49467 15.4761 6.3315 16.2091 6.37922 16.9437C6.37922 17.5175 6.49225 18.0857 6.71186 18.6158C6.93148 19.1459 7.25336 19.6276 7.65914 20.0333C8.06493 20.439 8.54665 20.7607 9.07681 20.9802C9.60696 21.1997 10.1752 21.3127 10.749 21.3125C11.9028 21.2969 13.0049 20.8316 13.8209 20.0156C14.6368 19.1997 15.1021 18.0975 15.1178 16.9437C15.2791 12.6345 12.7766 10.2988 9.7168 9.29779Z" stroke="#2B3137" stroke-width="1.5" stroke-linecap="round" stroke-linejoin="round"/>
<path opacity="0.5" d="M18.899 6.18658H18.5626L16.15 9.20242C15.2356 6.41603 15.3527 3.39386 16.48 0.686584C14.3793 0.793042 12.3412 1.43713 10.5609 2.55714C8.78053 3.67715 7.31762 5.23557 6.31228 7.08309L4.12512 4.95C2.84653 6.25491 1.96572 7.89676 1.58562 9.68369C1.20553 11.4706 1.34184 13.3288 1.97864 15.0412C2.61544 16.7535 3.72641 18.2492 5.18174 19.3536C6.63708 20.4579 8.37665 21.1253 10.1972 21.2777C12.0177 21.4301 13.844 21.0612 15.4627 20.2141C17.0814 19.367 18.4255 18.0768 19.3381 16.4942C20.2507 14.9115 20.694 13.1018 20.6163 11.2766C20.5385 9.45132 19.9429 7.68589 18.899 6.18658V6.18658Z" stroke="#2B3137" stroke-width="1.5" stroke-linecap="round" stroke-linejoin="round"/>
</g>
<defs>
<clipPath id="clip0">
<rect width="22" height="22" fill="white"/>
</clipPath>
</defs>
</svg>
