<svg width="22" height="22" viewBox="0 0 22 22" fill="none" xmlns="http://www.w3.org/2000/svg">
<g clip-path="url(#clip0)">
<path d="M3.43652 8.25004C3.43652 6.81585 3.84433 5.41123 4.61239 4.20003C5.38044 2.98884 6.47707 2.02102 7.77435 1.40947C9.07162 0.79793 10.516 0.56788 11.9391 0.746162C13.3622 0.924444 14.7052 1.50371 15.8115 2.41637" stroke="white" stroke-opacity="0.5" stroke-width="1.5" stroke-linecap="round" stroke-linejoin="round"/>
<path d="M18.0464 5.5C18.3881 6.37653 18.5628 7.30923 18.5616 8.25V13.75C18.5616 15.7555 17.7649 17.679 16.3469 19.0972C14.9289 20.5154 13.0055 21.3123 11 21.3125C10.5388 21.3125 10.0786 21.2708 9.625 21.1878" stroke="white" stroke-opacity="0.5" stroke-width="1.5" stroke-linecap="round" stroke-linejoin="round"/>
<path d="M6.18848 19.5846C5.3275 18.8756 4.63434 17.9847 4.15884 16.9758C3.68333 15.967 3.43732 14.8653 3.43848 13.75V11.6875" stroke="white" stroke-opacity="0.5" stroke-width="1.5" stroke-linecap="round" stroke-linejoin="round"/>
<path d="M14.4365 13.75V8.25C14.4365 7.61162 14.2588 6.98584 13.9231 6.4428C13.5875 5.89976 13.1073 5.4609 12.5363 5.17541C11.9653 4.88991 11.3261 4.76906 10.6903 4.82639C10.0545 4.88372 9.44723 5.11697 8.93652 5.5" stroke="white" stroke-opacity="0.5" stroke-width="1.5" stroke-linecap="round" stroke-linejoin="round"/>
<path d="M7.56152 8.25V13.75C7.56199 14.3207 7.70444 14.8824 7.97603 15.3843C8.24762 15.8863 8.63983 16.3128 9.11731 16.6254C9.59479 16.938 10.1426 17.1269 10.7112 17.1751C11.2799 17.2233 11.8517 17.1293 12.3749 16.9015" stroke="white" stroke-opacity="0.5" stroke-width="1.5" stroke-linecap="round" stroke-linejoin="round"/>
<path d="M10.999 8.9375V13.0625" stroke="white" stroke-opacity="0.5" stroke-width="1.5" stroke-linecap="round" stroke-linejoin="round"/>
</g>
<defs>
<clipPath id="clip0">
<rect width="22" height="22" fill="white"/>
</clipPath>
</defs>
</svg>
