<svg width="18" height="17" viewBox="0 0 18 17" fill="none" xmlns="http://www.w3.org/2000/svg">
<path fill-rule="evenodd" clip-rule="evenodd" d="M6.49248 2.0788C5.93351 2.75071 5.61119 3.81329 5.61119 5.35399C5.61119 7.62347 6.31093 8.70712 6.85996 9.34063C6.98517 9.4851 7.10414 9.6079 7.21877 9.72622L7.27214 9.78138C7.39323 9.90676 7.53078 10.0507 7.62998 10.1991C7.73362 10.3541 7.83795 10.5757 7.80136 10.8471C7.76608 11.1088 7.61339 11.3112 7.45182 11.4665C6.89647 12.0005 6.21736 12.3874 5.54594 12.7102C5.20902 12.8722 4.8656 13.0218 4.5358 13.1655L4.52814 13.1688C4.198 13.3126 3.88231 13.4501 3.58303 13.594C2.97402 13.8868 2.48257 14.1837 2.14305 14.5479C1.81964 14.8947 1.62305 15.3138 1.62305 15.8996C1.62305 16.1757 1.39919 16.3996 1.12305 16.3996C0.846904 16.3996 0.623047 16.1757 0.623047 15.8996C0.623047 15.0473 0.924972 14.3879 1.41166 13.8659C1.88223 13.3612 2.51245 12.9991 3.14973 12.6927C3.46599 12.5407 3.79628 12.3968 4.12027 12.2557L4.12028 12.2557L4.12034 12.2557L4.13651 12.2486C4.4688 12.1039 4.79526 11.9615 5.11265 11.8089C5.74984 11.5026 6.31702 11.1704 6.75871 10.7457C6.76601 10.7387 6.7725 10.7322 6.77827 10.7263C6.73481 10.6684 6.66534 10.5926 6.55281 10.476L6.50254 10.4241C6.3884 10.3064 6.24906 10.1626 6.10427 9.99556C5.40701 9.19102 4.61119 7.87796 4.61119 5.35399C4.61119 3.69938 4.9534 2.36524 5.72372 1.43926C6.50871 0.495658 7.66605 0.0605469 9.09934 0.0605469C10.5326 0.0605469 11.69 0.495658 12.475 1.43926C13.2453 2.36524 13.5875 3.69938 13.5875 5.35399C13.5875 7.38197 12.8463 8.74839 12.346 9.40589H15.1782C15.4543 9.40589 15.6782 9.62975 15.6782 9.90589V10.9383C16.768 11.2078 17.5759 12.1922 17.5759 13.3652V13.7438C17.5759 15.1245 16.4566 16.2438 15.0759 16.2438H12.2453C10.8646 16.2438 9.74534 15.1245 9.74534 13.7438V13.3652C9.74534 12.1924 10.553 11.2082 11.6424 10.9384V9.90589C11.6424 9.90091 11.6425 9.89594 11.6426 9.89099C11.5299 9.87886 11.4207 9.82854 11.336 9.74043C11.1446 9.54138 11.1508 9.22486 11.3498 9.03346C11.588 8.80441 12.5875 7.55893 12.5875 5.35399C12.5875 3.81329 12.2652 2.75071 11.7062 2.0788C11.1619 1.4245 10.3251 1.06055 9.09934 1.06055C7.87353 1.06055 7.0368 1.4245 6.49248 2.0788ZM14.6782 10.8652H12.6424V10.4059H14.6782V10.8652ZM12.2219 11.8654C11.4043 11.8779 10.7453 12.5446 10.7453 13.3652V13.7438C10.7453 14.5722 11.4169 15.2438 12.2453 15.2438H15.0759C15.9043 15.2438 16.5759 14.5722 16.5759 13.7438V13.3652C16.5759 12.5446 15.9169 11.8779 15.0993 11.8654H12.2219Z" fill="#95989B"/>
</svg>
