<svg width="17" height="17" viewBox="0 0 17 17" fill="none" xmlns="http://www.w3.org/2000/svg">
<path fill-rule="evenodd" clip-rule="evenodd" d="M6.74249 2.35028C6.18351 3.0222 5.86119 4.08478 5.86119 5.62548C5.86119 7.89495 6.56093 8.97861 7.10996 9.61211C7.23518 9.75659 7.35414 9.87938 7.46877 9.99771L7.52215 10.0529C7.64323 10.1782 7.78078 10.3222 7.87998 10.4706C7.98362 10.6256 8.08795 10.8472 8.05136 11.1186C8.01608 11.3803 7.86339 11.5827 7.70182 11.738C7.14648 12.272 6.46736 12.6589 5.79594 12.9817C5.45902 13.1436 5.1156 13.2933 4.7858 13.437L4.77814 13.4403C4.448 13.5841 4.13231 13.7216 3.83303 13.8654C3.22402 14.1582 2.73257 14.4552 2.39305 14.8193C2.06964 15.1662 1.87305 15.5853 1.87305 16.1711C1.87305 16.4472 1.64919 16.6711 1.37305 16.6711C1.0969 16.6711 0.873047 16.4472 0.873047 16.1711C0.873047 15.3188 1.17497 14.6594 1.66166 14.1374C2.13223 13.6327 2.76245 13.2706 3.39973 12.9642C3.71593 12.8122 4.04616 12.6684 4.37009 12.5273L4.37029 12.5272L4.37034 12.5272L4.38651 12.5201C4.7188 12.3754 5.04527 12.233 5.36265 12.0804C5.99984 11.7741 6.56702 11.4419 7.00871 11.0172C7.01601 11.0102 7.0225 11.0037 7.02827 10.9977C6.98481 10.9399 6.91534 10.8641 6.80282 10.7475L6.75256 10.6956C6.63842 10.5779 6.49907 10.4341 6.35427 10.267C5.65701 9.46251 4.86119 8.14944 4.86119 5.62548C4.86119 3.97086 5.2034 2.63672 5.97373 1.71074C6.75871 0.767142 7.91605 0.332031 9.34934 0.332031C10.7826 0.332031 11.94 0.767142 12.725 1.71074C13.4953 2.63672 13.8375 3.97086 13.8375 5.62547C13.8375 6.83971 13.6969 7.6653 13.4955 8.24464C13.3939 8.53678 13.2781 8.76256 13.1614 8.94079C15.2616 9.16575 16.8945 10.8784 16.8945 12.9578C16.8945 15.1901 15.0125 16.9998 12.6908 16.9998C10.3692 16.9998 8.48708 15.1901 8.48708 12.9578C8.48708 10.9627 9.99026 9.30529 11.967 8.97543C11.9731 8.8526 12.0242 8.73174 12.1198 8.63977C12.2316 8.53234 12.4024 8.34347 12.5509 7.91622C12.7042 7.47541 12.8375 6.7691 12.8375 5.62548C12.8375 4.08478 12.5152 3.0222 11.9562 2.35028C11.4119 1.69599 10.5751 1.33203 9.34934 1.33203C8.12354 1.33203 7.2868 1.69599 6.74249 2.35028ZM15.5217 14.3802C15.7605 13.9524 15.8945 13.4668 15.8945 12.9578C15.8945 11.3143 14.4975 9.91574 12.6908 9.91574C11.8679 9.91574 11.1299 10.2059 10.5703 10.6772L15.5217 14.3802ZM14.8986 15.162C14.3295 15.6781 13.5573 15.9998 12.6908 15.9998C10.8841 15.9998 9.48708 14.6012 9.48708 12.9578C9.48708 12.4092 9.64276 11.8878 9.91738 11.4367L14.8986 15.162Z" fill="#95989B"/>
</svg>
