<svg width="17" height="19" viewBox="0 0 17 19" fill="none" xmlns="http://www.w3.org/2000/svg">
<path fill-rule="evenodd" clip-rule="evenodd" d="M5 5.90039C5 4.2873 5.32476 3.16988 5.89033 2.46284C6.43884 1.77712 7.27687 1.40039 8.5 1.40039C9.72313 1.40039 10.5612 1.77712 11.1097 2.46284C11.6752 3.16988 12 4.2873 12 5.90039C12 8.27876 11.294 9.41651 10.7409 10.0803C10.615 10.2313 10.4954 10.3597 10.3805 10.4831L10.327 10.5406C10.2052 10.6718 10.0684 10.8208 9.97003 10.9738C9.86706 11.1339 9.76811 11.3558 9.80297 11.6248C9.83678 11.8856 9.98396 12.0915 10.1464 12.2539C10.3417 12.4492 10.6583 12.4492 10.8535 12.2539C11.0488 12.0587 11.0488 11.7421 10.8535 11.5468C10.8378 11.5311 10.8256 11.5178 10.8163 11.5068C10.8593 11.442 10.9327 11.3579 11.0598 11.2211L11.1102 11.1669C11.2247 11.044 11.3642 10.8944 11.5091 10.7205C12.206 9.88427 13 8.52201 13 5.90039C13 4.18048 12.6583 2.7979 11.8906 1.83819C11.1058 0.857164 9.94386 0.400391 8.5 0.400391C7.05613 0.400391 5.89415 0.857164 5.10942 1.83819C4.34174 2.7979 4 4.18048 4 5.90039C4 8.52201 4.79404 9.88427 5.49089 10.7205C5.63581 10.8944 5.77527 11.044 5.88976 11.1669L5.88977 11.1669L5.94024 11.2211C6.06727 11.3579 6.14067 11.442 6.18374 11.5068C6.17437 11.5178 6.16218 11.5311 6.14645 11.5468C5.70262 11.9907 5.13354 12.3371 4.49514 12.6563C4.17696 12.8154 3.84965 12.9639 3.51636 13.1149L3.50013 13.1222L3.50011 13.1222C3.17517 13.2694 2.84375 13.4195 2.52639 13.5782C1.88629 13.8982 1.2547 14.2759 0.783965 14.801C0.298245 15.3428 0 16.0231 0 16.9004C0 17.1765 0.223858 17.4004 0.5 17.4004C0.776142 17.4004 1 17.1765 1 16.9004C1 16.2777 1.20175 15.833 1.52853 15.4685C1.8703 15.0873 2.36371 14.7776 2.97361 14.4726C3.27367 14.3226 3.59019 14.1792 3.92137 14.0292L3.92895 14.0258C4.25972 13.8759 4.60429 13.7198 4.94236 13.5507C5.61646 13.2137 6.29738 12.8101 6.85355 12.2539C7.01603 12.0915 7.16322 11.8856 7.19702 11.6248C7.23189 11.3558 7.13294 11.1339 7.02996 10.9738C6.93164 10.8208 6.79481 10.6718 6.67304 10.5406L6.61954 10.4831C6.50458 10.3597 6.38498 10.2313 6.25911 10.0803C5.70595 9.41651 5 8.27876 5 5.90039ZM16.0536 14.5468L12.8716 11.3648C12.6763 11.1695 12.3598 11.1695 12.1645 11.3648C11.9692 11.5601 11.9692 11.8767 12.1645 12.0719L14.4929 14.4003H7.90004V15.4003H14.4929L12.1645 17.7288C11.9692 17.924 11.9692 18.2406 12.1645 18.4359C12.3598 18.6311 12.6763 18.6311 12.8716 18.4359L16.0536 15.2539C16.2489 15.0586 16.2489 14.7421 16.0536 14.5468Z" fill="#95989B"/>
</svg>
