<svg width="10" height="10" viewBox="0 0 10 10" fill="none" xmlns="http://www.w3.org/2000/svg">
<path d="M9.56125 7.92174C9.25542 7.28261 8.21083 6.88217 6.76542 6.32739C6.49042 6.22261 6.31708 6.17913 6.23958 5.94565C6.19571 5.83369 6.17866 5.71226 6.18992 5.59188C6.20117 5.47149 6.24039 5.35578 6.30417 5.25478C6.87708 4.6087 7.15833 3.64087 7.15833 2.3913C7.15833 0.73913 6.075 0 5 0C3.925 0 2.84167 0.73913 2.84167 2.3913C2.84167 3.64087 3.12292 4.6087 3.69583 5.25478C3.75961 5.35578 3.79883 5.47149 3.81008 5.59188C3.82134 5.71226 3.80429 5.83369 3.76042 5.94565C3.68292 6.17913 3.51042 6.22261 3.23458 6.32739C1.78917 6.88217 0.744583 7.28391 0.43875 7.92174C0.168808 8.50296 0.019308 9.13704 0 9.78261C0 9.84026 0.0219493 9.89556 0.0610194 9.93633C0.100089 9.9771 0.15308 10 0.208333 10H9.79167C9.84692 10 9.89991 9.9771 9.93898 9.93633C9.97805 9.89556 10 9.84026 10 9.78261C9.98069 9.13704 9.83119 8.50296 9.56125 7.92174Z" fill="white"/>
</svg>
