<svg width="17" height="17" viewBox="0 0 17 17" fill="none" xmlns="http://www.w3.org/2000/svg">
<path fill-rule="evenodd" clip-rule="evenodd" d="M5.88138 5.31771C5.88138 3.76892 6.20538 2.70028 6.76772 2.02432C7.31539 1.36598 8.15718 1 9.38971 1C10.6222 1 11.464 1.36598 12.0117 2.02432C12.574 2.70028 12.898 3.76892 12.898 5.31771C12.898 6.46305 12.751 7.15713 12.5872 7.5848C12.4291 7.99741 12.2481 8.18292 12.1198 8.30625C12.0107 8.41121 11.9595 8.5538 11.9671 8.69401C10.0068 9.04626 8.52307 10.7001 8.52307 12.6873C8.52307 14.9309 10.4147 16.7498 12.7481 16.7498C15.0815 16.7498 16.9731 14.9309 16.9731 12.6873C16.9731 10.5741 15.2952 8.83781 13.1505 8.64295C13.2763 8.46835 13.4061 8.24237 13.521 7.94254C13.7417 7.3663 13.898 6.54216 13.898 5.31771C13.898 3.65501 13.5542 2.3148 12.7805 1.38478C11.9921 0.437133 10.8297 0 9.38971 0C7.94969 0 6.78731 0.437133 5.99896 1.38478C5.22527 2.3148 4.88138 3.65501 4.88138 5.31771C4.88138 7.85381 5.68098 9.17294 6.3814 9.98111C6.52687 10.149 6.66686 10.2934 6.78158 10.4117L6.83212 10.4639C6.9463 10.5822 7.01649 10.6589 7.06022 10.7174C7.05402 10.7238 7.04698 10.7309 7.03899 10.7385C6.59478 11.1657 6.02445 11.4997 5.38394 11.8076C5.0649 11.961 4.73674 12.1041 4.40277 12.2496L4.38659 12.2566C4.06091 12.3985 3.72894 12.543 3.41109 12.6959C2.77065 13.0038 2.13759 13.3676 1.66497 13.8744C1.17623 14.3986 0.873047 15.0608 0.873047 15.9167C0.873047 16.1928 1.0969 16.4167 1.37305 16.4167C1.64919 16.4167 1.87305 16.1928 1.87305 15.9167C1.87305 15.3273 2.0709 14.9054 2.39636 14.5564C2.73793 14.1901 3.23222 13.8914 3.84438 13.5971C4.14523 13.4525 4.46255 13.3143 4.79434 13.1698L4.80206 13.1664C5.13354 13.022 5.47865 12.8716 5.81723 12.7088C6.49196 12.3845 7.17423 11.9958 7.7321 11.4594C7.8943 11.3034 8.0473 11.1005 8.08265 10.8383C8.11932 10.5664 8.01481 10.3443 7.91081 10.1887C7.81126 10.0398 7.67317 9.89531 7.55145 9.76926L7.4978 9.71383C7.38259 9.59491 7.26298 9.47144 7.13709 9.32618C6.5849 8.68904 5.88138 7.59932 5.88138 5.31771ZM15.9731 12.6873C15.9731 14.342 14.5665 15.7498 12.7481 15.7498C10.9296 15.7498 9.52307 14.342 9.52307 12.6873C9.52307 11.0325 10.9296 9.62475 12.7481 9.62475C14.5665 9.62475 15.9731 11.0325 15.9731 12.6873ZM13.0731 13.0001L9.82308 13.0001V12.0001L12.77 12.0001V9.87504H13.77V13H13.0731V13.0001Z" fill="#95989B"/>
</svg>
