<svg width="60" height="60" viewBox="0 0 60 60" fill="none" xmlns="http://www.w3.org/2000/svg">
<g clip-path="url(#clip0)">
<path d="M30 14.375C30.663 14.375 31.2989 14.1116 31.7678 13.6428C32.2366 13.1739 32.5 12.538 32.5 11.875V4.375C32.5 3.71196 32.2366 3.07607 31.7678 2.60723C31.2989 2.13839 30.663 1.875 30 1.875C29.337 1.875 28.7011 2.13839 28.2322 2.60723C27.7634 3.07607 27.5 3.71196 27.5 4.375V11.875C27.5 12.538 27.7634 13.1739 28.2322 13.6428C28.7011 14.1116 29.337 14.375 30 14.375Z" fill="#EA1C4E"/>
<path d="M45.9467 19.677C46.6097 19.6768 47.2455 19.4133 47.7142 18.9445L53.0167 13.642C53.2555 13.4114 53.446 13.1355 53.577 12.8305C53.708 12.5255 53.777 12.1974 53.7799 11.8655C53.7827 11.5335 53.7195 11.2043 53.5938 10.8971C53.4681 10.5898 53.2824 10.3107 53.0477 10.076C52.813 9.84125 52.5339 9.65562 52.2266 9.52992C51.9194 9.40421 51.5902 9.34096 51.2582 9.34384C50.9263 9.34673 50.5982 9.41569 50.2932 9.54672C49.9882 9.67774 49.7123 9.8682 49.4817 10.107L44.1792 15.4095C43.8297 15.7591 43.5917 16.2045 43.4953 16.6894C43.3989 17.1743 43.4484 17.6769 43.6375 18.1336C43.8267 18.5904 44.1471 18.9808 44.5581 19.2555C44.9691 19.5302 45.4524 19.6769 45.9467 19.677Z" fill="#EA1C4E"/>
<path d="M57.5 29.375H51.25C50.587 29.375 49.9511 29.6384 49.4822 30.1072C49.0134 30.5761 48.75 31.212 48.75 31.875C48.75 32.538 49.0134 33.1739 49.4822 33.6428C49.9511 34.1116 50.587 34.375 51.25 34.375H57.5C58.163 34.375 58.7989 34.1116 59.2678 33.6428C59.7366 33.1739 60 32.538 60 31.875C60 31.212 59.7366 30.5761 59.2678 30.1072C58.7989 29.6384 58.163 29.375 57.5 29.375Z" fill="#EA1C4E"/>
<path d="M12.2855 18.9455C12.5161 19.1843 12.792 19.3748 13.097 19.5058C13.402 19.6368 13.7301 19.7058 14.062 19.7087C14.394 19.7115 14.7232 19.6483 15.0304 19.5226C15.3377 19.3969 15.6168 19.2112 15.8515 18.9765C16.0862 18.7418 16.2719 18.4627 16.3976 18.1554C16.5233 17.8482 16.5865 17.519 16.5837 17.187C16.5808 16.8551 16.5118 16.527 16.3808 16.222C16.2498 15.917 16.0593 15.6411 15.8205 15.4105L10.518 10.108C10.0465 9.65263 9.41502 9.40065 8.75953 9.40634C8.10403 9.41204 7.477 9.67496 7.01348 10.1385C6.54996 10.602 6.28704 11.229 6.28134 11.8845C6.27565 12.54 6.52763 13.1715 6.98303 13.643L12.2855 18.9455Z" fill="#EA1C4E"/>
<path d="M11.25 31.875C11.25 31.212 10.9866 30.5761 10.5178 30.1072C10.0489 29.6384 9.41304 29.375 8.75 29.375H2.5C1.83696 29.375 1.20107 29.6384 0.732233 30.1072C0.263392 30.5761 0 31.212 0 31.875C0 32.538 0.263392 33.1739 0.732233 33.6428C1.20107 34.1116 1.83696 34.375 2.5 34.375H8.75C9.41304 34.375 10.0489 34.1116 10.5178 33.6428C10.9866 33.1739 11.25 32.538 11.25 31.875Z" fill="#EA1C4E"/>
<path d="M43.3173 43.125C43.4909 43.1256 43.6627 43.0901 43.8218 43.0207C43.981 42.9513 44.1239 42.8494 44.2415 42.7217C44.3591 42.594 44.4488 42.4432 44.5049 42.2789C44.561 42.1146 44.5822 41.9405 44.5673 41.7675L42.9998 23.6575C42.8238 22.1345 42.0941 20.7293 40.9496 19.7092C39.805 18.6891 38.3254 18.1253 36.7923 18.125H23.2073C21.6683 18.1263 20.184 18.6954 19.0386 19.7232C17.8932 20.751 17.1672 22.1652 16.9998 23.695L15.4423 41.7675C15.4272 41.9399 15.448 42.1136 15.5035 42.2776C15.559 42.4416 15.648 42.5922 15.7648 42.72C15.882 42.8478 16.0246 42.9498 16.1834 43.0196C16.3422 43.0893 16.5138 43.1252 16.6873 43.125H43.3173Z" fill="#EA1C4E"/>
<path d="M42.5 46.875H17.5C15.8424 46.875 14.2527 47.5335 13.0806 48.7056C11.9085 49.8777 11.25 51.4674 11.25 53.125V54.375C11.25 55.3696 11.6451 56.3234 12.3483 57.0266C13.0516 57.7299 14.0054 58.125 15 58.125H45C45.9946 58.125 46.9484 57.7299 47.6516 57.0266C48.3549 56.3234 48.75 55.3696 48.75 54.375V53.125C48.75 51.4674 48.0915 49.8777 46.9194 48.7056C45.7473 47.5335 44.1576 46.875 42.5 46.875Z" fill="#EA1C4E"/>
</g>
<defs>
<clipPath id="clip0">
<rect width="60" height="60" fill="white"/>
</clipPath>
</defs>
</svg>
