<svg width="30" height="30" viewBox="0 0 30 30" fill="none" xmlns="http://www.w3.org/2000/svg">
<path fill-rule="evenodd" clip-rule="evenodd" d="M10.2688 3.13086H12.7688V7.98086L10.2688 5.48086V3.13086ZM20.2688 15.4809V10.6309H15.4188L12.9188 8.13086H17.7688V3.13086H20.2688V8.13086C21.6438 8.13086 22.7688 9.25586 22.7688 10.6309V17.4809L22.5188 17.7309L20.2688 15.4809ZM5.41875 4.18082L3.65625 5.94332L7.76875 10.0558V17.5058L12.1438 21.8808V25.6308H18.3938V21.8808L18.9938 21.2808L24.5812 26.8683L26.3438 25.1058L5.41875 4.18082ZM15.8938 23.1306V20.8431L17.2313 19.5181L10.2688 12.5556V16.4431L14.6438 20.8431V23.1306H15.8938Z" fill="white"/>
</svg>
