<svg width="30" height="30" viewBox="0 0 30 30" fill="none" xmlns="http://www.w3.org/2000/svg">
<g clip-path="url(#clip0)">
<path d="M15 30C17.9667 30 20.8668 29.1203 23.3336 27.4721C25.8003 25.8238 27.7229 23.4811 28.8582 20.7403C29.9935 17.9994 30.2906 14.9834 29.7118 12.0737C29.133 9.16394 27.7044 6.49119 25.6066 4.3934C23.5088 2.29562 20.8361 0.867006 17.9264 0.288228C15.0166 -0.290551 12.0006 0.00649922 9.25975 1.14181C6.51886 2.27713 4.17618 4.19972 2.52796 6.66645C0.879735 9.13319 0 12.0333 0 15C0 18.9783 1.58035 22.7936 4.3934 25.6066C7.20644 28.4197 11.0218 30 15 30ZM15 1.87501C17.5959 1.87501 20.1335 2.64477 22.2919 4.08697C24.4503 5.52916 26.1325 7.57901 27.1259 9.97729C28.1193 12.3756 28.3792 15.0146 27.8728 17.5606C27.3664 20.1066 26.1163 22.4452 24.2808 24.2808C22.4452 26.1163 20.1066 27.3664 17.5606 27.8728C15.0146 28.3792 12.3756 28.1193 9.97728 27.1259C7.579 26.1325 5.52915 24.4503 4.08696 22.2919C2.64477 20.1335 1.875 17.5959 1.875 15C1.875 11.519 3.25781 8.18064 5.71922 5.71923C8.18064 3.25782 11.519 1.87501 15 1.87501Z" fill="white"/>
<path d="M15.0004 20.9437C18.283 20.9437 20.9441 18.2825 20.9441 14.9999C20.9441 11.7173 18.283 9.05615 15.0004 9.05615C11.7177 9.05615 9.05664 11.7173 9.05664 14.9999C9.05664 18.2825 11.7177 20.9437 15.0004 20.9437Z" fill="white"/>
</g>
<defs>
<clipPath id="clip0">
<rect width="30" height="30" fill="white"/>
</clipPath>
</defs>
</svg>
