<svg width="22" height="22" viewBox="0 0 22 22" fill="none" xmlns="http://www.w3.org/2000/svg">
<path fill-rule="evenodd" clip-rule="evenodd" d="M17.8775 10.9997C17.8775 11.3113 17.85 11.6047 17.8134 11.898L19.7475 13.4105C19.9217 13.548 19.9675 13.7955 19.8575 13.9972L18.0242 17.1688C17.9417 17.3155 17.7859 17.398 17.63 17.398C17.575 17.398 17.52 17.3888 17.465 17.3705L15.1825 16.4538C14.7059 16.8113 14.1925 17.123 13.6334 17.3522L13.285 19.7813C13.2575 20.0013 13.065 20.1663 12.8359 20.1663H9.1692C8.94004 20.1663 8.74754 20.0013 8.72004 19.7813L8.3717 17.3522C7.81254 17.123 7.2992 16.8205 6.82254 16.4538L4.54004 17.3705C4.4942 17.3888 4.4392 17.398 4.3842 17.398C4.2192 17.398 4.06337 17.3155 3.98087 17.1688L2.14754 13.9972C2.03754 13.7955 2.08337 13.548 2.25754 13.4105L4.1917 11.898C4.15504 11.6047 4.12754 11.3022 4.12754 10.9997C4.12754 10.6972 4.15504 10.3947 4.1917 10.1013L2.25754 8.58884C2.08337 8.45134 2.02837 8.20384 2.14754 8.00217L3.98087 4.83051C4.06337 4.68384 4.2192 4.60134 4.37504 4.60134C4.43004 4.60134 4.48504 4.61051 4.54004 4.62884L6.82254 5.54551C7.2992 5.18801 7.81254 4.87634 8.3717 4.64717L8.72004 2.21801C8.74754 1.99801 8.94004 1.83301 9.1692 1.83301H12.8359C13.065 1.83301 13.2575 1.99801 13.285 2.21801L13.6334 4.64717C14.1925 4.87634 14.7059 5.17884 15.1825 5.54551L17.465 4.62884C17.5109 4.61051 17.5659 4.60134 17.6209 4.60134C17.7859 4.60134 17.9417 4.68384 18.0242 4.83051L19.8575 8.00217C19.9675 8.20384 19.9217 8.45134 19.7475 8.58884L17.8134 10.1013C17.85 10.3947 17.8775 10.688 17.8775 10.9997ZM16.0442 10.9997C16.0442 10.8072 16.035 10.6147 15.9984 10.3305L15.87 9.29467L16.6859 8.65301L17.6667 7.87384L17.025 6.76467L15.8609 7.23217L14.8892 7.62634L14.055 6.98467C13.6884 6.70967 13.3217 6.49884 12.9275 6.33384L11.9559 5.93967L11.8092 4.90384L11.635 3.66634H10.3609L10.1775 4.90384L10.0309 5.93967L9.05921 6.33384C8.68338 6.48967 8.30755 6.70967 7.91338 7.00301L7.08838 7.62634L6.13505 7.24134L4.97088 6.77384L4.32921 7.88301L5.31921 8.65301L6.13505 9.29467L6.00671 10.3305C5.97921 10.6055 5.96088 10.8163 5.96088 10.9997C5.96088 11.183 5.97921 11.3938 6.00671 11.678L6.13505 12.7138L5.31921 13.3555L4.32921 14.1255L4.97088 15.2347L6.13505 14.7672L7.10671 14.373L7.94088 15.0147C8.30755 15.2897 8.67421 15.5005 9.06838 15.6655L10.04 16.0597L10.1867 17.0955L10.3609 18.333H11.6442L11.8275 17.0955L11.9742 16.0597L12.9459 15.6655C13.3217 15.5097 13.6975 15.2897 14.0917 14.9963L14.9167 14.373L15.87 14.758L17.0342 15.2255L17.6759 14.1163L16.6859 13.3463L15.87 12.7047L15.9984 11.6688C16.0259 11.3938 16.0442 11.1922 16.0442 10.9997ZM11.0025 7.33301C8.97669 7.33301 7.33586 8.97384 7.33586 10.9997C7.33586 13.0255 8.97669 14.6663 11.0025 14.6663C13.0284 14.6663 14.6692 13.0255 14.6692 10.9997C14.6692 8.97384 13.0284 7.33301 11.0025 7.33301ZM9.16919 10.9997C9.16919 12.008 9.99419 12.833 11.0025 12.833C12.0109 12.833 12.8359 12.008 12.8359 10.9997C12.8359 9.99134 12.0109 9.16634 11.0025 9.16634C9.99419 9.16634 9.16919 9.99134 9.16919 10.9997Z" fill="#95989B"/>
</svg>
