<svg width="24" height="24" viewBox="0 0 24 24" fill="none" xmlns="http://www.w3.org/2000/svg">
<path fill-rule="evenodd" clip-rule="evenodd" d="M9 16.25C8.25832 16.25 7.5333 16.0301 6.91661 15.618C6.29993 15.206 5.81928 14.6203 5.53545 13.9351C5.25162 13.2498 5.17736 12.4958 5.32206 11.7684C5.46675 11.041 5.8239 10.3728 6.34835 9.84835C6.8728 9.3239 7.54098 8.96675 8.26841 8.82206C8.99584 8.67736 9.74984 8.75163 10.4351 9.03545C11.1203 9.31928 11.706 9.79993 12.118 10.4166C12.5301 11.0333 12.75 11.7583 12.75 12.5C12.75 13.4946 12.3549 14.4484 11.6517 15.1517C10.9484 15.8549 9.99456 16.25 9 16.25V16.25Z" stroke="white" stroke-width="1.5" stroke-linecap="round" stroke-linejoin="round"/>
<path d="M0.750977 12.5H2.25098" stroke="white" stroke-width="1.5" stroke-linecap="round" stroke-linejoin="round"/>
<path d="M15.751 12.5H23.251" stroke="white" stroke-width="1.5" stroke-linecap="round" stroke-linejoin="round"/>
</svg>
