<svg width="30" height="30" viewBox="0 0 30 30" fill="none" xmlns="http://www.w3.org/2000/svg">
<path d="M18.4613 16.7975C18.4613 13.4913 21.0459 10.8079 24.2305 10.8079C25.2113 10.8079 26.1228 11.0835 26.9305 11.5387L29.5151 8.19648C28.9613 7.76523 23.3767 3.02148 14.9998 3.02148C6.62284 3.02148 1.03822 7.76523 0.484375 8.19648L14.9998 26.9798L19.869 20.6788C19.0036 19.6366 18.4613 18.2829 18.4613 16.7975Z" fill="white" fill-opacity="0.54"/>
<path d="M24.2308 12.6035C22.0039 12.6035 20.1924 14.4842 20.1924 16.7962H22.2116C22.2116 15.6342 23.1116 14.6999 24.2308 14.6999C25.3501 14.6999 26.2501 15.6342 26.2501 16.7962C26.2501 17.3712 26.0193 17.8983 25.6616 18.2816L24.4039 19.5994C23.677 20.354 23.227 21.4082 23.227 22.5582V23.0853H25.2462C25.2462 21.516 25.6962 20.8811 26.4347 20.1264L27.3347 19.1681C27.9116 18.5691 28.2808 17.7306 28.2808 16.8082C28.2693 14.4842 26.4578 12.6035 24.2308 12.6035Z" fill="white" fill-opacity="0.54"/>
<path d="M23.1348 26.9186H25.3271V24.6426H23.1348V26.9186Z" fill="white" fill-opacity="0.54"/>
</svg>
