<svg width="24" height="24" viewBox="0 0 24 24" fill="none" xmlns="http://www.w3.org/2000/svg">
<g id="sim_card_24px">
<path id="icon/hardware/sim_card_24px" fill-rule="evenodd" clip-rule="evenodd" d="M22 10L22 18C22 19.1 21.1 20 20 20L4 20C2.9 20 2 19.1 2 18L2 6C2 4.9 2.9 4 4 4L16 4L22 10ZM4 18L20 18L20 10.83L15.17 6L4 6L4 18ZM7 7L7 9L5 9L5 7L7 7ZM7 17L7 15L5 15L5 17L7 17ZM13 7L13 9L9 9L9 7L13 7ZM9 13L9 11L5 11L5 13L9 13ZM13 11L13 13L11 13L11 11L13 11ZM13 17L13 15L9 15L9 17L13 17Z" fill="white"/>
</g>
</svg>
