<svg width="24" height="24" viewBox="0 0 24 24" fill="none" xmlns="http://www.w3.org/2000/svg">
<path d="M18.75 18.75H5.25C4.45435 18.75 3.69129 19.0661 3.12868 19.6287C2.56607 20.1913 2.25 20.9544 2.25 21.75C2.25 22.1478 2.40804 22.5294 2.68934 22.8107C2.97064 23.092 3.35218 23.25 3.75 23.25H20.25C20.6478 23.25 21.0294 23.092 21.3107 22.8107C21.592 22.5294 21.75 22.1478 21.75 21.75C21.75 20.9544 21.4339 20.1913 20.8713 19.6287C20.3087 19.0661 19.5456 18.75 18.75 18.75Z" stroke="white" stroke-width="1.5" stroke-linecap="round" stroke-linejoin="round"/>
<path d="M14.565 5.25H9.435C8.69661 5.24992 7.98412 5.52216 7.43393 6.01461C6.88373 6.50706 6.53447 7.18512 6.453 7.919L5.25 18.75H18.75L17.55 7.919C17.4685 7.1846 17.1188 6.50613 16.568 6.01361C16.0171 5.52109 15.3039 5.24919 14.565 5.25V5.25Z" stroke="white" stroke-width="1.5" stroke-linecap="round" stroke-linejoin="round"/>
<path d="M12 15.75C13.2426 15.75 14.25 14.7426 14.25 13.5C14.25 12.2574 13.2426 11.25 12 11.25C10.7574 11.25 9.75 12.2574 9.75 13.5C9.75 14.7426 10.7574 15.75 12 15.75Z" stroke="white" stroke-width="1.5" stroke-linecap="round" stroke-linejoin="round"/>
<path d="M12 15.75V18.75" stroke="white" stroke-width="1.5" stroke-linecap="round" stroke-linejoin="round"/>
<path d="M12 2.25V0.75" stroke="white" stroke-width="1.5" stroke-linecap="round" stroke-linejoin="round"/>
<path d="M2.25 9.75H0.75" stroke="white" stroke-width="1.5" stroke-linecap="round" stroke-linejoin="round"/>
<path d="M2.25 2.25L3.75 3.75" stroke="white" stroke-width="1.5" stroke-linecap="round" stroke-linejoin="round"/>
<path d="M21.75 9.75H23.25" stroke="white" stroke-width="1.5" stroke-linecap="round" stroke-linejoin="round"/>
<path d="M21.75 2.25L20.25 3.75" stroke="white" stroke-width="1.5" stroke-linecap="round" stroke-linejoin="round"/>
</svg>
