<svg width="24" height="24" viewBox="0 0 24 24" fill="none" xmlns="http://www.w3.org/2000/svg">
<g clip-path="url(#clip0)">
<path d="M20.8553 7.35676C20.599 5.94984 20.0111 4.62424 19.1403 3.48982C18.2696 2.35539 17.1411 1.44479 15.8482 0.833475C14.5554 0.222156 13.1355 -0.0722828 11.7062 -0.0254443C10.2769 0.0213942 8.87933 0.408161 7.6293 1.10281C6.37926 1.79746 5.31276 2.77999 4.51816 3.96899C3.72355 5.15799 3.22373 6.51922 3.06009 7.93991C2.89646 9.36059 3.07372 10.7998 3.57721 12.1383C4.08069 13.4768 4.89589 14.6761 5.95526 15.6368C6.59084 16.2008 7.41357 16.508 8.26326 16.4988H15.7313C16.5813 16.5075 17.4043 16.1999 18.0403 15.6358C19.1765 14.6104 20.0317 13.3114 20.5244 11.8623C21.0171 10.4133 21.131 8.86226 20.8553 7.35676ZM12.0003 13.5998C11.753 13.5998 11.5114 13.5264 11.3058 13.3891C11.1002 13.2517 10.94 13.0565 10.8454 12.8281C10.7508 12.5997 10.726 12.3484 10.7743 12.1059C10.8225 11.8634 10.9416 11.6407 11.1164 11.4659C11.2912 11.2911 11.5139 11.172 11.7564 11.1238C11.9989 11.0755 12.2502 11.1003 12.4786 11.1949C12.707 11.2895 12.9022 11.4497 13.0396 11.6553C13.177 11.8609 13.2503 12.1025 13.2503 12.3498C13.2503 12.6813 13.1186 12.9992 12.8841 13.2336C12.6497 13.4681 12.3318 13.5998 12.0003 13.5998ZM15.5003 9.85276C15.3752 10.0075 15.1939 10.1063 14.9961 10.1275C14.7983 10.1486 14.6002 10.0905 14.4453 9.96576C13.755 9.40196 12.891 9.094 11.9998 9.094C11.1085 9.094 10.2446 9.40196 9.55426 9.96576C9.47852 10.034 9.38966 10.0862 9.29309 10.1189C9.19653 10.1517 9.09429 10.1644 8.99264 10.1564C8.89098 10.1483 8.79204 10.1196 8.70187 10.0719C8.61169 10.0243 8.53217 9.95882 8.46817 9.87944C8.40417 9.80005 8.35703 9.70844 8.32963 9.61021C8.30224 9.51199 8.29516 9.40921 8.30883 9.30815C8.32251 9.2071 8.35664 9.10989 8.40916 9.02248C8.46167 8.93507 8.53146 8.85928 8.61426 8.79976C9.57038 8.01858 10.7671 7.59186 12.0018 7.59186C13.2364 7.59186 14.4331 8.01858 15.3893 8.79976C15.5433 8.9247 15.6414 9.1056 15.6622 9.30281C15.683 9.50002 15.6248 9.69743 15.5003 9.85176V9.85276ZM17.5853 6.83976C17.5234 6.91652 17.4471 6.98032 17.3605 7.02751C17.274 7.0747 17.179 7.10434 17.081 7.11475C16.983 7.12515 16.8839 7.11611 16.7894 7.08814C16.6949 7.06017 16.6068 7.01383 16.5303 6.95176C15.2517 5.90785 13.6518 5.33766 12.0013 5.33766C10.3507 5.33766 8.75079 5.90785 7.47226 6.95176C7.3171 7.0724 7.12078 7.12732 6.92554 7.10469C6.7303 7.08206 6.55175 6.98369 6.4283 6.83075C6.30485 6.67781 6.24637 6.48253 6.26543 6.28691C6.2845 6.09129 6.3796 5.91097 6.53026 5.78476C8.07468 4.52364 10.0074 3.83481 12.0013 3.83481C13.9952 3.83481 15.9278 4.52364 17.4723 5.78476C17.549 5.84659 17.6128 5.92293 17.66 6.00943C17.7072 6.09592 17.7369 6.19087 17.7474 6.28884C17.7579 6.38682 17.7489 6.4859 17.7211 6.58043C17.6933 6.67496 17.6471 6.76308 17.5853 6.83976Z" fill="white"/>
<path d="M15.001 17.499H9.00098C8.72483 17.499 8.50098 17.7229 8.50098 17.999V19.499C8.50098 19.7752 8.72483 19.999 9.00098 19.999H15.001C15.2771 19.999 15.501 19.7752 15.501 19.499V17.999C15.501 17.7229 15.2771 17.499 15.001 17.499Z" fill="white"/>
<path d="M14.2223 21H9.78127C9.68479 21 9.59036 21.0279 9.50939 21.0804C9.42841 21.1328 9.36434 21.2076 9.32491 21.2957C9.28548 21.3837 9.27237 21.4813 9.28716 21.5767C9.30195 21.672 9.34402 21.761 9.40827 21.833C9.80058 22.2668 10.2963 22.5943 10.8493 22.785C10.8937 22.8006 10.9322 22.8298 10.9592 22.8683C10.9863 22.9069 11.0007 22.9529 11.0003 23C11.0003 23.2652 11.1056 23.5196 11.2932 23.7071C11.4807 23.8946 11.7351 24 12.0003 24C12.2655 24 12.5198 23.8946 12.7074 23.7071C12.8949 23.5196 13.0003 23.2652 13.0003 23C13.0003 22.9527 13.0151 22.9066 13.0425 22.8681C13.0699 22.8296 13.1086 22.8006 13.1533 22.785C13.7064 22.5946 14.2021 22.267 14.5943 21.833C14.6585 21.7611 14.7005 21.6722 14.7153 21.5769C14.7302 21.4816 14.7172 21.3841 14.6778 21.2961C14.6385 21.2081 14.5746 21.1333 14.4938 21.0808C14.413 21.0282 14.3187 21.0002 14.2223 21Z" fill="white"/>
</g>
<defs>
<clipPath id="clip0">
<rect width="24" height="24" fill="white"/>
</clipPath>
</defs>
</svg>
