<svg width="24" height="24" viewBox="0 0 24 24" fill="none" xmlns="http://www.w3.org/2000/svg">
<path d="M18.75 9.75001C18.7499 8.92503 18.5231 8.11594 18.0942 7.41118C17.6654 6.70642 17.0511 6.13311 16.3184 5.75391C15.5858 5.37471 14.7629 5.20422 13.9399 5.26106C13.1169 5.31791 12.3254 5.59991 11.6518 6.07624C10.9782 6.55257 10.4485 7.20489 10.1207 7.96192C9.79279 8.71895 9.67933 9.55154 9.79268 10.3687C9.90604 11.1858 10.2419 11.9561 10.7634 12.5953C11.285 13.2345 11.9722 13.718 12.75 13.993V15.75H15.75V13.993C16.6274 13.6828 17.3871 13.1082 17.9243 12.3483C18.4616 11.5884 18.7501 10.6806 18.75 9.75001V9.75001Z" stroke="white" stroke-width="1.5" stroke-linecap="round" stroke-linejoin="round"/>
<path d="M14.25 15.75V17.25" stroke="white" stroke-width="1.5" stroke-linecap="round" stroke-linejoin="round"/>
<path d="M5.25001 12.75V6.862C5.24923 6.59912 5.31755 6.34065 5.44813 6.11249C5.57871 5.88433 5.76695 5.69449 5.99401 5.562L14.25 0.75L22.506 5.566C22.7331 5.69849 22.9213 5.88833 23.0519 6.11649C23.1825 6.34465 23.2508 6.60312 23.25 6.866V18.75C23.25 19.1478 23.092 19.5294 22.8107 19.8107C22.5294 20.092 22.1478 20.25 21.75 20.25H12.313" stroke="white" stroke-width="1.5" stroke-linecap="round" stroke-linejoin="round"/>
<path d="M2.43848 20.654C3.18447 19.9082 4.19613 19.4893 5.25098 19.4893C6.30583 19.4893 7.31749 19.9082 8.06348 20.654" stroke="white" stroke-width="1.5" stroke-linecap="round" stroke-linejoin="round"/>
<path d="M0.75 17.989C1.94348 16.7955 3.56218 16.1251 5.25 16.1251C6.93782 16.1251 8.55652 16.7955 9.75 17.989" stroke="white" stroke-width="1.5" stroke-linecap="round" stroke-linejoin="round"/>
<path d="M5.25 22.5C5.32417 22.5 5.39667 22.522 5.45834 22.5632C5.52001 22.6044 5.56807 22.663 5.59645 22.7315C5.62484 22.8 5.63226 22.8754 5.61779 22.9482C5.60333 23.0209 5.56761 23.0877 5.51516 23.1402C5.46272 23.1926 5.3959 23.2283 5.32316 23.2428C5.25042 23.2573 5.17502 23.2498 5.10649 23.2215C5.03797 23.1931 4.9794 23.145 4.9382 23.0833C4.89699 23.0217 4.875 22.9492 4.875 22.875C4.875 22.7755 4.91451 22.6802 4.98484 22.6098C5.05516 22.5395 5.15054 22.5 5.25 22.5Z" stroke="white" stroke-width="1.5" stroke-linecap="round" stroke-linejoin="round"/>
</svg>
