<svg width="24" height="24" viewBox="0 0 24 24" fill="none" xmlns="http://www.w3.org/2000/svg">
<path d="M12 23.25V21.75" stroke="white" stroke-width="1.5" stroke-linecap="round" stroke-linejoin="round"/>
<path d="M15 18.75C15 19.5456 14.6839 20.3087 14.1213 20.8713C13.5587 21.4339 12.7956 21.75 12 21.75C11.2044 21.75 10.4413 21.4339 9.87868 20.8713C9.31607 20.3087 9 19.5456 9 18.75V16.5H15V18.75Z" stroke="white" stroke-width="1.5" stroke-linecap="round" stroke-linejoin="round"/>
<path d="M15 16.6872C16.7916 15.9878 18.2825 14.6845 19.2151 13.0025C20.1477 11.3206 20.4634 9.36562 20.1076 7.4756C19.7518 5.58558 18.7468 3.87926 17.2664 2.65156C15.786 1.42387 13.9232 0.751953 12 0.751953C10.0768 0.751953 8.214 1.42387 6.73361 2.65156C5.25322 3.87926 4.24826 5.58558 3.89244 7.4756C3.53662 9.36562 3.8523 11.3206 4.78491 13.0025C5.71752 14.6845 7.20845 15.9878 9.00001 16.6872" stroke="white" stroke-width="1.5" stroke-linecap="round" stroke-linejoin="round"/>
<path d="M8.81836 9.56804C9.23622 9.15017 9.7323 8.8187 10.2783 8.59255C10.8242 8.3664 11.4094 8.25 12.0004 8.25C12.5913 8.25 13.1765 8.3664 13.7224 8.59255C14.2684 8.8187 14.7645 9.15017 15.1824 9.56804" stroke="white" stroke-width="1.5" stroke-linecap="round" stroke-linejoin="round"/>
<path d="M12 11.625C12.0742 11.625 12.1467 11.647 12.2083 11.6882C12.27 11.7294 12.3181 11.788 12.3465 11.8565C12.3748 11.925 12.3823 12.0004 12.3678 12.0732C12.3533 12.1459 12.3176 12.2127 12.2652 12.2652C12.2127 12.3176 12.1459 12.3533 12.0732 12.3678C12.0004 12.3823 11.925 12.3748 11.8565 12.3465C11.788 12.3181 11.7294 12.27 11.6882 12.2083C11.647 12.1467 11.625 12.0742 11.625 12C11.625 11.9005 11.6645 11.8052 11.7348 11.7348C11.8052 11.6645 11.9005 11.625 12 11.625" stroke="white" stroke-width="1.5" stroke-linecap="round" stroke-linejoin="round"/>
<path d="M7.75684 7.00674C8.314 6.44948 8.97548 6.00744 9.7035 5.70584C10.4315 5.40425 11.2118 5.24902 11.9998 5.24902C12.7879 5.24902 13.5682 5.40425 14.2962 5.70584C15.0242 6.00744 15.6857 6.44948 16.2428 7.00674" stroke="white" stroke-width="1.5" stroke-linecap="round" stroke-linejoin="round"/>
</svg>
