<svg width="80" height="80" viewBox="0 0 80 80" fill="none" xmlns="http://www.w3.org/2000/svg">
<g clip-path="url(#clip0)">
<path d="M33.0634 32.2468C32.3267 31.5056 31.7394 30.6297 31.3334 29.6668C31.2693 29.5165 31.1625 29.3883 31.0262 29.2983C30.8899 29.2082 30.7301 29.1602 30.5667 29.1602H28.3334C28.2234 29.1602 28.1145 29.1819 28.0129 29.2242C27.9114 29.2665 27.8192 29.3285 27.7417 29.4066C27.6643 29.4847 27.603 29.5773 27.5615 29.6792C27.5201 29.7811 27.4991 29.8902 27.5 30.0002V50.8335C27.5 51.0545 27.5878 51.2665 27.7441 51.4228C27.9004 51.579 28.1123 51.6668 28.3334 51.6668H49.1667C49.3877 51.6668 49.5997 51.579 49.756 51.4228C49.9122 51.2665 50 51.0545 50 50.8335V42.2535C50.0001 42.0675 49.9377 41.8869 49.8229 41.7406C49.708 41.5944 49.5474 41.4909 49.3667 41.4468C43.1926 39.9302 37.5533 36.7479 33.0634 32.2468Z" fill="white"/>
<path d="M21.6667 51.667C21.8877 51.667 22.0996 51.5792 22.2559 51.4229C22.4122 51.2666 22.5 51.0547 22.5 50.8337V30.0003C22.5 29.7793 22.4122 29.5673 22.2559 29.4111C22.0996 29.2548 21.8877 29.167 21.6667 29.167H5C3.67392 29.167 2.40215 29.6938 1.46447 30.6315C0.526784 31.5691 0 32.8409 0 34.167L0 50.8337C0 51.0547 0.0877974 51.2666 0.244078 51.4229C0.400358 51.5792 0.61232 51.667 0.833333 51.667H21.6667Z" fill="white"/>
<path d="M28.3333 56.667C28.1123 56.667 27.9004 56.7548 27.7441 56.9111C27.5878 57.0673 27.5 57.2793 27.5 57.5003V78.3337C27.5 78.5547 27.5878 78.7666 27.7441 78.9229C27.9004 79.0792 28.1123 79.167 28.3333 79.167H45C46.3261 79.167 47.5979 78.6402 48.5355 77.7025C49.4732 76.7648 50 75.4931 50 74.167V57.5003C50 57.2793 49.9122 57.0673 49.7559 56.9111C49.5996 56.7548 49.3877 56.667 49.1667 56.667H28.3333Z" fill="white"/>
<path d="M22.5 57.5003C22.5 57.2793 22.4122 57.0673 22.2559 56.9111C22.0996 56.7548 21.8877 56.667 21.6667 56.667H0.833333C0.61232 56.667 0.400358 56.7548 0.244078 56.9111C0.0877974 57.0673 0 57.2793 0 57.5003L0 74.167C0 75.4931 0.526784 76.7648 1.46447 77.7025C2.40215 78.6402 3.67392 79.167 5 79.167H21.6667C21.8877 79.167 22.0996 79.0792 22.2559 78.9229C22.4122 78.7666 22.5 78.5547 22.5 78.3337V57.5003Z" fill="white"/>
<path d="M57.8103 9.44629C59.1237 9.44877 60.4247 9.19181 61.6385 8.69014C62.8524 8.18847 63.9552 7.45198 64.8836 6.52295C65.202 6.21546 65.4559 5.84765 65.6306 5.44097C65.8053 5.03429 65.8973 4.59689 65.9011 4.15429C65.905 3.71169 65.8206 3.27276 65.653 2.86311C65.4854 2.45345 65.2379 2.08128 64.9249 1.7683C64.6119 1.45533 64.2398 1.20782 63.8301 1.04021C63.4205 0.872611 62.9815 0.788272 62.5389 0.792118C62.0963 0.795964 61.6589 0.887918 61.2523 1.06261C60.8456 1.23731 60.4778 1.49125 60.1703 1.80962C59.8607 2.11954 59.4931 2.3654 59.0884 2.53315C58.6838 2.7009 58.25 2.78724 57.8119 2.78724C57.3739 2.78724 56.9401 2.7009 56.5355 2.53315C56.1308 2.3654 55.7632 2.11954 55.4536 1.80962C55.1461 1.49125 54.7783 1.23731 54.3716 1.06261C53.965 0.887918 53.5275 0.795964 53.0849 0.792118C52.6424 0.788272 52.2034 0.872611 51.7938 1.04021C51.3841 1.20782 51.0119 1.45533 50.699 1.7683C50.386 2.08128 50.1385 2.45345 49.9709 2.86311C49.8033 3.27276 49.7189 3.71169 49.7228 4.15429C49.7266 4.59689 49.8186 5.03429 49.9933 5.44097C50.168 5.84765 50.4219 6.21546 50.7403 6.52295C51.6681 7.45188 52.7703 8.18833 53.9836 8.69001C55.1969 9.19169 56.4974 9.4487 57.8103 9.44629Z" fill="white"/>
<path d="M57.8094 22.7837C60.4369 22.7904 63.0397 22.2762 65.4673 21.271C67.8949 20.2657 70.0992 18.7893 71.9528 16.927C72.56 16.2983 72.8959 15.4563 72.8883 14.5823C72.8808 13.7083 72.5302 12.8723 71.9122 12.2543C71.2941 11.6362 70.4581 11.2857 69.5841 11.2781C68.7101 11.2705 67.8681 11.6065 67.2394 12.2137C66.0013 13.4519 64.5314 14.434 62.9137 15.1042C61.296 15.7743 59.5621 16.1192 57.8111 16.1192C56.0601 16.1192 54.3262 15.7743 52.7085 15.1042C51.0908 14.434 49.6209 13.4519 48.3828 12.2137C48.0733 11.904 47.7058 11.6583 47.3014 11.4906C46.897 11.3229 46.4634 11.2365 46.0256 11.2363C45.5878 11.2362 45.1542 11.3223 44.7497 11.4897C44.3451 11.6571 43.9775 11.9025 43.6678 12.212C43.3581 12.5215 43.1124 12.8889 42.9447 13.2934C42.777 13.6978 42.6906 14.1313 42.6904 14.5692C42.6903 15.007 42.7764 15.4406 42.9438 15.8451C43.1112 16.2497 43.3566 16.6173 43.6661 16.927C45.5188 18.7905 47.7229 20.2677 50.1507 21.273C52.5785 22.2784 55.1817 22.7918 57.8094 22.7837Z" fill="white"/>
<path d="M57.8101 36.1035C61.7492 36.1101 65.6509 35.3388 69.2912 33.8338C72.9316 32.3288 76.2389 30.1198 79.0234 27.3335C79.3418 27.026 79.5957 26.6582 79.7704 26.2515C79.9451 25.8448 80.037 25.4074 80.0409 24.9648C80.0447 24.5222 79.9604 24.0833 79.7928 23.6737C79.6252 23.264 79.3777 22.8918 79.0647 22.5788C78.7517 22.2659 78.3796 22.0184 77.9699 21.8508C77.5602 21.6832 77.1213 21.5988 76.6787 21.6027C76.2361 21.6065 75.7987 21.6985 75.392 21.8732C74.9854 22.0479 74.6175 22.3018 74.3101 22.6202C69.9307 26.99 63.9967 29.4442 57.8101 29.4442C51.6234 29.4442 45.6894 26.99 41.3101 22.6202C41.0026 22.3018 40.6348 22.0479 40.2281 21.8732C39.8214 21.6985 39.384 21.6065 38.9414 21.6027C38.4988 21.5988 38.0599 21.6832 37.6502 21.8508C37.2406 22.0184 36.8684 22.2659 36.5554 22.5788C36.2424 22.8918 35.9949 23.264 35.8273 23.6737C35.6597 24.0833 35.5754 24.5222 35.5792 24.9648C35.5831 25.4074 35.675 25.8448 35.8497 26.2515C36.0244 26.6582 36.2784 27.026 36.5967 27.3335C39.3813 30.1198 42.6886 32.3288 46.3289 33.8338C49.9692 35.3388 53.8709 36.1101 57.8101 36.1035Z" fill="white"/>
</g>
<defs>
<clipPath id="clip0">
<rect width="80" height="80" fill="white"/>
</clipPath>
</defs>
</svg>
