<svg width="24" height="24" viewBox="0 0 24 24" fill="none" xmlns="http://www.w3.org/2000/svg">
<g clip-path="url(#clip0)">
<path d="M22.4 0H1.6C1.17565 0 0.768687 0.168571 0.468629 0.468629C0.168571 0.768687 0 1.17565 0 1.6L0 22.405C0.00132338 22.8285 0.170478 23.2342 0.470393 23.5331C0.770308 23.8321 1.17652 24 1.6 24H22.4C22.8243 24 23.2313 23.8314 23.5314 23.5314C23.8314 23.2313 24 22.8243 24 22.4V1.6C24 1.17565 23.8314 0.768687 23.5314 0.468629C23.2313 0.168571 22.8243 0 22.4 0V0ZM12 20.215C10.3752 20.2152 8.7868 19.7336 7.43572 18.831C6.08464 17.9285 5.03154 16.6455 4.40962 15.1444C3.78769 13.6434 3.62486 11.9916 3.94173 10.3979C4.25859 8.80433 5.04092 7.34046 6.18976 6.19147C7.33861 5.04248 8.80238 4.25998 10.396 3.94292C11.9895 3.62586 13.6414 3.78849 15.1425 4.41023C16.6437 5.03198 17.9267 6.08492 18.8295 7.43589C19.7322 8.78686 20.214 10.3752 20.214 12C20.2143 13.0788 20.002 14.1471 19.5893 15.1438C19.1766 16.1406 18.5716 17.0462 17.8088 17.8091C17.046 18.572 16.1404 19.1771 15.1437 19.5899C14.1471 20.0027 13.0788 20.2151 12 20.215Z" fill="white"/>
<path d="M9.26172 8.51172C9.06281 8.51172 8.87204 8.59074 8.73139 8.73139C8.59074 8.87204 8.51172 9.06281 8.51172 9.26172V14.7387C8.51172 14.9376 8.59074 15.1284 8.73139 15.269C8.87204 15.4097 9.06281 15.4887 9.26172 15.4887C9.46063 15.4887 9.6514 15.4097 9.79205 15.269C9.9327 15.1284 10.0117 14.9376 10.0117 14.7387V9.26172C10.0117 9.06281 9.9327 8.87204 9.79205 8.73139C9.6514 8.59074 9.46063 8.51172 9.26172 8.51172Z" fill="white"/>
<path d="M14.7383 8.51172C14.5394 8.51172 14.3486 8.59074 14.208 8.73139C14.0673 8.87204 13.9883 9.06281 13.9883 9.26172V14.7387C13.9883 14.9376 14.0673 15.1284 14.208 15.269C14.3486 15.4097 14.5394 15.4887 14.7383 15.4887C14.9372 15.4887 15.128 15.4097 15.2686 15.269C15.4093 15.1284 15.4883 14.9376 15.4883 14.7387V9.26172C15.4883 9.06281 15.4093 8.87204 15.2686 8.73139C15.128 8.59074 14.9372 8.51172 14.7383 8.51172Z" fill="white"/>
</g>
<defs>
<clipPath id="clip0">
<rect width="24" height="24" fill="white"/>
</clipPath>
</defs>
</svg>
