<svg width="30" height="30" viewBox="0 0 30 30" fill="none" xmlns="http://www.w3.org/2000/svg">
<path fill-rule="evenodd" clip-rule="evenodd" d="M22.9697 13.125H7.03223C5.41738 13.1207 3.8699 12.4773 2.72803 11.3354C1.58616 10.1936 0.942766 8.64609 0.938477 7.03125V7.03125C0.943094 5.41651 1.58659 3.86922 2.7284 2.72742C3.8702 1.58562 5.41748 0.942117 7.03223 0.9375H22.9697C24.5844 0.942445 26.1315 1.58605 27.2732 2.72778C28.4149 3.86951 29.0585 5.41661 29.0635 7.03125V7.03125C29.0589 8.64599 28.4154 10.1933 27.2736 11.3351C26.1318 12.4769 24.5845 13.1204 22.9697 13.125V13.125Z" stroke="white" stroke-width="1.5" stroke-linecap="round" stroke-linejoin="round"/>
<path fill-rule="evenodd" clip-rule="evenodd" d="M22.9697 29.0625H7.03223C5.41738 29.0582 3.8699 28.4148 2.72803 27.2729C1.58616 26.1311 0.942766 24.5836 0.938477 22.9688V22.9688C0.943094 21.354 1.58659 19.8067 2.7284 18.6649C3.8702 17.5231 5.41748 16.8796 7.03223 16.875H22.9697C24.5844 16.8799 26.1315 17.5236 27.2732 18.6653C28.4149 19.807 29.0585 21.3541 29.0635 22.9688V22.9688C29.0589 24.5835 28.4154 26.1308 27.2736 27.2726C26.1318 28.4144 24.5845 29.0579 22.9697 29.0625V29.0625Z" stroke="white" stroke-width="1.5" stroke-linecap="round" stroke-linejoin="round"/>
<path d="M7.03223 9.375C8.32664 9.375 9.37598 8.32567 9.37598 7.03125C9.37598 5.73683 8.32664 4.6875 7.03223 4.6875C5.73781 4.6875 4.68848 5.73683 4.68848 7.03125C4.68848 8.32567 5.73781 9.375 7.03223 9.375Z" stroke="white" stroke-width="1.5" stroke-linecap="round" stroke-linejoin="round"/>
<path d="M22.9697 25.3125C24.2641 25.3125 25.3135 24.2632 25.3135 22.9688C25.3135 21.6743 24.2641 20.625 22.9697 20.625C21.6753 20.625 20.626 21.6743 20.626 22.9688C20.626 24.2632 21.6753 25.3125 22.9697 25.3125Z" stroke="white" stroke-width="1.5" stroke-linecap="round" stroke-linejoin="round"/>
</svg>
