<svg width="36" height="36" viewBox="0 0 36 36" fill="none" xmlns="http://www.w3.org/2000/svg">
<path fill-rule="evenodd" clip-rule="evenodd" d="M22.5 6H31.5L27.96 9.54C30.135 11.7 31.5 14.685 31.5 18C31.5 23.595 27.675 28.275 22.5 29.61V26.475C25.995 25.245 28.5 21.915 28.5 18C28.5 15.51 27.48 13.275 25.86 11.64L22.5 15V6ZM8.04 26.4602C5.865 24.3002 4.5 21.3152 4.5 18.0002C4.5 12.4052 8.325 7.72524 13.5 6.39024V9.52524C10.005 10.7552 7.5 14.0852 7.5 18.0002C7.5 20.4902 8.52 22.7252 10.14 24.3602L13.5 21.0002V30.0002H4.5L8.04 26.4602Z" fill="white"/>
</svg>
