<svg width="80" height="80" viewBox="0 0 80 80" fill="none" xmlns="http://www.w3.org/2000/svg">
<g id="sync_problem_24px">
<path id="icon/notification/sync_problem_24px" fill-rule="evenodd" clip-rule="evenodd" d="M70 13.334H50V33.334L57.4667 25.8673C61.0667 29.5007 63.3333 34.4673 63.3333 40.0007C63.3333 48.7007 57.7667 56.1007 50 58.834V65.8007C61.5 62.834 70 52.434 70 40.0007C70 32.634 66.9667 26.0007 62.1333 21.2007L70 13.334ZM17.8667 58.8001C13.0333 54.0001 10 47.3668 10 40.0001C10 27.5668 18.5 17.1668 30 14.2001V21.1668C22.2333 23.9001 16.6667 31.3001 16.6667 40.0001C16.6667 45.5334 18.9333 50.5001 22.5333 54.1334L30 46.6668V66.6668H10L17.8667 58.8001ZM43.3333 56.6673H36.6667V50.0006H43.3333V56.6673ZM43.3333 43.334H36.6667V23.334H43.3333V43.334Z" fill="white"/>
</g>
</svg>
