<svg width="24" height="24" viewBox="0 0 24 24" fill="none" xmlns="http://www.w3.org/2000/svg">
<path fill-rule="evenodd" clip-rule="evenodd" d="M6.69503 6.31632C6.31591 6.79027 6.08436 7.55807 6.08436 8.70506C6.08436 10.3842 6.58055 11.1723 6.9589 11.6264C7.04691 11.732 7.13029 11.8215 7.21313 11.9104L7.21314 11.9104L7.2521 11.9523C7.33836 12.0452 7.44569 12.1615 7.52435 12.2838C7.60766 12.4134 7.69678 12.6069 7.66573 12.8464C7.63575 13.0777 7.50605 13.2529 7.37853 13.3805C6.9622 13.7968 6.45609 14.0955 5.96553 14.3407C5.71924 14.4639 5.46863 14.5775 5.23073 14.6852L5.22658 14.6871L5.22649 14.6872C4.987 14.7956 4.76112 14.8979 4.54743 15.0048C4.11233 15.2223 3.77625 15.436 3.54811 15.6904C3.33496 15.9282 3.20312 16.2155 3.20312 16.6285C3.20312 16.9046 2.97927 17.1285 2.70312 17.1285C2.42698 17.1285 2.20312 16.9046 2.20312 16.6285C2.20312 15.961 2.43145 15.4379 2.80354 15.0229C3.16065 14.6246 3.63492 14.343 4.10021 14.1104C4.33125 13.9948 4.57211 13.8857 4.80542 13.7801L4.80544 13.7801L4.81814 13.7743C5.05856 13.6654 5.29191 13.5595 5.51832 13.4463C5.94317 13.2339 6.31518 13.0091 6.61011 12.7327C6.58651 12.7058 6.55683 12.6732 6.5193 12.6328L6.48338 12.5942C6.40099 12.5058 6.29774 12.395 6.19067 12.2665C5.66864 11.6401 5.08436 10.6275 5.08436 8.70506C5.08436 7.45126 5.3329 6.41829 5.91413 5.69166C6.51241 4.94373 7.3947 4.60352 8.46559 4.60352C9.49299 4.60352 10.1848 4.83385 10.6261 5.20857C10.8847 5.42811 11.035 5.67827 11.1162 5.91476C11.2 5.90805 11.2852 5.90366 11.3717 5.90158C11.4567 5.66947 11.6091 5.42627 11.8646 5.21239C12.3144 4.83588 13.0202 4.60352 14.0721 4.60352C15.1665 4.60352 16.0677 4.94582 16.6798 5.70021C17.2757 6.43461 17.5312 7.48001 17.5312 8.75008C17.5312 10.697 16.9309 11.7218 16.3959 12.3548C16.2861 12.4847 16.1802 12.5966 16.0956 12.6861L16.0956 12.6861L16.0587 12.7252C16.0194 12.767 15.9884 12.8006 15.9638 12.8282C16.2682 13.1101 16.6524 13.339 17.0905 13.5549C17.3233 13.6697 17.5633 13.7771 17.8101 13.8873L17.8231 13.8931L17.8232 13.8931C18.0629 14.0001 18.3099 14.1105 18.5469 14.2273C19.024 14.4624 19.5093 14.7466 19.8748 15.1484C20.2556 15.5672 20.4903 16.0961 20.4903 16.7725C20.4903 17.0487 20.2665 17.2725 19.9903 17.2725C19.7142 17.2725 19.4903 17.0487 19.4903 16.7725C19.4903 16.3549 19.3552 16.0634 19.1349 15.8212C18.8993 15.5621 18.5524 15.3449 18.1048 15.1242C17.885 15.0159 17.6527 14.9122 17.4068 14.8024L17.4024 14.8004C17.158 14.6913 16.9009 14.5764 16.6483 14.4519C16.1453 14.2039 15.627 13.9023 15.2006 13.482C15.0708 13.3541 14.9379 13.1774 14.9071 12.9433C14.8752 12.7004 14.9669 12.5046 15.0519 12.3742C15.1323 12.2509 15.2421 12.1337 15.3307 12.0396L15.3707 11.9972L15.3707 11.9972C15.4558 11.9071 15.5416 11.8163 15.6322 11.7092C16.0218 11.2482 16.5312 10.4497 16.5312 8.75008C16.5312 7.58935 16.2937 6.81146 15.9033 6.33028C15.5291 5.8691 14.9507 5.60352 14.0721 5.60352C13.151 5.60352 12.7102 5.80873 12.5065 5.97919C12.4943 5.98946 12.4826 5.9998 12.4716 6.01016C13.1051 6.1642 13.6385 6.48332 14.0424 6.9883C14.6236 7.71492 14.8722 8.74789 14.8722 10.0017C14.8722 11.9241 14.2879 12.9367 13.7659 13.5632C13.6588 13.6917 13.5555 13.8024 13.4732 13.8908L13.4732 13.8908L13.4372 13.9294C13.3997 13.9698 13.37 14.0025 13.3464 14.0293C13.6414 14.3058 14.0134 14.5305 14.4382 14.7429C14.6646 14.8562 14.898 14.962 15.1384 15.0709L15.1513 15.0768L15.1514 15.0768C15.3846 15.1825 15.6254 15.2915 15.8563 15.407C16.3216 15.6396 16.7959 15.9212 17.153 16.3195C17.5251 16.7345 17.7534 17.2576 17.7534 17.9251C17.7534 18.2012 17.5296 18.4251 17.2534 18.4251C16.9773 18.4251 16.7534 18.2012 16.7534 17.9251C16.7534 17.5121 16.6216 17.2248 16.4084 16.9871C16.1803 16.7326 15.8442 16.519 15.4091 16.3014C15.1954 16.1946 14.9695 16.0922 14.73 15.9837L14.7299 15.9837L14.7258 15.9819C14.4879 15.8741 14.2373 15.7605 13.991 15.6374C13.5005 15.3921 12.9943 15.0934 12.578 14.6771C12.4505 14.5496 12.3208 14.3743 12.2908 14.143C12.2598 13.9035 12.3489 13.7101 12.4322 13.5805C12.5109 13.4581 12.6182 13.3418 12.7044 13.2489L12.7434 13.2071C12.8263 13.1181 12.9096 13.0286 12.9976 12.923C13.376 12.469 13.8722 11.6808 13.8722 10.0017C13.8722 8.8547 13.6406 8.0869 13.2615 7.61295C12.9487 7.22188 12.4894 6.97448 11.8219 6.91442C11.8077 6.91563 11.7933 6.91625 11.7788 6.91625C11.741 6.91625 11.7042 6.91206 11.6688 6.90411C11.611 6.90147 11.5517 6.90015 11.4909 6.90015C10.6408 6.90015 10.0825 7.16031 9.72039 7.61295C9.34127 8.0869 9.10972 8.8547 9.10972 10.0017C9.10972 11.6808 9.6059 12.469 9.98425 12.923C10.0723 13.0286 10.1557 13.1181 10.2385 13.2071L10.2775 13.2489C10.3637 13.3418 10.471 13.4581 10.5497 13.5805C10.633 13.7101 10.7221 13.9035 10.6911 14.143C10.6611 14.3743 10.5314 14.5496 10.4039 14.6771C9.98756 15.0934 9.48145 15.3921 8.99089 15.6374C8.7446 15.7605 8.49399 15.8741 8.25608 15.9819L8.252 15.9837C8.01246 16.0922 7.78652 16.1945 7.57278 16.3014C7.13769 16.519 6.80161 16.7326 6.57347 16.9871C6.36031 17.2248 6.22848 17.5121 6.22848 17.9251C6.22848 18.2012 6.00462 18.4251 5.72848 18.4251C5.45234 18.4251 5.22848 18.2012 5.22848 17.9251C5.22848 17.2576 5.4568 16.7345 5.8289 16.3195C6.18601 15.9212 6.66028 15.6396 7.12557 15.407C7.35655 15.2915 7.59733 15.1824 7.83059 15.0768L7.83068 15.0767L7.84349 15.0709C8.08392 14.962 8.31727 14.8562 8.54368 14.7429C8.96852 14.5305 9.34053 14.3058 9.63546 14.0293C9.61187 14.0025 9.58219 13.9698 9.54466 13.9294L9.50874 13.8908L9.50874 13.8908C9.42635 13.8024 9.3231 13.6917 9.21603 13.5632C8.69399 12.9367 8.10972 11.9241 8.10972 10.0017C8.10972 8.74789 8.35825 7.71492 8.93948 6.9883C9.25729 6.59099 9.65524 6.30874 10.119 6.13141C10.0864 6.07845 10.0412 6.02379 9.97884 5.97085C9.78395 5.80536 9.35926 5.60352 8.46559 5.60352C7.61543 5.60352 7.0571 5.86368 6.69503 6.31632Z" fill="#95989B"/>
</svg>
