<svg width="54" height="54" viewBox="0 0 54 54" fill="none" xmlns="http://www.w3.org/2000/svg">
<path d="M27 3.94442C24.4344 2.46315 21.524 1.68342 18.5615 1.68359C15.599 1.68377 12.6887 2.46386 10.1232 3.94543C7.55779 5.42701 5.42759 7.55785 3.94679 10.1237C2.466 12.6896 1.68679 15.6001 1.6875 18.5627" stroke="#00B46A" stroke-width="2" stroke-linecap="round" stroke-linejoin="round"/>
<path d="M35.4372 18.5625C35.4401 16.2397 34.9621 13.9415 34.0332 11.8125" stroke="#00B46A" stroke-width="2" stroke-linecap="round" stroke-linejoin="round"/>
<path d="M18.5625 52.3121C19.6959 52.3123 20.8265 52.1992 21.9375 51.9746" stroke="#00B46A" stroke-width="2" stroke-linecap="round" stroke-linejoin="round"/>
<path d="M1.6875 28.6875V35.4375C1.68657 38.7218 2.64405 41.935 4.44255 44.6831C6.24104 47.4312 8.80238 49.5948 11.8125 50.9085" stroke="#00B46A" stroke-width="2" stroke-linecap="round" stroke-linejoin="round"/>
<path d="M28.6875 21.9375V18.5625C28.6878 16.7851 28.2203 15.0388 27.3318 13.4993C26.4432 11.9599 25.1651 10.6814 23.6259 9.79254C22.0866 8.90365 20.3405 8.43563 18.563 8.43555C16.7855 8.43546 15.0393 8.9033 13.5 9.79204" stroke="#00B46A" stroke-width="2" stroke-linecap="round" stroke-linejoin="round"/>
<path d="M8.4375 18.5625V35.4375C8.4375 38.1228 9.50424 40.6981 11.403 42.597C13.3018 44.4958 15.8772 45.5625 18.5625 45.5625" stroke="#00B46A" stroke-width="2" stroke-linecap="round" stroke-linejoin="round"/>
<path d="M21.9375 27V18.5625C21.9375 17.6674 21.5819 16.8089 20.949 16.176C20.3161 15.5431 19.4576 15.1875 18.5625 15.1875C17.6674 15.1875 16.8089 15.5431 16.176 16.176C15.5431 16.8089 15.1875 17.6674 15.1875 18.5625V25.3125" stroke="#00B46A" stroke-width="2" stroke-linecap="round" stroke-linejoin="round"/>
<path d="M15.1875 35.4375C15.1875 36.3326 15.5431 37.191 16.176 37.824C16.8089 38.4569 17.6674 38.8125 18.5625 38.8125" stroke="#00B46A" stroke-width="2" stroke-linecap="round" stroke-linejoin="round"/>
<path d="M38.8057 52.3125C46.2615 52.3125 52.3057 46.2683 52.3057 38.8125C52.3057 31.3567 46.2615 25.3125 38.8057 25.3125C31.3498 25.3125 25.3057 31.3567 25.3057 38.8125C25.3057 46.2683 31.3498 52.3125 38.8057 52.3125Z" stroke="#00B46A" stroke-width="1.5" stroke-linecap="round" stroke-linejoin="round"/>
<path d="M44.8222 34.8867L38.286 43.6032C38.1406 43.7965 37.9555 43.9564 37.7431 44.072C37.5306 44.1876 37.2959 44.2562 37.0546 44.2733C36.8134 44.2903 36.5713 44.2554 36.3447 44.1709C36.1181 44.0863 35.9123 43.9541 35.7412 43.7832L32.3662 40.4082" stroke="#00B46A" stroke-width="1.5" stroke-linecap="round" stroke-linejoin="round"/>
</svg>
