<svg width="30" height="30" viewBox="0 0 30 30" fill="none" xmlns="http://www.w3.org/2000/svg">
<path d="M15 2.19156C13.5747 1.36863 11.9578 0.935448 10.3119 0.935547C8.66609 0.935646 7.04927 1.36903 5.62402 2.19212C4.19877 3.01522 3.01533 4.19902 2.19266 5.62452C1.37 7.05001 0.937103 8.66696 0.9375 10.3128" stroke="white" stroke-width="1.5" stroke-linecap="round" stroke-linejoin="round"/>
<path d="M19.6872 10.3125C19.6889 9.02206 19.4233 7.74526 18.9072 6.5625" stroke="white" stroke-width="1.5" stroke-linecap="round" stroke-linejoin="round"/>
<path d="M10.3125 29.0625C10.9422 29.0626 11.5703 28.9998 12.1875 28.875" stroke="white" stroke-width="1.5" stroke-linecap="round" stroke-linejoin="round"/>
<path d="M0.9375 15.9375V19.6875C0.936981 21.5121 1.46892 23.2972 2.46808 24.824C3.46725 26.3507 4.89021 27.5527 6.5625 28.2825" stroke="white" stroke-width="1.5" stroke-linecap="round" stroke-linejoin="round"/>
<path d="M15.9375 12.1867V10.3117C15.9377 9.32417 15.6779 8.35403 15.1843 7.49877C14.6907 6.6435 13.9806 5.93326 13.1255 5.43943C12.2703 4.9456 11.3003 4.6856 10.3128 4.68555C9.32529 4.6855 8.35519 4.94541 7.5 5.43915" stroke="white" stroke-width="1.5" stroke-linecap="round" stroke-linejoin="round"/>
<path d="M4.6875 10.3125V19.6875C4.6875 21.1793 5.28013 22.6101 6.33502 23.665C7.38992 24.7199 8.82066 25.3125 10.3125 25.3125" stroke="white" stroke-width="1.5" stroke-linecap="round" stroke-linejoin="round"/>
<path d="M12.1875 15V10.3125C12.1875 9.81522 11.99 9.33831 11.6383 8.98667C11.2867 8.63504 10.8098 8.4375 10.3125 8.4375C9.81522 8.4375 9.33831 8.63504 8.98667 8.98667C8.63504 9.33831 8.4375 9.81522 8.4375 10.3125V14.0625" stroke="white" stroke-width="1.5" stroke-linecap="round" stroke-linejoin="round"/>
<path d="M8.4375 19.6875C8.4375 20.1848 8.63504 20.6617 8.98667 21.0133C9.33831 21.365 9.81522 21.5625 10.3125 21.5625" stroke="white" stroke-width="1.5" stroke-linecap="round" stroke-linejoin="round"/>
<path d="M21.5586 29.0625C25.7007 29.0625 29.0586 25.7046 29.0586 21.5625C29.0586 17.4204 25.7007 14.0625 21.5586 14.0625C17.4165 14.0625 14.0586 17.4204 14.0586 21.5625C14.0586 25.7046 17.4165 29.0625 21.5586 29.0625Z" stroke="white" stroke-width="1.5" stroke-linecap="round" stroke-linejoin="round"/>
<path d="M24.9014 19.3809L21.2702 24.2234C21.1895 24.3307 21.0866 24.4196 20.9686 24.4838C20.8506 24.548 20.7201 24.5861 20.5861 24.5956C20.4521 24.6051 20.3176 24.5857 20.1917 24.5387C20.0658 24.4918 19.9515 24.4183 19.8564 24.3234L17.9814 22.4484" stroke="white" stroke-width="1.5" stroke-linecap="round" stroke-linejoin="round"/>
</svg>
