<svg width="30" height="30" viewBox="0 0 30 30" fill="none" xmlns="http://www.w3.org/2000/svg">
<path d="M0.9375 12.1875V7.5C0.9375 5.75952 1.6289 4.09032 2.85961 2.85961C4.09032 1.6289 5.75952 0.9375 7.5 0.9375C9.24048 0.9375 10.9097 1.6289 12.1404 2.85961C13.3711 4.09032 14.0625 5.75952 14.0625 7.5V12.1875" stroke="#2B3137" stroke-width="1.5" stroke-linecap="round" stroke-linejoin="round"/>
<path d="M27.1875 12.1875H10.3125C9.27697 12.1875 8.4375 13.027 8.4375 14.0625V27.1875C8.4375 28.223 9.27697 29.0625 10.3125 29.0625H27.1875C28.223 29.0625 29.0625 28.223 29.0625 27.1875V14.0625C29.0625 13.027 28.223 12.1875 27.1875 12.1875Z" stroke="#2B3137" stroke-width="1.5" stroke-linecap="round" stroke-linejoin="round"/>
<path d="M18.75 18.75V22.5" stroke="#2B3137" stroke-width="1.5" stroke-linecap="round" stroke-linejoin="round"/>
</svg>
