<svg width="11" height="14" viewBox="0 0 11 14" fill="none" xmlns="http://www.w3.org/2000/svg">
<path d="M9.8421 5.54236H9.4079V3.93813C9.40764 2.99288 9.06998 2.07926 8.45657 1.36408C7.84315 0.648908 6.99492 0.179898 6.06674 0.0426937C5.13857 -0.0945106 4.19238 0.109244 3.40094 0.616753C2.60951 1.12426 2.02564 1.90167 1.75595 2.80701C1.72869 2.89875 1.71963 2.995 1.72929 3.09026C1.73895 3.18552 1.76714 3.27794 1.81225 3.36223C1.85735 3.44651 1.91849 3.52102 1.99217 3.5815C2.06586 3.64198 2.15064 3.68725 2.24168 3.71471C2.33273 3.74217 2.42825 3.7513 2.52279 3.74157C2.61734 3.73183 2.70905 3.70343 2.7927 3.65798C2.87636 3.61253 2.9503 3.55093 3.01033 3.47669C3.07035 3.40244 3.11527 3.31701 3.14253 3.22528C3.31256 2.6554 3.68031 2.16613 4.17864 1.84677C4.67697 1.52741 5.27266 1.39927 5.85698 1.48572C6.44129 1.57218 6.97527 1.86747 7.36145 2.31769C7.74763 2.76792 7.96026 3.34306 7.96053 3.93813V5.25068C7.96053 5.32804 7.93003 5.40223 7.87574 5.45692C7.82146 5.51162 7.74783 5.54236 7.67105 5.54236H1.15789C0.850802 5.54236 0.556287 5.66528 0.339139 5.88408C0.121992 6.10288 0 6.39963 0 6.70906V12.8343C0 13.1437 0.121992 13.4405 0.339139 13.6593C0.556287 13.8781 0.850802 14.001 1.15789 14.001H9.8421C10.1492 14.001 10.4437 13.8781 10.6609 13.6593C10.878 13.4405 11 13.1437 11 12.8343V6.70906C11 6.39963 10.878 6.10288 10.6609 5.88408C10.4437 5.66528 10.1492 5.54236 9.8421 5.54236ZM5.5 10.7925C5.27099 10.7925 5.04712 10.7241 4.85671 10.5959C4.66629 10.4677 4.51788 10.2855 4.43024 10.0723C4.34261 9.85912 4.31968 9.62453 4.36435 9.39821C4.40903 9.1719 4.51931 8.96401 4.68124 8.80084C4.84318 8.63768 5.0495 8.52656 5.27411 8.48154C5.49872 8.43652 5.73153 8.45963 5.94311 8.54793C6.15468 8.63624 6.33552 8.78578 6.46275 8.97764C6.58999 9.1695 6.65789 9.39507 6.65789 9.62583C6.65789 9.93526 6.5359 10.232 6.31876 10.4508C6.10161 10.6696 5.80709 10.7925 5.5 10.7925Z" fill="white"/>
</svg>
