<svg width="32" height="32" viewBox="0 0 32 32" fill="none" xmlns="http://www.w3.org/2000/svg">
<g clip-path="url(#clip0)">
<path d="M16 0C12.8355 0 9.74207 0.938384 7.11088 2.69649C4.4797 4.45459 2.42894 6.95345 1.21793 9.87706C0.0069325 12.8007 -0.309921 16.0177 0.307443 19.1214C0.924806 22.2251 2.44866 25.0761 4.6863 27.3137C6.92394 29.5513 9.77487 31.0752 12.8786 31.6926C15.9823 32.3099 19.1993 31.9931 22.1229 30.7821C25.0466 29.5711 27.5454 27.5203 29.3035 24.8891C31.0616 22.2579 32 19.1645 32 16C32 11.7565 30.3143 7.68687 27.3137 4.68629C24.3131 1.68571 20.2435 0 16 0V0ZM2.00001 16C2.0041 13.3064 2.78514 10.6712 4.24945 8.41043C5.71377 6.14965 7.79918 4.35928 10.2556 3.25406C12.712 2.14885 15.435 1.77571 18.0982 2.17939C20.7613 2.58308 23.2515 3.74646 25.27 5.53L5.53001 25.27C3.25657 22.7173 2.00031 19.4183 2.00001 16ZM16 30C12.5817 29.9997 9.28269 28.7434 6.73001 26.47L26.47 6.73C28.2535 8.7485 29.4169 11.2387 29.8206 13.9018C30.2243 16.565 29.8512 19.288 28.7459 21.7444C27.6407 24.2008 25.8504 26.2862 23.5896 27.7506C21.3288 29.2149 18.6936 29.9959 16 30Z" fill="white"/>
<path d="M23.9996 11.5901L22.5696 12.3601L18.6996 16.2401V19.1301C18.6874 19.3781 18.5835 19.6128 18.4079 19.7884C18.2323 19.964 17.9976 20.068 17.7496 20.0801H14.8396L13.5596 21.3601H18.2696C18.7462 21.3574 19.2025 21.167 19.5395 20.83C19.8765 20.493 20.0669 20.0367 20.0696 19.5601V18.3001L23.9996 20.4401C24.0546 20.4696 24.1164 20.4842 24.1788 20.4826C24.2413 20.481 24.3022 20.4632 24.3557 20.4309C24.4091 20.3987 24.4533 20.353 24.4838 20.2985C24.5142 20.244 24.53 20.1825 24.5296 20.1201V11.9001C24.5274 11.8376 24.5098 11.7766 24.4784 11.7225C24.447 11.6684 24.4028 11.6229 24.3496 11.5901C24.296 11.5603 24.2358 11.5447 24.1746 11.5447C24.1133 11.5447 24.0531 11.5603 23.9996 11.5901ZM23.3996 18.7301L20.1096 16.9401V15.0801L23.3996 13.2901V18.7301Z" fill="white"/>
<path d="M9.29033 10.6399C8.81375 10.6425 8.35744 10.833 8.02044 11.17C7.68344 11.507 7.49296 11.9633 7.49033 12.4399V19.5599C7.4854 20.0341 7.66882 20.4908 8.00033 20.8299L9.09033 19.7299C8.94325 19.5645 8.86149 19.3512 8.86033 19.1299V12.8699C8.87245 12.6219 8.97643 12.3872 9.15203 12.2116C9.32763 12.036 9.56229 11.932 9.81033 11.9199H16.9103L18.1803 10.6399H9.29033Z" fill="white"/>
</g>
<defs>
<clipPath id="clip0">
<rect width="32" height="32" fill="white"/>
</clipPath>
</defs>
</svg>
