<svg width="24" height="24" viewBox="0 0 24 24" fill="none" xmlns="http://www.w3.org/2000/svg">
<path d="M14.25 14.71C14.2501 14.8288 14.222 14.946 14.1679 15.0518C14.1137 15.1576 14.0352 15.2491 13.9388 15.3185C13.8424 15.388 13.7308 15.4335 13.6133 15.4513C13.4958 15.4692 13.3757 15.4587 13.263 15.421L10.263 14.421C10.1137 14.3713 9.98385 14.2758 9.89179 14.1482C9.79972 14.0206 9.75012 13.8673 9.75 13.71V7.29098C9.75006 7.1335 9.79962 6.98003 9.89168 6.85226C9.98374 6.72449 10.1136 6.62889 10.263 6.57898L13.263 5.57898C13.3758 5.54119 13.4959 5.53079 13.6135 5.54866C13.7311 5.56653 13.8427 5.61214 13.9392 5.68172C14.0357 5.7513 14.1142 5.84286 14.1682 5.9488C14.2223 6.05475 14.2503 6.17204 14.25 6.29098V14.71Z" stroke="white" stroke-width="1.5" stroke-linecap="round" stroke-linejoin="round"/>
<path d="M17.25 6.75H14.25V14.25H17.25V6.75Z" stroke="white" stroke-width="1.5" stroke-linecap="round" stroke-linejoin="round"/>
<path d="M5.25001 12.75V6.862C5.24923 6.59912 5.31755 6.34065 5.44813 6.11249C5.57871 5.88433 5.76695 5.69449 5.99401 5.562L14.25 0.75L22.506 5.566C22.7331 5.69849 22.9213 5.88833 23.0519 6.11649C23.1825 6.34465 23.2508 6.60312 23.25 6.866V18.75C23.25 19.1478 23.092 19.5294 22.8107 19.8107C22.5294 20.092 22.1478 20.25 21.75 20.25H12.313" stroke="white" stroke-width="1.5" stroke-linecap="round" stroke-linejoin="round"/>
<path d="M2.43848 20.654C3.18447 19.9082 4.19613 19.4893 5.25098 19.4893C6.30583 19.4893 7.31749 19.9082 8.06348 20.654" stroke="white" stroke-width="1.5" stroke-linecap="round" stroke-linejoin="round"/>
<path d="M0.75 17.989C1.94348 16.7955 3.56218 16.1251 5.25 16.1251C6.93782 16.1251 8.55652 16.7955 9.75 17.989" stroke="white" stroke-width="1.5" stroke-linecap="round" stroke-linejoin="round"/>
<path d="M5.25 22.5C5.32417 22.5 5.39667 22.522 5.45834 22.5632C5.52001 22.6044 5.56807 22.663 5.59645 22.7315C5.62484 22.8 5.63226 22.8754 5.61779 22.9482C5.60333 23.0209 5.56761 23.0877 5.51516 23.1402C5.46272 23.1926 5.3959 23.2283 5.32316 23.2428C5.25042 23.2573 5.17502 23.2498 5.10649 23.2215C5.03797 23.1931 4.9794 23.145 4.9382 23.0833C4.89699 23.0217 4.875 22.9492 4.875 22.875C4.875 22.7755 4.91451 22.6802 4.98484 22.6098C5.05516 22.5395 5.15054 22.5 5.25 22.5Z" stroke="white" stroke-width="1.5" stroke-linecap="round" stroke-linejoin="round"/>
<path d="M12 10.25C12.0494 10.25 12.0978 10.2647 12.1389 10.2921C12.18 10.3196 12.212 10.3586 12.231 10.4043C12.2499 10.45 12.2548 10.5003 12.2452 10.5488C12.2356 10.5973 12.2117 10.6418 12.1768 10.6768C12.1418 10.7117 12.0973 10.7356 12.0488 10.7452C12.0003 10.7548 11.95 10.7499 11.9043 10.731C11.8586 10.712 11.8196 10.68 11.7921 10.6389C11.7647 10.5978 11.75 10.5494 11.75 10.5C11.75 10.4337 11.7763 10.3701 11.8232 10.3232C11.8701 10.2763 11.9337 10.25 12 10.25Z" stroke="white" stroke-width="1.5" stroke-linecap="round" stroke-linejoin="round"/>
</svg>
