<svg width="22" height="22" viewBox="0 0 22 22" fill="none" xmlns="http://www.w3.org/2000/svg">
<g opacity="0.5">
<g clip-path="url(#clip0)">
<path d="M11 12.331C11.7594 12.331 12.375 11.7154 12.375 10.956C12.375 10.1966 11.7594 9.58099 11 9.58099C10.2406 9.58099 9.625 10.1966 9.625 10.956C9.625 11.7154 10.2406 12.331 11 12.331Z" stroke="#2B3137" stroke-width="1.5" stroke-linecap="round" stroke-linejoin="round"/>
<path d="M14.4023 7.55328C14.8494 8.00011 15.204 8.53064 15.446 9.11456C15.6879 9.69848 15.8124 10.3243 15.8124 10.9564C15.8124 11.5885 15.6879 12.2143 15.446 12.7983C15.204 13.3822 14.8494 13.9127 14.4023 14.3595" stroke="#2B3137" stroke-width="1.5" stroke-linecap="round" stroke-linejoin="round"/>
<path d="M7.5976 14.3595C7.15056 13.9127 6.79593 13.3822 6.55398 12.7983C6.31203 12.2143 6.1875 11.5885 6.1875 10.9564C6.1875 10.3243 6.31203 9.69848 6.55398 9.11456C6.79593 8.53064 7.15056 8.00011 7.5976 7.55328" stroke="#2B3137" stroke-width="1.5" stroke-linecap="round" stroke-linejoin="round"/>
<path d="M16.3477 5.60907C17.7656 7.02742 18.5622 8.95088 18.5622 10.9564C18.5622 12.962 17.7656 14.8855 16.3477 16.3038" stroke="#2B3137" stroke-width="1.5" stroke-linecap="round" stroke-linejoin="round"/>
<path d="M5.65179 16.3038C4.94947 15.6016 4.39236 14.768 4.01226 13.8505C3.63216 12.933 3.43652 11.9496 3.43652 10.9564C3.43652 9.96332 3.63216 8.97992 4.01226 8.06241C4.39236 7.1449 4.94947 6.31125 5.65179 5.60907" stroke="#2B3137" stroke-width="1.5" stroke-linecap="round" stroke-linejoin="round"/>
<path d="M18.292 3.66669C20.2258 5.60078 21.3121 8.22378 21.3121 10.9588C21.3121 13.6938 20.2258 16.3168 18.292 18.2509" stroke="#2B3137" stroke-width="1.5" stroke-linecap="round" stroke-linejoin="round"/>
<path d="M3.70821 18.2481C1.77527 16.3141 0.689453 13.6917 0.689453 10.9574C0.689453 8.22308 1.77527 5.60067 3.70821 3.66669" stroke="#2B3137" stroke-width="1.5" stroke-linecap="round" stroke-linejoin="round"/>
</g>
</g>
<defs>
<clipPath id="clip0">
<rect width="22" height="22" fill="white"/>
</clipPath>
</defs>
</svg>
