<svg width="24" height="24" viewBox="0 0 24 24" fill="none" xmlns="http://www.w3.org/2000/svg">
<path d="M12 13.452C12.8284 13.452 13.5 12.7805 13.5 11.952C13.5 11.1236 12.8284 10.452 12 10.452C11.1716 10.452 10.5 11.1236 10.5 11.952C10.5 12.7805 11.1716 13.452 12 13.452Z" stroke="white" stroke-width="1.5" stroke-linecap="round" stroke-linejoin="round"/>
<path d="M15.7119 8.23999C16.1996 8.72744 16.5865 9.3062 16.8504 9.9432C17.1144 10.5802 17.2502 11.263 17.2502 11.9525C17.2502 12.642 17.1144 13.3248 16.8504 13.9618C16.5865 14.5988 16.1996 15.1775 15.7119 15.665" stroke="white" stroke-width="1.5" stroke-linecap="round" stroke-linejoin="round"/>
<path d="M8.28829 15.665C7.80061 15.1775 7.41374 14.5988 7.1498 13.9618C6.88585 13.3248 6.75 12.642 6.75 11.9525C6.75 11.263 6.88585 10.5802 7.1498 9.9432C7.41374 9.3062 7.80061 8.72744 8.28829 8.23999" stroke="white" stroke-width="1.5" stroke-linecap="round" stroke-linejoin="round"/>
<path d="M17.834 6.11902C19.3808 7.66631 20.2498 9.76463 20.2498 11.9525C20.2498 14.1404 19.3808 16.2387 17.834 17.786" stroke="white" stroke-width="1.5" stroke-linecap="round" stroke-linejoin="round"/>
<path d="M6.16568 17.786C5.39951 17.02 4.79175 16.1106 4.3771 15.1097C3.96244 14.1087 3.74902 13.0359 3.74902 11.9525C3.74902 10.8691 3.96244 9.79631 4.3771 8.79539C4.79175 7.79447 5.39951 6.88503 6.16568 6.11902" stroke="white" stroke-width="1.5" stroke-linecap="round" stroke-linejoin="round"/>
<path d="M19.9551 4C22.0646 6.10992 23.2498 8.97137 23.2498 11.955C23.2498 14.9386 22.0646 17.8001 19.9551 19.91" stroke="white" stroke-width="1.5" stroke-linecap="round" stroke-linejoin="round"/>
<path d="M4.04514 19.907C1.93649 17.7972 0.751953 14.9364 0.751953 11.9535C0.751953 8.97061 1.93649 6.1098 4.04514 4" stroke="white" stroke-width="1.5" stroke-linecap="round" stroke-linejoin="round"/>
</svg>
