<svg width="30" height="30" viewBox="0 0 30 30" fill="none" xmlns="http://www.w3.org/2000/svg">
<circle cx="15" cy="15" r="15" fill="white" fill-opacity="0.2"/>
<g clip-path="url(#clip0)">
<path d="M9.33286 9.33333H20.6662C20.729 9.33337 20.7905 9.31568 20.8437 9.28229C20.8968 9.2489 20.9395 9.20118 20.9667 9.14462C20.9939 9.08805 21.0047 9.02495 20.9976 8.96257C20.9906 8.90018 20.966 8.84106 20.9269 8.792L19.7929 7.37533C19.6995 7.25804 19.5809 7.16336 19.4458 7.09837C19.3108 7.03338 19.1628 6.99975 19.0129 7H10.9862C10.8363 6.99975 10.6883 7.03338 10.5532 7.09837C10.4182 7.16336 10.2995 7.25804 10.2062 7.37533L9.07286 8.792C9.03372 8.84101 9.0092 8.90008 9.00213 8.9624C8.99505 9.02472 9.0057 9.08778 9.03286 9.14432C9.06002 9.20086 9.10257 9.24859 9.15564 9.28202C9.20871 9.31546 9.27014 9.33325 9.33286 9.33333Z" fill="white"/>
<path d="M20.6667 10.3335H9.33333C9.24493 10.3335 9.16014 10.3686 9.09763 10.4311C9.03512 10.4936 9 10.5784 9 10.6668V22.0002C9 22.2654 9.10536 22.5197 9.29289 22.7073C9.48043 22.8948 9.73478 23.0002 10 23.0002H13.3333C13.4217 23.0002 13.5065 22.965 13.569 22.9025C13.6315 22.84 13.6667 22.7552 13.6667 22.6668V21.3335C13.6667 20.9799 13.8071 20.6407 14.0572 20.3907C14.3072 20.1406 14.6464 20.0002 15 20.0002C15.3536 20.0002 15.6928 20.1406 15.9428 20.3907C16.1929 20.6407 16.3333 20.9799 16.3333 21.3335V22.6668C16.3333 22.7552 16.3685 22.84 16.431 22.9025C16.4935 22.965 16.5783 23.0002 16.6667 23.0002H20C20.2652 23.0002 20.5196 22.8948 20.7071 22.7073C20.8946 22.5197 21 22.2654 21 22.0002V10.6668C21 10.5784 20.9649 10.4936 20.9024 10.4311C20.8399 10.3686 20.7551 10.3335 20.6667 10.3335ZM12.3333 18.0002C12.3333 18.0886 12.2982 18.1734 12.2357 18.2359C12.1732 18.2984 12.0884 18.3335 12 18.3335H10.6667C10.5783 18.3335 10.4935 18.2984 10.431 18.2359C10.3685 18.1734 10.3333 18.0886 10.3333 18.0002V16.6668C10.3333 16.4016 10.4387 16.1473 10.6262 15.9597C10.8138 15.7722 11.0681 15.6668 11.3333 15.6668C11.5985 15.6668 11.8529 15.7722 12.0404 15.9597C12.228 16.1473 12.3333 16.4016 12.3333 16.6668V18.0002ZM12.3333 14.0002C12.3333 14.0886 12.2982 14.1734 12.2357 14.2359C12.1732 14.2984 12.0884 14.3335 12 14.3335H10.6667C10.5783 14.3335 10.4935 14.2984 10.431 14.2359C10.3685 14.1734 10.3333 14.0886 10.3333 14.0002V12.6668C10.3333 12.4016 10.4387 12.1473 10.6262 11.9597C10.8138 11.7722 11.0681 11.6668 11.3333 11.6668C11.5985 11.6668 11.8529 11.7722 12.0404 11.9597C12.228 12.1473 12.3333 12.4016 12.3333 12.6668V14.0002ZM16 18.0002C16 18.0886 15.9649 18.1734 15.9024 18.2359C15.8399 18.2984 15.7551 18.3335 15.6667 18.3335H14.3333C14.2449 18.3335 14.1601 18.2984 14.0976 18.2359C14.0351 18.1734 14 18.0886 14 18.0002V16.6668C14 16.4016 14.1054 16.1473 14.2929 15.9597C14.4804 15.7722 14.7348 15.6668 15 15.6668C15.2652 15.6668 15.5196 15.7722 15.7071 15.9597C15.8946 16.1473 16 16.4016 16 16.6668V18.0002ZM16 14.0002C16 14.0886 15.9649 14.1734 15.9024 14.2359C15.8399 14.2984 15.7551 14.3335 15.6667 14.3335H14.3333C14.2449 14.3335 14.1601 14.2984 14.0976 14.2359C14.0351 14.1734 14 14.0886 14 14.0002V12.6668C14 12.4016 14.1054 12.1473 14.2929 11.9597C14.4804 11.7722 14.7348 11.6668 15 11.6668C15.2652 11.6668 15.5196 11.7722 15.7071 11.9597C15.8946 12.1473 16 12.4016 16 12.6668V14.0002ZM19.6667 18.0002C19.6667 18.0886 19.6315 18.1734 19.569 18.2359C19.5065 18.2984 19.4217 18.3335 19.3333 18.3335H18C17.9116 18.3335 17.8268 18.2984 17.7643 18.2359C17.7018 18.1734 17.6667 18.0886 17.6667 18.0002V16.6668C17.6667 16.4016 17.772 16.1473 17.9596 15.9597C18.1471 15.7722 18.4015 15.6668 18.6667 15.6668C18.9319 15.6668 19.1862 15.7722 19.3738 15.9597C19.5613 16.1473 19.6667 16.4016 19.6667 16.6668V18.0002ZM19.6667 14.0002C19.6667 14.0886 19.6315 14.1734 19.569 14.2359C19.5065 14.2984 19.4217 14.3335 19.3333 14.3335H18C17.9116 14.3335 17.8268 14.2984 17.7643 14.2359C17.7018 14.1734 17.6667 14.0886 17.6667 14.0002V12.6668C17.6667 12.4016 17.772 12.1473 17.9596 11.9597C18.1471 11.7722 18.4015 11.6668 18.6667 11.6668C18.9319 11.6668 19.1862 11.7722 19.3738 11.9597C19.5613 12.1473 19.6667 12.4016 19.6667 12.6668V14.0002Z" fill="white"/>
</g>
<defs>
<clipPath id="clip0">
<rect x="7" y="7" width="16" height="16" fill="white"/>
</clipPath>
</defs>
</svg>
